<svg xmlns="http://www.w3.org/2000/svg" xmlns:xlink="http://www.w3.org/1999/xlink" width="559" zoomAndPan="magnify" viewBox="0 0 419.25 297.75" height="396" preserveAspectRatio="xMidYMid meet" version="1.0"><defs><g/><clipPath id="5e218916fe"><path d="M 0 0.140625 L 418.5 0.140625 L 418.5 297.359375 L 0 297.359375 Z M 0 0.140625 " clip-rule="nonzero"/></clipPath><clipPath id="09f51be5cc"><path d="M 44 183 L 196 183 L 196 297.359375 L 44 297.359375 Z M 44 183 " clip-rule="nonzero"/></clipPath><clipPath id="3686efe293"><path d="M -9.28125 259.503906 L 148.460938 148.9375 L 239.238281 278.445312 L 81.496094 389.015625 Z M -9.28125 259.503906 " clip-rule="nonzero"/></clipPath><clipPath id="7f0054d36d"><path d="M -9.28125 259.503906 L 148.460938 148.9375 L 239.238281 278.445312 L 81.496094 389.015625 Z M -9.28125 259.503906 " clip-rule="nonzero"/></clipPath><clipPath id="9916ce8e7f"><path d="M -9.28125 259.503906 L 148.460938 148.9375 L 239.238281 278.445312 L 81.496094 389.015625 Z M -9.28125 259.503906 " clip-rule="nonzero"/></clipPath><clipPath id="e1f777d01c"><path d="M 312 56 L 418.5 56 L 418.5 192 L 312 192 Z M 312 56 " clip-rule="nonzero"/></clipPath><clipPath id="2bb93ffce8"><path d="M 430.398438 242.179688 L 270.707031 134.453125 L 359.152344 3.339844 L 518.847656 111.070312 Z M 430.398438 242.179688 " clip-rule="nonzero"/></clipPath><clipPath id="f9c62bd2f5"><path d="M 430.398438 242.179688 L 270.707031 134.453125 L 359.152344 3.339844 L 518.847656 111.070312 Z M 430.398438 242.179688 " clip-rule="nonzero"/></clipPath><clipPath id="625fcb3461"><path d="M 430.398438 242.179688 L 270.707031 134.453125 L 359.152344 3.339844 L 518.847656 111.070312 Z M 430.398438 242.179688 " clip-rule="nonzero"/></clipPath><clipPath id="c03bcc3726"><path d="M 166 0.140625 L 319 0.140625 L 319 100 L 166 100 Z M 166 0.140625 " clip-rule="nonzero"/></clipPath><clipPath id="7912b45941"><path d="M 373.011719 28.324219 L 210.496094 131.746094 L 125.582031 -1.679688 L 288.101562 -105.105469 Z M 373.011719 28.324219 " clip-rule="nonzero"/></clipPath><clipPath id="1acba8ba46"><path d="M 373.011719 28.324219 L 210.496094 131.746094 L 125.582031 -1.679688 L 288.101562 -105.105469 Z M 373.011719 28.324219 " clip-rule="nonzero"/></clipPath><clipPath id="51bbf3a882"><path d="M 373.011719 28.324219 L 210.496094 131.746094 L 125.582031 -1.679688 L 288.101562 -105.105469 Z M 373.011719 28.324219 " clip-rule="nonzero"/></clipPath><clipPath id="f9e72b3d98"><path d="M 223 191 L 366 191 L 366 297.359375 L 223 297.359375 Z M 223 191 " clip-rule="nonzero"/></clipPath><clipPath id="dd019ae8ac"><path d="M 282.976562 152.882812 L 419.191406 289.09375 L 307.359375 400.925781 L 171.144531 264.714844 Z M 282.976562 152.882812 " clip-rule="nonzero"/></clipPath><clipPath id="0a3175ee0b"><path d="M 419.273438 289.175781 L 283.0625 152.964844 L 171.230469 264.796875 L 307.441406 401.011719 Z M 419.273438 289.175781 " clip-rule="nonzero"/></clipPath><clipPath id="ec89a8b019"><path d="M 419.273438 289.175781 L 283.0625 152.964844 L 171.230469 264.796875 L 307.441406 401.011719 Z M 419.273438 289.175781 " clip-rule="nonzero"/></clipPath></defs><g clip-path="url(#5e218916fe)"><path fill="#ffffff" d="M 0 0.140625 L 418.996094 0.140625 L 418.996094 297.710938 L 0 297.710938 Z M 0 0.140625 " fill-opacity="1" fill-rule="nonzero"/><path fill="#14ff00" d="M 0 0.140625 L 418.996094 0.140625 L 418.996094 297.710938 L 0 297.710938 Z M 0 0.140625 " fill-opacity="1" fill-rule="nonzero"/></g><path fill="#000000" d="M 153.609375 76.574219 C 152.210938 74.203125 149.480469 72.859375 146.753906 72.53125 C 144.027344 72.199219 141.234375 72.644531 138.605469 73.410156 C 134.65625 74.554688 131.304688 76.160156 127.523438 76.839844 C 124.597656 77.367188 122.339844 75.476562 122.488281 72.5 C 122.851562 65.089844 123.4375 58.535156 123.4375 53.3125 C 123.4375 25.726562 120.132812 11.625 99.167969 4.972656 C 84.132812 0.195312 65.441406 1.585938 51.246094 22.71875 C 44.988281 32.035156 43.480469 40.257812 37.453125 47.5625 C 35.402344 50.039062 32.460938 51.292969 30.660156 48.625 C 29.0625 46.265625 24.691406 39.445312 22.902344 37.214844 C 21.179688 35.070312 19.316406 32.960938 16.949219 31.574219 C 14.578125 30.183594 11.589844 29.597656 9.050781 30.632812 C 5.796875 31.957031 3.992188 35.660156 3.957031 39.179688 C 3.917969 42.699219 5.332031 46.066406 6.925781 49.199219 C 11.027344 57.226562 16.496094 64.453125 21.9375 71.632812 L 21.980469 71.6875 C 22.714844 72.65625 23.324219 73.699219 23.804688 74.816406 C 24.285156 75.9375 24.628906 77.09375 24.828125 78.296875 C 25.027344 79.496094 25.078125 80.703125 24.984375 81.917969 C 24.886719 83.132812 24.648438 84.316406 24.265625 85.472656 C 21.582031 93.511719 18.15625 101.21875 13.195312 108.050781 C 7.398438 116.03125 -0.8125 122.75 -10.496094 124.5 C -14.675781 125.253906 -18.984375 125.066406 -23.191406 125.636719 C -27.398438 126.210938 -31.753906 127.714844 -34.402344 131.046875 C -37.050781 134.378906 -37.234375 139.890625 -33.910156 142.539062 C -31.058594 144.8125 -26.996094 144.300781 -23.359375 144.101562 C -4.027344 143.058594 13.882812 154.253906 33.105469 156.519531 C 47.824219 158.253906 62.941406 154.574219 75.847656 147.269531 C 88.753906 139.960938 96.078125 132.597656 104.367188 120.28125 C 107.097656 116.183594 109.484375 111.894531 111.527344 107.414062 C 112.203125 105.945312 113.152344 104.6875 114.378906 103.636719 C 115.605469 102.585938 116.996094 101.84375 118.550781 101.40625 L 118.597656 101.394531 C 127.261719 98.976562 135.980469 96.542969 144.089844 92.640625 C 147.25 91.117188 150.40625 89.300781 152.5 86.472656 C 154.59375 83.644531 155.398438 79.601562 153.609375 76.574219 Z M 62.3125 58.984375 C 60.898438 58.464844 59.871094 57.15625 59.386719 55.722656 C 58.90625 54.292969 58.90625 52.746094 59.050781 51.238281 C 59.441406 47.121094 60.941406 43.019531 63.789062 40.023438 C 66.632812 37.027344 70.929688 35.300781 74.980469 36.082031 C 80.46875 37.144531 79.109375 43.292969 77.335938 46.773438 C 75.566406 50.25 72.777344 53.089844 69.972656 55.800781 C 67.867188 57.832031 65.054688 59.988281 62.3125 58.984375 Z M 81.355469 73.066406 C 80.894531 75.449219 79.796875 77.488281 78.0625 79.183594 C 76.503906 80.6875 74.480469 81.566406 72.859375 80.671875 C 70.683594 79.488281 70.074219 75.351562 71.242188 72.28125 C 72.410156 69.210938 74.910156 66.621094 77.332031 66.691406 C 81.554688 66.816406 81.820312 70.628906 81.355469 73.066406 Z M 100.121094 62.347656 C 99.0625 63.789062 97.753906 65.117188 96.125 65.84375 C 94.492188 66.574219 92.5 66.664062 90.972656 65.734375 C 89.347656 64.746094 88.519531 62.84375 88.085938 60.992188 C 86.175781 52.871094 90.238281 38.582031 98.363281 40.363281 C 108.179688 42.507812 104.503906 56.421875 100.121094 62.347656 Z M 100.121094 62.347656 " fill-opacity="1" fill-rule="nonzero"/><g fill="#000000" fill-opacity="1"><g transform="translate(167.668843, 196.558767)"><g><path d="M 1.402344 -0.09375 C 0.390625 -0.230469 0.621094 -13.375 1.148438 -13.558594 C 2.710938 -15.304688 6.710938 -15.535156 8.570312 -14.316406 C 11.308594 -12.59375 9.191406 -9.882812 7.835938 -8.019531 C 10.296875 -7.078125 11.789062 -4.78125 9.652344 -2.597656 C 7.746094 -0.644531 4.066406 0.296875 1.402344 -0.09375 Z M 4.34375 -8.113281 C 4.710938 -8.410156 7.539062 -10.503906 7.101562 -11.261719 C 6.734375 -11.882812 5.054688 -11.144531 4.664062 -10.9375 Z M 3.699219 -1.882812 C 4.621094 -2.527344 7.238281 -4.042969 7.078125 -5.378906 C 6.941406 -6.433594 4.988281 -5.835938 4.457031 -5.5625 C 3.515625 -5.078125 3.699219 -3.101562 3.699219 -1.882812 Z M 3.699219 -1.882812 "/></g></g></g><g fill="#000000" fill-opacity="1"><g transform="translate(178.353812, 196.558767)"><g><path d="M 5.332031 -0.046875 C 1.746094 0.6875 4.066406 -4.207031 3.652344 -5.882812 C 3.242188 -7.675781 -0.09375 -11.582031 0.875 -13.351562 C 2.390625 -16.15625 5.125 -10.132812 5.515625 -9.308594 C 6.34375 -10.617188 7.90625 -14.042969 9.699219 -11.882812 C 10.730469 -10.617188 7.769531 -7.421875 7.078125 -6.160156 C 6.042969 -4.640625 7.835938 -0.574219 5.332031 -0.046875 Z M 5.332031 -0.046875 "/></g></g></g><g fill="#000000" fill-opacity="1"><g transform="translate(188.257506, 196.558767)"><g/></g></g><g fill="#000000" fill-opacity="1"><g transform="translate(195.380815, 196.558767)"><g><path d="M 6.527344 -0.320312 C 4.457031 0.894531 4.136719 -1.65625 4.066406 -3.035156 C 3.976562 -4.207031 3.976562 -5.378906 4 -6.550781 C 4 -7.308594 4.457031 -9.949219 3.609375 -9.835938 C 3.769531 -9.8125 0.574219 -9.078125 0.6875 -12.25 C 0.757812 -14.386719 2.414062 -14.546875 4.230469 -14.5 C 6.183594 -14.457031 8.320312 -14.546875 10.273438 -14.226562 C 12.960938 -13.789062 10.871094 -11.007812 9.238281 -10.617188 C 8.136719 -10.339844 8.113281 -10.570312 8.042969 -9.261719 C 7.996094 -8.160156 7.90625 -7.03125 7.8125 -5.929688 C 7.699219 -4.550781 7.90625 -1.148438 6.527344 -0.320312 Z M 6.527344 -0.320312 "/></g></g></g><g fill="#000000" fill-opacity="1"><g transform="translate(206.938957, 196.558767)"><g><path d="M 0.09375 0.183594 C -0.390625 -1.308594 1.195312 -3.976562 1.722656 -5.308594 C 2.160156 -6.34375 4.734375 -14.476562 6.734375 -13.628906 C 8.734375 -12.730469 10.871094 -2.941406 10.25 -1.035156 C 9.398438 1.65625 8.113281 -1.308594 7.378906 -1.863281 C 6.59375 -2.4375 3.425781 -2.621094 2.988281 -1.5625 C 2.710938 -0.894531 0.917969 2.78125 0.09375 0.183594 Z M 5.011719 -4.78125 C 7.355469 -4.894531 5.882812 -7.101562 5.652344 -7.332031 C 5.101562 -6.847656 3.355469 -4.6875 5.011719 -4.78125 Z M 5.011719 -4.78125 "/></g></g></g><g fill="#000000" fill-opacity="1"><g transform="translate(217.991575, 196.558767)"><g><path d="M 3.171875 -0.0234375 C 0.34375 0.296875 0.941406 -3.261719 0.894531 -5.078125 C 0.828125 -7.214844 0 -13.695312 2.230469 -13.996094 C 4.917969 -14.59375 8.917969 -14.707031 10.546875 -12.019531 C 12.457031 -8.871094 9.882812 -4.824219 7.722656 -2.550781 C 6.503906 -1.285156 4.941406 -0.207031 3.171875 -0.0234375 Z M 5.171875 -3.953125 C 5.652344 -4.320312 8.089844 -6.273438 8.800781 -8.203125 C 9.445312 -10.042969 8.136719 -11.078125 6.367188 -10.9375 C 4.183594 -10.777344 4.757812 -9.308594 4.640625 -7.445312 C 4.597656 -6.617188 3.882812 -2.988281 5.171875 -3.953125 Z M 5.171875 -3.953125 "/></g></g></g><g fill="#000000" fill-opacity="1"><g transform="translate(229.205046, 196.558767)"><g><path d="M 1.355469 -0.621094 C 0.230469 -2 0.875 -5.882812 0.875 -7.46875 C 0.894531 -9.167969 0.964844 -10.894531 0.988281 -12.617188 C 0.988281 -14.316406 2.046875 -14.433594 3.515625 -14.476562 C 4.414062 -14.523438 8.664062 -15.007812 9.007812 -13.695312 C 9.675781 -11.167969 5.078125 -12.019531 4.414062 -10.546875 C 3.445312 -8.457031 10.480469 -10.042969 8.066406 -7.652344 C 7.125 -6.734375 5.5625 -7.03125 4.550781 -6.203125 C 4.066406 -5.835938 3.332031 -4.320312 4.25 -4.207031 C 5.953125 -4.25 11.558594 -5.101562 8.960938 -1.585938 C 8.042969 -0.320312 2.4375 0.710938 1.355469 -0.621094 Z M 1.355469 -0.621094 "/></g></g></g><g fill="#000000" fill-opacity="1"><g transform="translate(239.522355, 196.558767)"><g><path d="M 8.617188 -1.195312 C 5.332031 2.023438 1.65625 -1.882812 0.894531 -5.195312 C 0.136719 -8.664062 1.539062 -12.824219 4.917969 -14.410156 C 8.941406 -16.316406 10.917969 -12.433594 10.9375 -11.835938 C 12.089844 -8.894531 10.894531 -3.425781 8.617188 -1.195312 Z M 5.355469 -2.4375 C 7.746094 -1.378906 9.949219 -8.617188 7.699219 -9.90625 C 6.160156 -10.824219 4.964844 -8.710938 4.527344 -7.539062 C 3.976562 -6.160156 3.585938 -3.195312 5.355469 -2.4375 Z M 5.355469 -2.4375 "/></g></g></g><g fill="#000000" fill-opacity="1"><g transform="translate(127.816541, 176.942997)"><g><path d="M 23.484375 -44.796875 C 24.722656 -45.160156 25.625 -45.023438 26.1875 -44.390625 C 27.226562 -44.585938 28.1875 -44.34375 29.0625 -43.65625 C 29.945312 -42.976562 30.171875 -41.679688 29.734375 -39.765625 C 29.453125 -38.796875 29.367188 -38.109375 29.484375 -37.703125 C 29.609375 -37.304688 29.78125 -36.910156 30 -36.515625 C 30.21875 -36.117188 30.285156 -35.648438 30.203125 -35.109375 C 30.128906 -34.566406 30.03125 -33.972656 29.90625 -33.328125 C 29.507812 -31.523438 29.429688 -30.066406 29.671875 -28.953125 C 30.265625 -26.304688 30.023438 -23.539062 28.953125 -20.65625 C 27.785156 -17.5 27.425781 -13.695312 27.875 -9.25 C 28.226562 -6.039062 28.351562 -3.945312 28.25 -2.96875 C 28.15625 -1.988281 27.925781 -1.195312 27.5625 -0.59375 C 27.207031 0 26.609375 0.296875 25.765625 0.296875 C 24.328125 0.296875 23.328125 -0.125 22.765625 -0.96875 C 22.441406 -1.445312 22.28125 -2.066406 22.28125 -2.828125 C 22.28125 -3.585938 22.171875 -4.265625 21.953125 -4.859375 C 21.734375 -5.460938 21.460938 -6.023438 21.140625 -6.546875 C 20.378906 -7.671875 19.660156 -8.453125 18.984375 -8.890625 C 17.859375 -9.648438 16.992188 -11.472656 16.390625 -14.359375 C 16.035156 -16.472656 15.578125 -18.210938 15.015625 -19.578125 C 14.859375 -19.984375 14.738281 -20.414062 14.65625 -20.875 C 14.570312 -21.332031 14.492188 -21.78125 14.421875 -22.21875 C 14.171875 -23.175781 13.75 -23.65625 13.15625 -23.65625 C 12.226562 -23.65625 11.867188 -22.335938 12.078125 -19.703125 C 12.109375 -19.140625 12.191406 -18.628906 12.328125 -18.171875 C 12.472656 -17.710938 12.484375 -17.160156 12.359375 -16.515625 C 12.242188 -15.878906 12.085938 -15.21875 11.890625 -14.53125 C 11.410156 -12.769531 11.3125 -11.46875 11.59375 -10.625 C 11.875 -9.664062 11.972656 -8.65625 11.890625 -7.59375 C 11.804688 -6.53125 11.644531 -5.707031 11.40625 -5.125 C 11.164062 -4.550781 10.75 -4.144531 10.15625 -3.90625 C 9.789062 -3.257812 9.488281 -2.523438 9.25 -1.703125 C 9.007812 -0.890625 8.835938 -0.34375 8.734375 -0.0625 C 8.640625 0.21875 8.507812 0.378906 8.34375 0.421875 C 7.664062 0.660156 6.972656 0.617188 6.265625 0.296875 C 5.566406 -0.0234375 5.117188 -0.472656 4.921875 -1.046875 C 4.722656 -1.628906 4.632812 -2.179688 4.65625 -2.703125 C 4.675781 -3.222656 4.613281 -3.691406 4.46875 -4.109375 C 4.332031 -4.535156 4.273438 -4.882812 4.296875 -5.15625 C 4.316406 -5.4375 4.328125 -5.71875 4.328125 -6 C 4.398438 -6.644531 4.300781 -7.128906 4.03125 -7.453125 C 3.664062 -7.847656 3.472656 -8.382812 3.453125 -9.0625 C 3.429688 -9.75 3.421875 -10.332031 3.421875 -10.8125 C 3.421875 -11.289062 3.460938 -11.691406 3.546875 -12.015625 C 3.828125 -12.773438 3.945312 -13.9375 3.90625 -15.5 C 3.78125 -18.414062 3.421875 -20.175781 2.828125 -20.78125 C 2.066406 -21.539062 1.644531 -22.941406 1.5625 -24.984375 C 1.519531 -25.460938 1.546875 -25.910156 1.640625 -26.328125 C 1.742188 -26.753906 1.765625 -27.1875 1.703125 -27.625 C 1.648438 -28.0625 1.722656 -28.503906 1.921875 -28.953125 C 2.242188 -29.785156 2.34375 -30.972656 2.21875 -32.515625 C 2.101562 -34.054688 2.035156 -35.15625 2.015625 -35.8125 C 1.992188 -36.476562 1.953125 -37.179688 1.890625 -37.921875 C 1.828125 -38.660156 1.882812 -39.320312 2.0625 -39.90625 C 2.25 -40.488281 2.5625 -41 3 -41.4375 C 4 -42.519531 5.398438 -43.0625 7.203125 -43.0625 C 8.003906 -43.625 8.9375 -44.0625 10 -44.375 C 11.0625 -44.695312 11.953125 -44.71875 12.671875 -44.4375 C 13.390625 -44.15625 13.890625 -43.710938 14.171875 -43.109375 C 14.453125 -42.515625 14.679688 -41.875 14.859375 -41.1875 C 15.046875 -40.507812 15.226562 -39.820312 15.40625 -39.125 C 15.582031 -38.425781 15.894531 -37.859375 16.34375 -37.421875 C 16.78125 -36.972656 17.097656 -36.4375 17.296875 -35.8125 C 17.492188 -35.195312 17.671875 -34.609375 17.828125 -34.046875 C 17.992188 -33.492188 18.15625 -33.023438 18.3125 -32.640625 C 18.476562 -32.265625 18.738281 -32.078125 19.09375 -32.078125 C 19.457031 -32.078125 19.664062 -32.585938 19.71875 -33.609375 C 19.78125 -34.628906 19.800781 -35.796875 19.78125 -37.109375 C 19.769531 -38.429688 19.753906 -39.722656 19.734375 -40.984375 C 19.710938 -42.242188 19.820312 -43.164062 20.0625 -43.75 C 20.300781 -44.332031 20.726562 -44.765625 21.34375 -45.046875 C 21.96875 -45.328125 22.679688 -45.242188 23.484375 -44.796875 Z M 23.484375 -44.796875 "/></g></g></g><g fill="#000000" fill-opacity="1"><g transform="translate(159.586571, 176.942997)"><g><path d="M 1.625 -35.734375 L 1.734375 -39.15625 C 1.734375 -39.71875 1.679688 -40.28125 1.578125 -40.84375 C 1.484375 -41.40625 1.625 -41.992188 2 -42.609375 C 2.382812 -43.234375 2.957031 -43.785156 3.71875 -44.265625 C 4.476562 -44.742188 5.335938 -44.984375 6.296875 -44.984375 C 7.265625 -44.984375 8.023438 -44.820312 8.578125 -44.5 C 9.140625 -44.175781 9.660156 -43.914062 10.140625 -43.71875 C 10.628906 -43.519531 11.171875 -43.363281 11.765625 -43.25 C 13.046875 -43.039062 14.289062 -43.21875 15.5 -43.78125 C 16.820312 -44.425781 17.878906 -44.382812 18.671875 -43.65625 C 19.515625 -43.625 20.398438 -43.707031 21.328125 -43.90625 C 22.847656 -44.226562 23.882812 -44.25 24.4375 -43.96875 C 25.6875 -43.238281 25.890625 -41.796875 25.046875 -39.640625 C 24.921875 -39.316406 24.859375 -39.035156 24.859375 -38.796875 C 24.859375 -38.554688 24.859375 -38.316406 24.859375 -38.078125 C 24.859375 -37.359375 24.796875 -36.816406 24.671875 -36.453125 C 24.554688 -36.097656 24.5 -35.796875 24.5 -35.546875 C 24.5 -35.304688 24.5 -35.03125 24.5 -34.71875 C 24.582031 -34.070312 24.484375 -33.453125 24.203125 -32.859375 C 24.046875 -32.492188 23.96875 -32.203125 23.96875 -31.984375 C 23.96875 -31.765625 23.96875 -31.550781 23.96875 -31.34375 C 23.96875 -30.820312 23.6875 -30.320312 23.125 -29.84375 C 22.195312 -28.882812 21.4375 -28.40625 20.84375 -28.40625 C 20.71875 -28.40625 20.59375 -28.441406 20.46875 -28.515625 C 20.351562 -28.597656 20.175781 -28.679688 19.9375 -28.765625 C 18.976562 -29.085938 17.96875 -29.285156 16.90625 -29.359375 C 15.84375 -29.441406 15.070312 -29.425781 14.59375 -29.3125 C 13.394531 -29.070312 12.65625 -28.488281 12.375 -27.5625 C 12.050781 -26.601562 12.128906 -25.863281 12.609375 -25.34375 C 12.804688 -25.101562 13.023438 -24.941406 13.265625 -24.859375 C 13.515625 -24.785156 13.75 -24.773438 13.96875 -24.828125 C 14.1875 -24.890625 14.484375 -24.878906 14.859375 -24.796875 C 15.242188 -24.722656 15.632812 -24.625 16.03125 -24.5 C 17.113281 -24.257812 17.84375 -24.226562 18.21875 -24.40625 C 18.601562 -24.59375 18.863281 -24.664062 19 -24.625 C 19.144531 -24.582031 19.257812 -24.519531 19.34375 -24.4375 C 19.625 -24.164062 19.882812 -24.03125 20.125 -24.03125 C 20.757812 -24.0625 21.195312 -23.785156 21.4375 -23.203125 C 21.675781 -22.628906 21.640625 -21.921875 21.328125 -21.078125 C 21.328125 -20.960938 21.265625 -20.664062 21.140625 -20.1875 C 20.859375 -19.21875 20.726562 -18.550781 20.75 -18.1875 C 20.769531 -17.832031 20.695312 -17.460938 20.53125 -17.078125 C 20.375 -16.703125 20.15625 -16.375 19.875 -16.09375 C 19.195312 -15.488281 18.457031 -15.3125 17.65625 -15.5625 C 17.289062 -15.71875 16.972656 -15.9375 16.703125 -16.21875 C 14.660156 -16.8125 13.273438 -16.671875 12.546875 -15.796875 C 12.148438 -15.316406 11.929688 -14.894531 11.890625 -14.53125 C 11.847656 -14.175781 11.828125 -13.535156 11.828125 -12.609375 L 11.828125 -10.390625 C 12.347656 -10.023438 12.828125 -9.613281 13.265625 -9.15625 C 13.710938 -8.695312 14.253906 -8.445312 14.890625 -8.40625 C 15.535156 -8.363281 16.109375 -8.410156 16.609375 -8.546875 C 17.109375 -8.691406 17.578125 -8.847656 18.015625 -9.015625 C 18.972656 -9.410156 19.851562 -9.476562 20.65625 -9.21875 C 21.457031 -8.957031 21.957031 -8.601562 22.15625 -8.15625 C 22.363281 -7.71875 22.40625 -7.140625 22.28125 -6.421875 C 22.164062 -5.703125 22.113281 -5.171875 22.125 -4.828125 C 22.144531 -4.492188 22.15625 -4.1875 22.15625 -3.90625 C 22.15625 -3.226562 21.894531 -2.566406 21.375 -1.921875 C 20.820312 -1.078125 20.300781 -0.566406 19.8125 -0.390625 C 19.332031 -0.210938 18.710938 -0.171875 17.953125 -0.265625 C 17.191406 -0.367188 16.570312 -0.328125 16.09375 -0.140625 C 15.613281 0.0351562 15.179688 0.265625 14.796875 0.546875 C 14.421875 0.828125 14.050781 1.085938 13.6875 1.328125 C 13.09375 1.722656 12.414062 1.722656 11.65625 1.328125 C 11.375 1.160156 11.09375 1 10.8125 0.84375 C 10.09375 0.476562 9.210938 0.328125 8.171875 0.390625 C 7.128906 0.453125 6.207031 0.15625 5.40625 -0.5 C 4.601562 -1.164062 4.191406 -1.976562 4.171875 -2.9375 C 4.148438 -3.90625 4.195312 -4.597656 4.3125 -5.015625 C 4.4375 -5.429688 4.5625 -5.757812 4.6875 -6 C 4.84375 -6.519531 4.757812 -6.921875 4.4375 -7.203125 C 3.476562 -7.960938 3.140625 -8.960938 3.421875 -10.203125 C 3.546875 -10.847656 3.664062 -11.347656 3.78125 -11.703125 C 3.90625 -12.066406 3.925781 -12.457031 3.84375 -12.875 C 3.757812 -13.300781 3.726562 -13.679688 3.75 -14.015625 C 3.769531 -14.359375 3.757812 -14.691406 3.71875 -15.015625 C 3.644531 -15.648438 3.367188 -16.007812 2.890625 -16.09375 C 2.285156 -16.175781 1.882812 -16.816406 1.6875 -18.015625 C 1.445312 -19.179688 1.535156 -20.34375 1.953125 -21.5 C 2.367188 -22.664062 2.535156 -23.578125 2.453125 -24.234375 C 2.378906 -24.890625 2.320312 -25.5 2.28125 -26.0625 L 2.34375 -28.40625 C 2.34375 -29.570312 2.238281 -30.351562 2.03125 -30.75 C 1.832031 -31.144531 1.773438 -31.734375 1.859375 -32.515625 C 1.941406 -33.296875 1.921875 -33.894531 1.796875 -34.3125 C 1.679688 -34.738281 1.625 -35.210938 1.625 -35.734375 Z M 1.625 -35.734375 "/></g></g></g><g fill="#000000" fill-opacity="1"><g transform="translate(185.41098, 176.942997)"><g><path d="M 24.5625 -39.703125 C 24.757812 -37.898438 24.800781 -36.378906 24.6875 -35.140625 C 24.6875 -35.140625 24.566406 -34.15625 24.328125 -32.1875 C 24.242188 -31.507812 24.234375 -30.628906 24.296875 -29.546875 C 24.359375 -28.460938 24.25 -27.691406 23.96875 -27.234375 C 23.6875 -26.773438 23.210938 -26.484375 22.546875 -26.359375 C 21.890625 -26.242188 21.367188 -26.273438 20.984375 -26.453125 C 20.609375 -26.628906 20.257812 -26.820312 19.9375 -27.03125 C 19.132812 -27.46875 18.484375 -27.523438 17.984375 -27.203125 C 17.484375 -26.878906 17.132812 -26.394531 16.9375 -25.75 C 16.738281 -25.113281 16.617188 -24.378906 16.578125 -23.546875 C 16.453125 -22.304688 16.453125 -20.679688 16.578125 -18.671875 C 16.617188 -17.953125 16.628906 -17.382812 16.609375 -16.96875 C 16.585938 -16.550781 16.578125 -16.179688 16.578125 -15.859375 C 16.578125 -15.097656 16.695312 -14.351562 16.9375 -13.625 C 17.175781 -12.90625 17.296875 -12.363281 17.296875 -12 C 17.296875 -11.644531 17.242188 -11.359375 17.140625 -11.140625 C 17.046875 -10.921875 16.894531 -10.738281 16.6875 -10.59375 C 16.488281 -10.457031 16.3125 -10.316406 16.15625 -10.171875 C 16 -10.035156 15.828125 -9.894531 15.640625 -9.75 C 15.460938 -9.613281 15.273438 -9.46875 15.078125 -9.3125 C 15.273438 -7.34375 15.3125 -5.785156 15.1875 -4.640625 C 15.070312 -3.503906 14.992188 -2.535156 14.953125 -1.734375 C 14.910156 -0.941406 14.710938 -0.320312 14.359375 0.125 C 13.878906 0.6875 12.914062 1.085938 11.46875 1.328125 C 10.625 1.359375 10.003906 0.921875 9.609375 0.015625 C 9.210938 -0.878906 9.039062 -1.96875 9.09375 -3.25 C 9.15625 -4.53125 9.125 -5.519531 9 -6.21875 C 8.882812 -6.914062 8.734375 -7.503906 8.546875 -7.984375 C 8.367188 -8.460938 8.203125 -8.890625 8.046875 -9.265625 C 7.890625 -9.648438 7.75 -10.179688 7.625 -10.859375 C 7.507812 -11.546875 7.59375 -12.289062 7.875 -13.09375 C 7.3125 -13.726562 6.925781 -14.40625 6.71875 -15.125 C 6.519531 -15.851562 6.550781 -16.804688 6.8125 -17.984375 C 7.070312 -19.171875 7.25 -20.242188 7.34375 -21.203125 C 7.445312 -22.160156 7.484375 -23.039062 7.453125 -23.84375 C 7.367188 -25.6875 6.945312 -26.75 6.1875 -27.03125 C 5.625 -27.1875 5.007812 -27.046875 4.34375 -26.609375 C 3.6875 -26.171875 3.175781 -25.890625 2.8125 -25.765625 C 2.457031 -25.640625 2.109375 -25.71875 1.765625 -26 C 1.429688 -26.28125 1.273438 -26.617188 1.296875 -27.015625 C 1.316406 -27.421875 1.382812 -27.851562 1.5 -28.3125 C 1.625 -28.78125 1.734375 -29.234375 1.828125 -29.671875 C 1.929688 -30.109375 1.898438 -30.53125 1.734375 -30.9375 C 1.578125 -31.332031 1.378906 -31.585938 1.140625 -31.703125 C 0.898438 -31.828125 0.679688 -32.03125 0.484375 -32.3125 C -0.0351562 -32.945312 -0.175781 -34.078125 0.0625 -35.703125 C 0.300781 -37.328125 0.476562 -38.660156 0.59375 -39.703125 C 0.71875 -40.742188 0.8125 -41.515625 0.875 -42.015625 C 0.9375 -42.515625 1.066406 -42.960938 1.265625 -43.359375 C 1.460938 -43.765625 1.757812 -44.125 2.15625 -44.4375 C 3.15625 -45.164062 4.457031 -45.425781 6.0625 -45.21875 C 13.425781 -44.21875 17.613281 -43.878906 18.625 -44.203125 C 19.019531 -44.328125 19.378906 -44.445312 19.703125 -44.5625 C 22.460938 -45.6875 24.082031 -44.066406 24.5625 -39.703125 Z M 24.5625 -39.703125 "/></g></g></g><g fill="#000000" fill-opacity="1"><g transform="translate(210.514709, 176.942997)"><g><path d="M 34.828125 -42.1875 C 35.234375 -41.96875 35.503906 -41.75 35.640625 -41.53125 C 35.785156 -41.3125 35.957031 -41.09375 36.15625 -40.875 C 36.351562 -40.65625 36.453125 -40.441406 36.453125 -40.234375 C 36.453125 -40.035156 36.429688 -39.816406 36.390625 -39.578125 C 36.359375 -39.335938 36.3125 -39.109375 36.25 -38.890625 C 36.1875 -38.671875 36.203125 -38.421875 36.296875 -38.140625 C 36.398438 -37.859375 36.3125 -37.484375 36.03125 -37.015625 C 35.757812 -36.554688 35.421875 -35.847656 35.015625 -34.890625 C 34.617188 -33.929688 34.328125 -32.847656 34.140625 -31.640625 C 33.960938 -30.441406 33.8125 -29.253906 33.6875 -28.078125 C 33.570312 -26.898438 33.460938 -25.757812 33.359375 -24.65625 C 33.265625 -23.550781 33.066406 -22.554688 32.765625 -21.671875 C 32.460938 -20.796875 32.222656 -19.828125 32.046875 -18.765625 C 31.867188 -17.703125 31.695312 -16.613281 31.53125 -15.5 C 31.132812 -12.65625 30.796875 -10.8125 30.515625 -9.96875 C 30.234375 -9.125 30.09375 -8.5625 30.09375 -8.28125 C 30.09375 -8.007812 30.050781 -7.671875 29.96875 -7.265625 C 29.769531 -6.222656 29.316406 -5.25 28.609375 -4.34375 C 27.910156 -3.445312 27.484375 -2.738281 27.328125 -2.21875 C 27.171875 -1.695312 27.019531 -1.207031 26.875 -0.75 C 26.738281 -0.289062 26.566406 0.0859375 26.359375 0.390625 C 26.160156 0.691406 25.867188 0.820312 25.484375 0.78125 C 25.109375 0.738281 24.847656 0.675781 24.703125 0.59375 C 24.566406 0.519531 24.441406 0.441406 24.328125 0.359375 C 23.921875 -0.078125 23.40625 -0.273438 22.78125 -0.234375 C 22.164062 -0.203125 21.71875 -0.203125 21.4375 -0.234375 C 20.800781 -0.273438 20.390625 -0.535156 20.203125 -1.015625 C 20.023438 -1.492188 19.863281 -2.253906 19.71875 -3.296875 C 19.582031 -4.335938 19.4375 -5.398438 19.28125 -6.484375 C 18.800781 -9.171875 18.238281 -10.515625 17.59375 -10.515625 C 17.238281 -10.515625 17.039062 -10.234375 17 -9.671875 C 16.957031 -9.109375 16.925781 -8.644531 16.90625 -8.28125 C 16.882812 -7.925781 16.832031 -7.507812 16.75 -7.03125 C 16.675781 -6.550781 16.519531 -5.828125 16.28125 -4.859375 C 16.039062 -3.898438 15.757812 -2.984375 15.4375 -2.109375 C 14.59375 0.015625 13.59375 1.078125 12.4375 1.078125 C 11.507812 1.078125 10.847656 0.738281 10.453125 0.0625 C 10.296875 -0.21875 10.132812 -0.507812 9.96875 -0.8125 C 9.8125 -1.113281 9.519531 -1.375 9.09375 -1.59375 C 8.675781 -1.8125 8.328125 -2.039062 8.046875 -2.28125 C 7.765625 -2.519531 7.546875 -2.84375 7.390625 -3.25 C 7.148438 -3.769531 6.957031 -4.695312 6.8125 -6.03125 C 6.675781 -7.375 6.488281 -8.425781 6.25 -9.1875 C 6.007812 -9.945312 5.75 -10.6875 5.46875 -11.40625 C 4.820312 -13.289062 4.507812 -14.671875 4.53125 -15.546875 C 4.550781 -16.429688 4.507812 -17.191406 4.40625 -17.828125 C 4.3125 -18.472656 4.179688 -19.09375 4.015625 -19.6875 C 3.859375 -20.289062 3.671875 -20.910156 3.453125 -21.546875 C 3.234375 -22.191406 3.03125 -22.882812 2.84375 -23.625 C 2.664062 -24.375 2.46875 -25.078125 2.25 -25.734375 C 2.03125 -26.390625 1.820312 -27.019531 1.625 -27.625 C 1.226562 -29.03125 1.21875 -30.253906 1.59375 -31.296875 C 1.976562 -32.335938 2.03125 -33.394531 1.75 -34.46875 C 1.46875 -35.550781 1.113281 -36.625 0.6875 -37.6875 C 0.269531 -38.75 -0.0859375 -39.726562 -0.390625 -40.625 C -0.691406 -41.53125 -0.660156 -42.269531 -0.296875 -42.84375 C 0.0664062 -43.425781 0.578125 -43.773438 1.234375 -43.890625 C 1.890625 -44.015625 2.554688 -44.023438 3.234375 -43.921875 C 3.921875 -43.828125 4.585938 -43.703125 5.234375 -43.546875 C 6.234375 -43.304688 6.921875 -43.296875 7.296875 -43.515625 C 7.679688 -43.734375 7.992188 -43.890625 8.234375 -43.984375 C 8.472656 -44.085938 8.75 -44.140625 9.0625 -44.140625 C 9.382812 -44.140625 9.796875 -44 10.296875 -43.71875 C 10.796875 -43.4375 11.132812 -43.113281 11.3125 -42.75 C 11.5 -42.394531 11.625 -41.976562 11.6875 -41.5 C 11.75 -41.019531 11.78125 -40.488281 11.78125 -39.90625 C 11.78125 -39.320312 11.914062 -38.472656 12.1875 -37.359375 C 13.070312 -34.035156 13.210938 -31.070312 12.609375 -28.46875 C 12.253906 -26.945312 12.195312 -25.695312 12.4375 -24.71875 C 12.675781 -23.738281 13.015625 -23.285156 13.453125 -23.359375 C 13.859375 -23.441406 14.117188 -23.753906 14.234375 -24.296875 C 14.359375 -24.835938 14.429688 -25.515625 14.453125 -26.328125 C 14.472656 -27.148438 14.484375 -28.03125 14.484375 -28.96875 C 14.484375 -29.914062 14.5625 -30.789062 14.71875 -31.59375 C 14.875 -32.394531 14.992188 -33.015625 15.078125 -33.453125 C 15.160156 -33.890625 15.238281 -34.226562 15.3125 -34.46875 C 15.519531 -34.945312 15.78125 -35.25 16.09375 -35.375 C 15.9375 -39.738281 16.597656 -42.617188 18.078125 -44.015625 C 18.359375 -44.265625 18.6875 -44.390625 19.0625 -44.390625 C 19.445312 -44.390625 19.816406 -44.128906 20.171875 -43.609375 C 20.535156 -43.085938 20.738281 -42.164062 20.78125 -40.84375 C 20.863281 -38.71875 21.0625 -36.65625 21.375 -34.65625 C 21.695312 -32.65625 21.925781 -31.191406 22.0625 -30.265625 C 22.207031 -29.347656 22.363281 -28.507812 22.53125 -27.75 C 23.050781 -24.625 23.628906 -24.144531 24.265625 -26.3125 C 24.785156 -28.144531 25.046875 -29.78125 25.046875 -31.21875 C 25.046875 -32.664062 24.945312 -33.488281 24.75 -33.6875 C 23.863281 -34.488281 23.863281 -35.613281 24.75 -37.0625 C 25.101562 -37.695312 25.300781 -38.492188 25.34375 -39.453125 C 25.507812 -41.378906 25.660156 -42.507812 25.796875 -42.84375 C 25.941406 -43.1875 26.203125 -43.507812 26.578125 -43.8125 C 26.960938 -44.113281 27.375 -44.34375 27.8125 -44.5 C 28.925781 -44.945312 29.847656 -44.75 30.578125 -43.90625 C 30.972656 -43.382812 31.609375 -43.101562 32.484375 -43.0625 C 33.367188 -43.019531 33.878906 -42.914062 34.015625 -42.75 C 34.160156 -42.59375 34.429688 -42.40625 34.828125 -42.1875 Z M 34.828125 -42.1875 "/></g></g></g><g fill="#000000" fill-opacity="1"><g transform="translate(246.308541, 176.942997)"><g><path d="M 1.625 -35.734375 L 1.734375 -39.15625 C 1.734375 -39.71875 1.679688 -40.28125 1.578125 -40.84375 C 1.484375 -41.40625 1.625 -41.992188 2 -42.609375 C 2.382812 -43.234375 2.957031 -43.785156 3.71875 -44.265625 C 4.476562 -44.742188 5.335938 -44.984375 6.296875 -44.984375 C 7.265625 -44.984375 8.023438 -44.820312 8.578125 -44.5 C 9.140625 -44.175781 9.660156 -43.914062 10.140625 -43.71875 C 10.628906 -43.519531 11.171875 -43.363281 11.765625 -43.25 C 13.046875 -43.039062 14.289062 -43.21875 15.5 -43.78125 C 16.820312 -44.425781 17.878906 -44.382812 18.671875 -43.65625 C 19.515625 -43.625 20.398438 -43.707031 21.328125 -43.90625 C 22.847656 -44.226562 23.882812 -44.25 24.4375 -43.96875 C 25.6875 -43.238281 25.890625 -41.796875 25.046875 -39.640625 C 24.921875 -39.316406 24.859375 -39.035156 24.859375 -38.796875 C 24.859375 -38.554688 24.859375 -38.316406 24.859375 -38.078125 C 24.859375 -37.359375 24.796875 -36.816406 24.671875 -36.453125 C 24.554688 -36.097656 24.5 -35.796875 24.5 -35.546875 C 24.5 -35.304688 24.5 -35.03125 24.5 -34.71875 C 24.582031 -34.070312 24.484375 -33.453125 24.203125 -32.859375 C 24.046875 -32.492188 23.96875 -32.203125 23.96875 -31.984375 C 23.96875 -31.765625 23.96875 -31.550781 23.96875 -31.34375 C 23.96875 -30.820312 23.6875 -30.320312 23.125 -29.84375 C 22.195312 -28.882812 21.4375 -28.40625 20.84375 -28.40625 C 20.71875 -28.40625 20.59375 -28.441406 20.46875 -28.515625 C 20.351562 -28.597656 20.175781 -28.679688 19.9375 -28.765625 C 18.976562 -29.085938 17.96875 -29.285156 16.90625 -29.359375 C 15.84375 -29.441406 15.070312 -29.425781 14.59375 -29.3125 C 13.394531 -29.070312 12.65625 -28.488281 12.375 -27.5625 C 12.050781 -26.601562 12.128906 -25.863281 12.609375 -25.34375 C 12.804688 -25.101562 13.023438 -24.941406 13.265625 -24.859375 C 13.515625 -24.785156 13.75 -24.773438 13.96875 -24.828125 C 14.1875 -24.890625 14.484375 -24.878906 14.859375 -24.796875 C 15.242188 -24.722656 15.632812 -24.625 16.03125 -24.5 C 17.113281 -24.257812 17.84375 -24.226562 18.21875 -24.40625 C 18.601562 -24.59375 18.863281 -24.664062 19 -24.625 C 19.144531 -24.582031 19.257812 -24.519531 19.34375 -24.4375 C 19.625 -24.164062 19.882812 -24.03125 20.125 -24.03125 C 20.757812 -24.0625 21.195312 -23.785156 21.4375 -23.203125 C 21.675781 -22.628906 21.640625 -21.921875 21.328125 -21.078125 C 21.328125 -20.960938 21.265625 -20.664062 21.140625 -20.1875 C 20.859375 -19.21875 20.726562 -18.550781 20.75 -18.1875 C 20.769531 -17.832031 20.695312 -17.460938 20.53125 -17.078125 C 20.375 -16.703125 20.15625 -16.375 19.875 -16.09375 C 19.195312 -15.488281 18.457031 -15.3125 17.65625 -15.5625 C 17.289062 -15.71875 16.972656 -15.9375 16.703125 -16.21875 C 14.660156 -16.8125 13.273438 -16.671875 12.546875 -15.796875 C 12.148438 -15.316406 11.929688 -14.894531 11.890625 -14.53125 C 11.847656 -14.175781 11.828125 -13.535156 11.828125 -12.609375 L 11.828125 -10.390625 C 12.347656 -10.023438 12.828125 -9.613281 13.265625 -9.15625 C 13.710938 -8.695312 14.253906 -8.445312 14.890625 -8.40625 C 15.535156 -8.363281 16.109375 -8.410156 16.609375 -8.546875 C 17.109375 -8.691406 17.578125 -8.847656 18.015625 -9.015625 C 18.972656 -9.410156 19.851562 -9.476562 20.65625 -9.21875 C 21.457031 -8.957031 21.957031 -8.601562 22.15625 -8.15625 C 22.363281 -7.71875 22.40625 -7.140625 22.28125 -6.421875 C 22.164062 -5.703125 22.113281 -5.171875 22.125 -4.828125 C 22.144531 -4.492188 22.15625 -4.1875 22.15625 -3.90625 C 22.15625 -3.226562 21.894531 -2.566406 21.375 -1.921875 C 20.820312 -1.078125 20.300781 -0.566406 19.8125 -0.390625 C 19.332031 -0.210938 18.710938 -0.171875 17.953125 -0.265625 C 17.191406 -0.367188 16.570312 -0.328125 16.09375 -0.140625 C 15.613281 0.0351562 15.179688 0.265625 14.796875 0.546875 C 14.421875 0.828125 14.050781 1.085938 13.6875 1.328125 C 13.09375 1.722656 12.414062 1.722656 11.65625 1.328125 C 11.375 1.160156 11.09375 1 10.8125 0.84375 C 10.09375 0.476562 9.210938 0.328125 8.171875 0.390625 C 7.128906 0.453125 6.207031 0.15625 5.40625 -0.5 C 4.601562 -1.164062 4.191406 -1.976562 4.171875 -2.9375 C 4.148438 -3.90625 4.195312 -4.597656 4.3125 -5.015625 C 4.4375 -5.429688 4.5625 -5.757812 4.6875 -6 C 4.84375 -6.519531 4.757812 -6.921875 4.4375 -7.203125 C 3.476562 -7.960938 3.140625 -8.960938 3.421875 -10.203125 C 3.546875 -10.847656 3.664062 -11.347656 3.78125 -11.703125 C 3.90625 -12.066406 3.925781 -12.457031 3.84375 -12.875 C 3.757812 -13.300781 3.726562 -13.679688 3.75 -14.015625 C 3.769531 -14.359375 3.757812 -14.691406 3.71875 -15.015625 C 3.644531 -15.648438 3.367188 -16.007812 2.890625 -16.09375 C 2.285156 -16.175781 1.882812 -16.816406 1.6875 -18.015625 C 1.445312 -19.179688 1.535156 -20.34375 1.953125 -21.5 C 2.367188 -22.664062 2.535156 -23.578125 2.453125 -24.234375 C 2.378906 -24.890625 2.320312 -25.5 2.28125 -26.0625 L 2.34375 -28.40625 C 2.34375 -29.570312 2.238281 -30.351562 2.03125 -30.75 C 1.832031 -31.144531 1.773438 -31.734375 1.859375 -32.515625 C 1.941406 -33.296875 1.921875 -33.894531 1.796875 -34.3125 C 1.679688 -34.738281 1.625 -35.210938 1.625 -35.734375 Z M 1.625 -35.734375 "/></g></g></g><g fill="#000000" fill-opacity="1"><g transform="translate(272.132951, 176.942997)"><g><path d="M 16.28125 -9.0625 C 16.476562 -7.257812 16.585938 -5.988281 16.609375 -5.25 C 16.628906 -4.507812 16.609375 -3.898438 16.546875 -3.421875 C 16.484375 -2.941406 16.394531 -2.503906 16.28125 -2.109375 C 16 -1.179688 15.597656 -0.675781 15.078125 -0.59375 C 14.710938 -0.59375 14.359375 -0.421875 14.015625 -0.078125 C 13.679688 0.253906 13.410156 0.5 13.203125 0.65625 C 13.003906 0.820312 12.710938 0.90625 12.328125 0.90625 C 11.953125 0.90625 11.535156 0.84375 11.078125 0.71875 C 10.617188 0.601562 10.207031 0.285156 9.84375 -0.234375 C 9.050781 -1.398438 8.789062 -3.6875 9.0625 -7.09375 C 8.507812 -7.488281 8.117188 -8.066406 7.890625 -8.828125 C 7.671875 -9.585938 7.691406 -10.707031 7.953125 -12.1875 C 8.210938 -13.675781 8.375 -14.757812 8.4375 -15.4375 C 8.5 -16.113281 8.5 -16.679688 8.4375 -17.140625 C 8.375 -17.609375 8.265625 -17.988281 8.109375 -18.28125 C 7.953125 -18.582031 7.734375 -19.023438 7.453125 -19.609375 C 7.171875 -20.191406 6.976562 -20.753906 6.875 -21.296875 C 6.78125 -21.835938 6.609375 -22.234375 6.359375 -22.484375 C 6.117188 -22.742188 5.957031 -23.082031 5.875 -23.5 C 5.800781 -23.925781 5.664062 -24.34375 5.46875 -24.75 C 5.269531 -25.144531 5.140625 -25.722656 5.078125 -26.484375 C 5.015625 -27.242188 4.832031 -27.875 4.53125 -28.375 C 4.226562 -28.875 3.925781 -29.296875 3.625 -29.640625 C 3.332031 -29.984375 3.046875 -30.3125 2.765625 -30.625 C 1.960938 -31.507812 1.398438 -32.257812 1.078125 -32.875 C 0.753906 -33.5 0.582031 -34.03125 0.5625 -34.46875 C 0.550781 -34.914062 0.5625 -35.335938 0.59375 -35.734375 C 0.71875 -36.773438 0.679688 -37.476562 0.484375 -37.84375 L -0.1875 -39.15625 C -0.863281 -40.519531 -1.203125 -41.601562 -1.203125 -42.40625 C -1.203125 -43.207031 -0.988281 -43.804688 -0.5625 -44.203125 C -0.144531 -44.597656 0.300781 -44.71875 0.78125 -44.5625 C 1.257812 -44.40625 1.921875 -44.234375 2.765625 -44.046875 C 3.609375 -43.867188 4.257812 -43.828125 4.71875 -43.921875 C 5.175781 -44.023438 5.601562 -44.160156 6 -44.328125 C 7 -44.640625 7.800781 -44.6875 8.40625 -44.46875 C 9.007812 -44.25 9.421875 -43.890625 9.640625 -43.390625 C 9.859375 -42.890625 9.988281 -42.335938 10.03125 -41.734375 C 10.070312 -41.140625 10.101562 -40.539062 10.125 -39.9375 C 10.144531 -39.332031 10.285156 -38.8125 10.546875 -38.375 C 10.804688 -37.9375 11.015625 -37.554688 11.171875 -37.234375 C 11.328125 -36.910156 11.457031 -36.578125 11.5625 -36.234375 C 11.664062 -35.898438 11.734375 -35.550781 11.765625 -35.1875 C 11.804688 -34.832031 11.859375 -34.394531 11.921875 -33.875 C 11.984375 -33.351562 12.09375 -32.984375 12.25 -32.765625 C 12.414062 -32.546875 12.597656 -32.4375 12.796875 -32.4375 C 13.273438 -32.507812 13.59375 -32.992188 13.75 -33.890625 C 13.914062 -34.796875 14.097656 -35.554688 14.296875 -36.171875 C 14.492188 -36.796875 14.671875 -37.351562 14.828125 -37.84375 C 15.191406 -38.800781 15.34375 -39.46875 15.28125 -39.84375 C 15.21875 -40.226562 15.175781 -40.628906 15.15625 -41.046875 C 15.144531 -41.472656 15.21875 -41.863281 15.375 -42.21875 C 15.769531 -43.101562 16.617188 -43.460938 17.921875 -43.296875 C 19.222656 -43.140625 20.273438 -43.039062 21.078125 -43 C 21.878906 -42.957031 22.5 -43.113281 22.9375 -43.46875 C 23.382812 -43.832031 23.828125 -43.992188 24.265625 -43.953125 C 24.703125 -43.921875 25.082031 -43.742188 25.40625 -43.421875 C 26.164062 -42.660156 26.113281 -41.566406 25.25 -40.140625 C 24.394531 -38.722656 23.828125 -37.601562 23.546875 -36.78125 C 23.265625 -35.96875 23.191406 -35.269531 23.328125 -34.6875 C 23.472656 -34.101562 23.523438 -33.671875 23.484375 -33.390625 C 23.441406 -33.109375 23.335938 -32.816406 23.171875 -32.515625 C 23.015625 -32.222656 22.816406 -31.875 22.578125 -31.46875 C 20.859375 -28.425781 19.316406 -24.625 17.953125 -20.0625 C 17.273438 -17.820312 16.816406 -15.054688 16.578125 -11.765625 C 16.492188 -10.523438 16.394531 -9.625 16.28125 -9.0625 Z M 16.28125 -9.0625 "/></g></g></g><g fill="#ffffff" fill-opacity="1"><g transform="translate(125.098464, 174.22492)"><g><path d="M 23.484375 -44.796875 C 24.722656 -45.160156 25.625 -45.023438 26.1875 -44.390625 C 27.226562 -44.585938 28.1875 -44.34375 29.0625 -43.65625 C 29.945312 -42.976562 30.171875 -41.679688 29.734375 -39.765625 C 29.453125 -38.796875 29.367188 -38.109375 29.484375 -37.703125 C 29.609375 -37.304688 29.78125 -36.910156 30 -36.515625 C 30.21875 -36.117188 30.285156 -35.648438 30.203125 -35.109375 C 30.128906 -34.566406 30.03125 -33.972656 29.90625 -33.328125 C 29.507812 -31.523438 29.429688 -30.066406 29.671875 -28.953125 C 30.265625 -26.304688 30.023438 -23.539062 28.953125 -20.65625 C 27.785156 -17.5 27.425781 -13.695312 27.875 -9.25 C 28.226562 -6.039062 28.351562 -3.945312 28.25 -2.96875 C 28.15625 -1.988281 27.925781 -1.195312 27.5625 -0.59375 C 27.207031 0 26.609375 0.296875 25.765625 0.296875 C 24.328125 0.296875 23.328125 -0.125 22.765625 -0.96875 C 22.441406 -1.445312 22.28125 -2.066406 22.28125 -2.828125 C 22.28125 -3.585938 22.171875 -4.265625 21.953125 -4.859375 C 21.734375 -5.460938 21.460938 -6.023438 21.140625 -6.546875 C 20.378906 -7.671875 19.660156 -8.453125 18.984375 -8.890625 C 17.859375 -9.648438 16.992188 -11.472656 16.390625 -14.359375 C 16.035156 -16.472656 15.578125 -18.210938 15.015625 -19.578125 C 14.859375 -19.984375 14.738281 -20.414062 14.65625 -20.875 C 14.570312 -21.332031 14.492188 -21.78125 14.421875 -22.21875 C 14.171875 -23.175781 13.75 -23.65625 13.15625 -23.65625 C 12.226562 -23.65625 11.867188 -22.335938 12.078125 -19.703125 C 12.109375 -19.140625 12.191406 -18.628906 12.328125 -18.171875 C 12.472656 -17.710938 12.484375 -17.160156 12.359375 -16.515625 C 12.242188 -15.878906 12.085938 -15.21875 11.890625 -14.53125 C 11.410156 -12.769531 11.3125 -11.46875 11.59375 -10.625 C 11.875 -9.664062 11.972656 -8.65625 11.890625 -7.59375 C 11.804688 -6.53125 11.644531 -5.707031 11.40625 -5.125 C 11.164062 -4.550781 10.75 -4.144531 10.15625 -3.90625 C 9.789062 -3.257812 9.488281 -2.523438 9.25 -1.703125 C 9.007812 -0.890625 8.835938 -0.34375 8.734375 -0.0625 C 8.640625 0.21875 8.507812 0.378906 8.34375 0.421875 C 7.664062 0.660156 6.972656 0.617188 6.265625 0.296875 C 5.566406 -0.0234375 5.117188 -0.472656 4.921875 -1.046875 C 4.722656 -1.628906 4.632812 -2.179688 4.65625 -2.703125 C 4.675781 -3.222656 4.613281 -3.691406 4.46875 -4.109375 C 4.332031 -4.535156 4.273438 -4.882812 4.296875 -5.15625 C 4.316406 -5.4375 4.328125 -5.71875 4.328125 -6 C 4.398438 -6.644531 4.300781 -7.128906 4.03125 -7.453125 C 3.664062 -7.847656 3.472656 -8.382812 3.453125 -9.0625 C 3.429688 -9.75 3.421875 -10.332031 3.421875 -10.8125 C 3.421875 -11.289062 3.460938 -11.691406 3.546875 -12.015625 C 3.828125 -12.773438 3.945312 -13.9375 3.90625 -15.5 C 3.78125 -18.414062 3.421875 -20.175781 2.828125 -20.78125 C 2.066406 -21.539062 1.644531 -22.941406 1.5625 -24.984375 C 1.519531 -25.460938 1.546875 -25.910156 1.640625 -26.328125 C 1.742188 -26.753906 1.765625 -27.1875 1.703125 -27.625 C 1.648438 -28.0625 1.722656 -28.503906 1.921875 -28.953125 C 2.242188 -29.785156 2.34375 -30.972656 2.21875 -32.515625 C 2.101562 -34.054688 2.035156 -35.15625 2.015625 -35.8125 C 1.992188 -36.476562 1.953125 -37.179688 1.890625 -37.921875 C 1.828125 -38.660156 1.882812 -39.320312 2.0625 -39.90625 C 2.25 -40.488281 2.5625 -41 3 -41.4375 C 4 -42.519531 5.398438 -43.0625 7.203125 -43.0625 C 8.003906 -43.625 8.9375 -44.0625 10 -44.375 C 11.0625 -44.695312 11.953125 -44.71875 12.671875 -44.4375 C 13.390625 -44.15625 13.890625 -43.710938 14.171875 -43.109375 C 14.453125 -42.515625 14.679688 -41.875 14.859375 -41.1875 C 15.046875 -40.507812 15.226562 -39.820312 15.40625 -39.125 C 15.582031 -38.425781 15.894531 -37.859375 16.34375 -37.421875 C 16.78125 -36.972656 17.097656 -36.4375 17.296875 -35.8125 C 17.492188 -35.195312 17.671875 -34.609375 17.828125 -34.046875 C 17.992188 -33.492188 18.15625 -33.023438 18.3125 -32.640625 C 18.476562 -32.265625 18.738281 -32.078125 19.09375 -32.078125 C 19.457031 -32.078125 19.664062 -32.585938 19.71875 -33.609375 C 19.78125 -34.628906 19.800781 -35.796875 19.78125 -37.109375 C 19.769531 -38.429688 19.753906 -39.722656 19.734375 -40.984375 C 19.710938 -42.242188 19.820312 -43.164062 20.0625 -43.75 C 20.300781 -44.332031 20.726562 -44.765625 21.34375 -45.046875 C 21.96875 -45.328125 22.679688 -45.242188 23.484375 -44.796875 Z M 23.484375 -44.796875 "/></g></g></g><g fill="#ffffff" fill-opacity="1"><g transform="translate(156.868494, 174.22492)"><g><path d="M 1.625 -35.734375 L 1.734375 -39.15625 C 1.734375 -39.71875 1.679688 -40.28125 1.578125 -40.84375 C 1.484375 -41.40625 1.625 -41.992188 2 -42.609375 C 2.382812 -43.234375 2.957031 -43.785156 3.71875 -44.265625 C 4.476562 -44.742188 5.335938 -44.984375 6.296875 -44.984375 C 7.265625 -44.984375 8.023438 -44.820312 8.578125 -44.5 C 9.140625 -44.175781 9.660156 -43.914062 10.140625 -43.71875 C 10.628906 -43.519531 11.171875 -43.363281 11.765625 -43.25 C 13.046875 -43.039062 14.289062 -43.21875 15.5 -43.78125 C 16.820312 -44.425781 17.878906 -44.382812 18.671875 -43.65625 C 19.515625 -43.625 20.398438 -43.707031 21.328125 -43.90625 C 22.847656 -44.226562 23.882812 -44.25 24.4375 -43.96875 C 25.6875 -43.238281 25.890625 -41.796875 25.046875 -39.640625 C 24.921875 -39.316406 24.859375 -39.035156 24.859375 -38.796875 C 24.859375 -38.554688 24.859375 -38.316406 24.859375 -38.078125 C 24.859375 -37.359375 24.796875 -36.816406 24.671875 -36.453125 C 24.554688 -36.097656 24.5 -35.796875 24.5 -35.546875 C 24.5 -35.304688 24.5 -35.03125 24.5 -34.71875 C 24.582031 -34.070312 24.484375 -33.453125 24.203125 -32.859375 C 24.046875 -32.492188 23.96875 -32.203125 23.96875 -31.984375 C 23.96875 -31.765625 23.96875 -31.550781 23.96875 -31.34375 C 23.96875 -30.820312 23.6875 -30.320312 23.125 -29.84375 C 22.195312 -28.882812 21.4375 -28.40625 20.84375 -28.40625 C 20.71875 -28.40625 20.59375 -28.441406 20.46875 -28.515625 C 20.351562 -28.597656 20.175781 -28.679688 19.9375 -28.765625 C 18.976562 -29.085938 17.96875 -29.285156 16.90625 -29.359375 C 15.84375 -29.441406 15.070312 -29.425781 14.59375 -29.3125 C 13.394531 -29.070312 12.65625 -28.488281 12.375 -27.5625 C 12.050781 -26.601562 12.128906 -25.863281 12.609375 -25.34375 C 12.804688 -25.101562 13.023438 -24.941406 13.265625 -24.859375 C 13.515625 -24.785156 13.75 -24.773438 13.96875 -24.828125 C 14.1875 -24.890625 14.484375 -24.878906 14.859375 -24.796875 C 15.242188 -24.722656 15.632812 -24.625 16.03125 -24.5 C 17.113281 -24.257812 17.84375 -24.226562 18.21875 -24.40625 C 18.601562 -24.59375 18.863281 -24.664062 19 -24.625 C 19.144531 -24.582031 19.257812 -24.519531 19.34375 -24.4375 C 19.625 -24.164062 19.882812 -24.03125 20.125 -24.03125 C 20.757812 -24.0625 21.195312 -23.785156 21.4375 -23.203125 C 21.675781 -22.628906 21.640625 -21.921875 21.328125 -21.078125 C 21.328125 -20.960938 21.265625 -20.664062 21.140625 -20.1875 C 20.859375 -19.21875 20.726562 -18.550781 20.75 -18.1875 C 20.769531 -17.832031 20.695312 -17.460938 20.53125 -17.078125 C 20.375 -16.703125 20.15625 -16.375 19.875 -16.09375 C 19.195312 -15.488281 18.457031 -15.3125 17.65625 -15.5625 C 17.289062 -15.71875 16.972656 -15.9375 16.703125 -16.21875 C 14.660156 -16.8125 13.273438 -16.671875 12.546875 -15.796875 C 12.148438 -15.316406 11.929688 -14.894531 11.890625 -14.53125 C 11.847656 -14.175781 11.828125 -13.535156 11.828125 -12.609375 L 11.828125 -10.390625 C 12.347656 -10.023438 12.828125 -9.613281 13.265625 -9.15625 C 13.710938 -8.695312 14.253906 -8.445312 14.890625 -8.40625 C 15.535156 -8.363281 16.109375 -8.410156 16.609375 -8.546875 C 17.109375 -8.691406 17.578125 -8.847656 18.015625 -9.015625 C 18.972656 -9.410156 19.851562 -9.476562 20.65625 -9.21875 C 21.457031 -8.957031 21.957031 -8.601562 22.15625 -8.15625 C 22.363281 -7.71875 22.40625 -7.140625 22.28125 -6.421875 C 22.164062 -5.703125 22.113281 -5.171875 22.125 -4.828125 C 22.144531 -4.492188 22.15625 -4.1875 22.15625 -3.90625 C 22.15625 -3.226562 21.894531 -2.566406 21.375 -1.921875 C 20.820312 -1.078125 20.300781 -0.566406 19.8125 -0.390625 C 19.332031 -0.210938 18.710938 -0.171875 17.953125 -0.265625 C 17.191406 -0.367188 16.570312 -0.328125 16.09375 -0.140625 C 15.613281 0.0351562 15.179688 0.265625 14.796875 0.546875 C 14.421875 0.828125 14.050781 1.085938 13.6875 1.328125 C 13.09375 1.722656 12.414062 1.722656 11.65625 1.328125 C 11.375 1.160156 11.09375 1 10.8125 0.84375 C 10.09375 0.476562 9.210938 0.328125 8.171875 0.390625 C 7.128906 0.453125 6.207031 0.15625 5.40625 -0.5 C 4.601562 -1.164062 4.191406 -1.976562 4.171875 -2.9375 C 4.148438 -3.90625 4.195312 -4.597656 4.3125 -5.015625 C 4.4375 -5.429688 4.5625 -5.757812 4.6875 -6 C 4.84375 -6.519531 4.757812 -6.921875 4.4375 -7.203125 C 3.476562 -7.960938 3.140625 -8.960938 3.421875 -10.203125 C 3.546875 -10.847656 3.664062 -11.347656 3.78125 -11.703125 C 3.90625 -12.066406 3.925781 -12.457031 3.84375 -12.875 C 3.757812 -13.300781 3.726562 -13.679688 3.75 -14.015625 C 3.769531 -14.359375 3.757812 -14.691406 3.71875 -15.015625 C 3.644531 -15.648438 3.367188 -16.007812 2.890625 -16.09375 C 2.285156 -16.175781 1.882812 -16.816406 1.6875 -18.015625 C 1.445312 -19.179688 1.535156 -20.34375 1.953125 -21.5 C 2.367188 -22.664062 2.535156 -23.578125 2.453125 -24.234375 C 2.378906 -24.890625 2.320312 -25.5 2.28125 -26.0625 L 2.34375 -28.40625 C 2.34375 -29.570312 2.238281 -30.351562 2.03125 -30.75 C 1.832031 -31.144531 1.773438 -31.734375 1.859375 -32.515625 C 1.941406 -33.296875 1.921875 -33.894531 1.796875 -34.3125 C 1.679688 -34.738281 1.625 -35.210938 1.625 -35.734375 Z M 1.625 -35.734375 "/></g></g></g><g fill="#ffffff" fill-opacity="1"><g transform="translate(182.692904, 174.22492)"><g><path d="M 24.5625 -39.703125 C 24.757812 -37.898438 24.800781 -36.378906 24.6875 -35.140625 C 24.6875 -35.140625 24.566406 -34.15625 24.328125 -32.1875 C 24.242188 -31.507812 24.234375 -30.628906 24.296875 -29.546875 C 24.359375 -28.460938 24.25 -27.691406 23.96875 -27.234375 C 23.6875 -26.773438 23.210938 -26.484375 22.546875 -26.359375 C 21.890625 -26.242188 21.367188 -26.273438 20.984375 -26.453125 C 20.609375 -26.628906 20.257812 -26.820312 19.9375 -27.03125 C 19.132812 -27.46875 18.484375 -27.523438 17.984375 -27.203125 C 17.484375 -26.878906 17.132812 -26.394531 16.9375 -25.75 C 16.738281 -25.113281 16.617188 -24.378906 16.578125 -23.546875 C 16.453125 -22.304688 16.453125 -20.679688 16.578125 -18.671875 C 16.617188 -17.953125 16.628906 -17.382812 16.609375 -16.96875 C 16.585938 -16.550781 16.578125 -16.179688 16.578125 -15.859375 C 16.578125 -15.097656 16.695312 -14.351562 16.9375 -13.625 C 17.175781 -12.90625 17.296875 -12.363281 17.296875 -12 C 17.296875 -11.644531 17.242188 -11.359375 17.140625 -11.140625 C 17.046875 -10.921875 16.894531 -10.738281 16.6875 -10.59375 C 16.488281 -10.457031 16.3125 -10.316406 16.15625 -10.171875 C 16 -10.035156 15.828125 -9.894531 15.640625 -9.75 C 15.460938 -9.613281 15.273438 -9.46875 15.078125 -9.3125 C 15.273438 -7.34375 15.3125 -5.785156 15.1875 -4.640625 C 15.070312 -3.503906 14.992188 -2.535156 14.953125 -1.734375 C 14.910156 -0.941406 14.710938 -0.320312 14.359375 0.125 C 13.878906 0.6875 12.914062 1.085938 11.46875 1.328125 C 10.625 1.359375 10.003906 0.921875 9.609375 0.015625 C 9.210938 -0.878906 9.039062 -1.96875 9.09375 -3.25 C 9.15625 -4.53125 9.125 -5.519531 9 -6.21875 C 8.882812 -6.914062 8.734375 -7.503906 8.546875 -7.984375 C 8.367188 -8.460938 8.203125 -8.890625 8.046875 -9.265625 C 7.890625 -9.648438 7.75 -10.179688 7.625 -10.859375 C 7.507812 -11.546875 7.59375 -12.289062 7.875 -13.09375 C 7.3125 -13.726562 6.925781 -14.40625 6.71875 -15.125 C 6.519531 -15.851562 6.550781 -16.804688 6.8125 -17.984375 C 7.070312 -19.171875 7.25 -20.242188 7.34375 -21.203125 C 7.445312 -22.160156 7.484375 -23.039062 7.453125 -23.84375 C 7.367188 -25.6875 6.945312 -26.75 6.1875 -27.03125 C 5.625 -27.1875 5.007812 -27.046875 4.34375 -26.609375 C 3.6875 -26.171875 3.175781 -25.890625 2.8125 -25.765625 C 2.457031 -25.640625 2.109375 -25.71875 1.765625 -26 C 1.429688 -26.28125 1.273438 -26.617188 1.296875 -27.015625 C 1.316406 -27.421875 1.382812 -27.851562 1.5 -28.3125 C 1.625 -28.78125 1.734375 -29.234375 1.828125 -29.671875 C 1.929688 -30.109375 1.898438 -30.53125 1.734375 -30.9375 C 1.578125 -31.332031 1.378906 -31.585938 1.140625 -31.703125 C 0.898438 -31.828125 0.679688 -32.03125 0.484375 -32.3125 C -0.0351562 -32.945312 -0.175781 -34.078125 0.0625 -35.703125 C 0.300781 -37.328125 0.476562 -38.660156 0.59375 -39.703125 C 0.71875 -40.742188 0.8125 -41.515625 0.875 -42.015625 C 0.9375 -42.515625 1.066406 -42.960938 1.265625 -43.359375 C 1.460938 -43.765625 1.757812 -44.125 2.15625 -44.4375 C 3.15625 -45.164062 4.457031 -45.425781 6.0625 -45.21875 C 13.425781 -44.21875 17.613281 -43.878906 18.625 -44.203125 C 19.019531 -44.328125 19.378906 -44.445312 19.703125 -44.5625 C 22.460938 -45.6875 24.082031 -44.066406 24.5625 -39.703125 Z M 24.5625 -39.703125 "/></g></g></g><g fill="#ffffff" fill-opacity="1"><g transform="translate(207.796632, 174.22492)"><g><path d="M 34.828125 -42.1875 C 35.234375 -41.96875 35.503906 -41.75 35.640625 -41.53125 C 35.785156 -41.3125 35.957031 -41.09375 36.15625 -40.875 C 36.351562 -40.65625 36.453125 -40.441406 36.453125 -40.234375 C 36.453125 -40.035156 36.429688 -39.816406 36.390625 -39.578125 C 36.359375 -39.335938 36.3125 -39.109375 36.25 -38.890625 C 36.1875 -38.671875 36.203125 -38.421875 36.296875 -38.140625 C 36.398438 -37.859375 36.3125 -37.484375 36.03125 -37.015625 C 35.757812 -36.554688 35.421875 -35.847656 35.015625 -34.890625 C 34.617188 -33.929688 34.328125 -32.847656 34.140625 -31.640625 C 33.960938 -30.441406 33.8125 -29.253906 33.6875 -28.078125 C 33.570312 -26.898438 33.460938 -25.757812 33.359375 -24.65625 C 33.265625 -23.550781 33.066406 -22.554688 32.765625 -21.671875 C 32.460938 -20.796875 32.222656 -19.828125 32.046875 -18.765625 C 31.867188 -17.703125 31.695312 -16.613281 31.53125 -15.5 C 31.132812 -12.65625 30.796875 -10.8125 30.515625 -9.96875 C 30.234375 -9.125 30.09375 -8.5625 30.09375 -8.28125 C 30.09375 -8.007812 30.050781 -7.671875 29.96875 -7.265625 C 29.769531 -6.222656 29.316406 -5.25 28.609375 -4.34375 C 27.910156 -3.445312 27.484375 -2.738281 27.328125 -2.21875 C 27.171875 -1.695312 27.019531 -1.207031 26.875 -0.75 C 26.738281 -0.289062 26.566406 0.0859375 26.359375 0.390625 C 26.160156 0.691406 25.867188 0.820312 25.484375 0.78125 C 25.109375 0.738281 24.847656 0.675781 24.703125 0.59375 C 24.566406 0.519531 24.441406 0.441406 24.328125 0.359375 C 23.921875 -0.078125 23.40625 -0.273438 22.78125 -0.234375 C 22.164062 -0.203125 21.71875 -0.203125 21.4375 -0.234375 C 20.800781 -0.273438 20.390625 -0.535156 20.203125 -1.015625 C 20.023438 -1.492188 19.863281 -2.253906 19.71875 -3.296875 C 19.582031 -4.335938 19.4375 -5.398438 19.28125 -6.484375 C 18.800781 -9.171875 18.238281 -10.515625 17.59375 -10.515625 C 17.238281 -10.515625 17.039062 -10.234375 17 -9.671875 C 16.957031 -9.109375 16.925781 -8.644531 16.90625 -8.28125 C 16.882812 -7.925781 16.832031 -7.507812 16.75 -7.03125 C 16.675781 -6.550781 16.519531 -5.828125 16.28125 -4.859375 C 16.039062 -3.898438 15.757812 -2.984375 15.4375 -2.109375 C 14.59375 0.015625 13.59375 1.078125 12.4375 1.078125 C 11.507812 1.078125 10.847656 0.738281 10.453125 0.0625 C 10.296875 -0.21875 10.132812 -0.507812 9.96875 -0.8125 C 9.8125 -1.113281 9.519531 -1.375 9.09375 -1.59375 C 8.675781 -1.8125 8.328125 -2.039062 8.046875 -2.28125 C 7.765625 -2.519531 7.546875 -2.84375 7.390625 -3.25 C 7.148438 -3.769531 6.957031 -4.695312 6.8125 -6.03125 C 6.675781 -7.375 6.488281 -8.425781 6.25 -9.1875 C 6.007812 -9.945312 5.75 -10.6875 5.46875 -11.40625 C 4.820312 -13.289062 4.507812 -14.671875 4.53125 -15.546875 C 4.550781 -16.429688 4.507812 -17.191406 4.40625 -17.828125 C 4.3125 -18.472656 4.179688 -19.09375 4.015625 -19.6875 C 3.859375 -20.289062 3.671875 -20.910156 3.453125 -21.546875 C 3.234375 -22.191406 3.03125 -22.882812 2.84375 -23.625 C 2.664062 -24.375 2.46875 -25.078125 2.25 -25.734375 C 2.03125 -26.390625 1.820312 -27.019531 1.625 -27.625 C 1.226562 -29.03125 1.21875 -30.253906 1.59375 -31.296875 C 1.976562 -32.335938 2.03125 -33.394531 1.75 -34.46875 C 1.46875 -35.550781 1.113281 -36.625 0.6875 -37.6875 C 0.269531 -38.75 -0.0859375 -39.726562 -0.390625 -40.625 C -0.691406 -41.53125 -0.660156 -42.269531 -0.296875 -42.84375 C 0.0664062 -43.425781 0.578125 -43.773438 1.234375 -43.890625 C 1.890625 -44.015625 2.554688 -44.023438 3.234375 -43.921875 C 3.921875 -43.828125 4.585938 -43.703125 5.234375 -43.546875 C 6.234375 -43.304688 6.921875 -43.296875 7.296875 -43.515625 C 7.679688 -43.734375 7.992188 -43.890625 8.234375 -43.984375 C 8.472656 -44.085938 8.75 -44.140625 9.0625 -44.140625 C 9.382812 -44.140625 9.796875 -44 10.296875 -43.71875 C 10.796875 -43.4375 11.132812 -43.113281 11.3125 -42.75 C 11.5 -42.394531 11.625 -41.976562 11.6875 -41.5 C 11.75 -41.019531 11.78125 -40.488281 11.78125 -39.90625 C 11.78125 -39.320312 11.914062 -38.472656 12.1875 -37.359375 C 13.070312 -34.035156 13.210938 -31.070312 12.609375 -28.46875 C 12.253906 -26.945312 12.195312 -25.695312 12.4375 -24.71875 C 12.675781 -23.738281 13.015625 -23.285156 13.453125 -23.359375 C 13.859375 -23.441406 14.117188 -23.753906 14.234375 -24.296875 C 14.359375 -24.835938 14.429688 -25.515625 14.453125 -26.328125 C 14.472656 -27.148438 14.484375 -28.03125 14.484375 -28.96875 C 14.484375 -29.914062 14.5625 -30.789062 14.71875 -31.59375 C 14.875 -32.394531 14.992188 -33.015625 15.078125 -33.453125 C 15.160156 -33.890625 15.238281 -34.226562 15.3125 -34.46875 C 15.519531 -34.945312 15.78125 -35.25 16.09375 -35.375 C 15.9375 -39.738281 16.597656 -42.617188 18.078125 -44.015625 C 18.359375 -44.265625 18.6875 -44.390625 19.0625 -44.390625 C 19.445312 -44.390625 19.816406 -44.128906 20.171875 -43.609375 C 20.535156 -43.085938 20.738281 -42.164062 20.78125 -40.84375 C 20.863281 -38.71875 21.0625 -36.65625 21.375 -34.65625 C 21.695312 -32.65625 21.925781 -31.191406 22.0625 -30.265625 C 22.207031 -29.347656 22.363281 -28.507812 22.53125 -27.75 C 23.050781 -24.625 23.628906 -24.144531 24.265625 -26.3125 C 24.785156 -28.144531 25.046875 -29.78125 25.046875 -31.21875 C 25.046875 -32.664062 24.945312 -33.488281 24.75 -33.6875 C 23.863281 -34.488281 23.863281 -35.613281 24.75 -37.0625 C 25.101562 -37.695312 25.300781 -38.492188 25.34375 -39.453125 C 25.507812 -41.378906 25.660156 -42.507812 25.796875 -42.84375 C 25.941406 -43.1875 26.203125 -43.507812 26.578125 -43.8125 C 26.960938 -44.113281 27.375 -44.34375 27.8125 -44.5 C 28.925781 -44.945312 29.847656 -44.75 30.578125 -43.90625 C 30.972656 -43.382812 31.609375 -43.101562 32.484375 -43.0625 C 33.367188 -43.019531 33.878906 -42.914062 34.015625 -42.75 C 34.160156 -42.59375 34.429688 -42.40625 34.828125 -42.1875 Z M 34.828125 -42.1875 "/></g></g></g><g fill="#ffffff" fill-opacity="1"><g transform="translate(243.590465, 174.22492)"><g><path d="M 1.625 -35.734375 L 1.734375 -39.15625 C 1.734375 -39.71875 1.679688 -40.28125 1.578125 -40.84375 C 1.484375 -41.40625 1.625 -41.992188 2 -42.609375 C 2.382812 -43.234375 2.957031 -43.785156 3.71875 -44.265625 C 4.476562 -44.742188 5.335938 -44.984375 6.296875 -44.984375 C 7.265625 -44.984375 8.023438 -44.820312 8.578125 -44.5 C 9.140625 -44.175781 9.660156 -43.914062 10.140625 -43.71875 C 10.628906 -43.519531 11.171875 -43.363281 11.765625 -43.25 C 13.046875 -43.039062 14.289062 -43.21875 15.5 -43.78125 C 16.820312 -44.425781 17.878906 -44.382812 18.671875 -43.65625 C 19.515625 -43.625 20.398438 -43.707031 21.328125 -43.90625 C 22.847656 -44.226562 23.882812 -44.25 24.4375 -43.96875 C 25.6875 -43.238281 25.890625 -41.796875 25.046875 -39.640625 C 24.921875 -39.316406 24.859375 -39.035156 24.859375 -38.796875 C 24.859375 -38.554688 24.859375 -38.316406 24.859375 -38.078125 C 24.859375 -37.359375 24.796875 -36.816406 24.671875 -36.453125 C 24.554688 -36.097656 24.5 -35.796875 24.5 -35.546875 C 24.5 -35.304688 24.5 -35.03125 24.5 -34.71875 C 24.582031 -34.070312 24.484375 -33.453125 24.203125 -32.859375 C 24.046875 -32.492188 23.96875 -32.203125 23.96875 -31.984375 C 23.96875 -31.765625 23.96875 -31.550781 23.96875 -31.34375 C 23.96875 -30.820312 23.6875 -30.320312 23.125 -29.84375 C 22.195312 -28.882812 21.4375 -28.40625 20.84375 -28.40625 C 20.71875 -28.40625 20.59375 -28.441406 20.46875 -28.515625 C 20.351562 -28.597656 20.175781 -28.679688 19.9375 -28.765625 C 18.976562 -29.085938 17.96875 -29.285156 16.90625 -29.359375 C 15.84375 -29.441406 15.070312 -29.425781 14.59375 -29.3125 C 13.394531 -29.070312 12.65625 -28.488281 12.375 -27.5625 C 12.050781 -26.601562 12.128906 -25.863281 12.609375 -25.34375 C 12.804688 -25.101562 13.023438 -24.941406 13.265625 -24.859375 C 13.515625 -24.785156 13.75 -24.773438 13.96875 -24.828125 C 14.1875 -24.890625 14.484375 -24.878906 14.859375 -24.796875 C 15.242188 -24.722656 15.632812 -24.625 16.03125 -24.5 C 17.113281 -24.257812 17.84375 -24.226562 18.21875 -24.40625 C 18.601562 -24.59375 18.863281 -24.664062 19 -24.625 C 19.144531 -24.582031 19.257812 -24.519531 19.34375 -24.4375 C 19.625 -24.164062 19.882812 -24.03125 20.125 -24.03125 C 20.757812 -24.0625 21.195312 -23.785156 21.4375 -23.203125 C 21.675781 -22.628906 21.640625 -21.921875 21.328125 -21.078125 C 21.328125 -20.960938 21.265625 -20.664062 21.140625 -20.1875 C 20.859375 -19.21875 20.726562 -18.550781 20.75 -18.1875 C 20.769531 -17.832031 20.695312 -17.460938 20.53125 -17.078125 C 20.375 -16.703125 20.15625 -16.375 19.875 -16.09375 C 19.195312 -15.488281 18.457031 -15.3125 17.65625 -15.5625 C 17.289062 -15.71875 16.972656 -15.9375 16.703125 -16.21875 C 14.660156 -16.8125 13.273438 -16.671875 12.546875 -15.796875 C 12.148438 -15.316406 11.929688 -14.894531 11.890625 -14.53125 C 11.847656 -14.175781 11.828125 -13.535156 11.828125 -12.609375 L 11.828125 -10.390625 C 12.347656 -10.023438 12.828125 -9.613281 13.265625 -9.15625 C 13.710938 -8.695312 14.253906 -8.445312 14.890625 -8.40625 C 15.535156 -8.363281 16.109375 -8.410156 16.609375 -8.546875 C 17.109375 -8.691406 17.578125 -8.847656 18.015625 -9.015625 C 18.972656 -9.410156 19.851562 -9.476562 20.65625 -9.21875 C 21.457031 -8.957031 21.957031 -8.601562 22.15625 -8.15625 C 22.363281 -7.71875 22.40625 -7.140625 22.28125 -6.421875 C 22.164062 -5.703125 22.113281 -5.171875 22.125 -4.828125 C 22.144531 -4.492188 22.15625 -4.1875 22.15625 -3.90625 C 22.15625 -3.226562 21.894531 -2.566406 21.375 -1.921875 C 20.820312 -1.078125 20.300781 -0.566406 19.8125 -0.390625 C 19.332031 -0.210938 18.710938 -0.171875 17.953125 -0.265625 C 17.191406 -0.367188 16.570312 -0.328125 16.09375 -0.140625 C 15.613281 0.0351562 15.179688 0.265625 14.796875 0.546875 C 14.421875 0.828125 14.050781 1.085938 13.6875 1.328125 C 13.09375 1.722656 12.414062 1.722656 11.65625 1.328125 C 11.375 1.160156 11.09375 1 10.8125 0.84375 C 10.09375 0.476562 9.210938 0.328125 8.171875 0.390625 C 7.128906 0.453125 6.207031 0.15625 5.40625 -0.5 C 4.601562 -1.164062 4.191406 -1.976562 4.171875 -2.9375 C 4.148438 -3.90625 4.195312 -4.597656 4.3125 -5.015625 C 4.4375 -5.429688 4.5625 -5.757812 4.6875 -6 C 4.84375 -6.519531 4.757812 -6.921875 4.4375 -7.203125 C 3.476562 -7.960938 3.140625 -8.960938 3.421875 -10.203125 C 3.546875 -10.847656 3.664062 -11.347656 3.78125 -11.703125 C 3.90625 -12.066406 3.925781 -12.457031 3.84375 -12.875 C 3.757812 -13.300781 3.726562 -13.679688 3.75 -14.015625 C 3.769531 -14.359375 3.757812 -14.691406 3.71875 -15.015625 C 3.644531 -15.648438 3.367188 -16.007812 2.890625 -16.09375 C 2.285156 -16.175781 1.882812 -16.816406 1.6875 -18.015625 C 1.445312 -19.179688 1.535156 -20.34375 1.953125 -21.5 C 2.367188 -22.664062 2.535156 -23.578125 2.453125 -24.234375 C 2.378906 -24.890625 2.320312 -25.5 2.28125 -26.0625 L 2.34375 -28.40625 C 2.34375 -29.570312 2.238281 -30.351562 2.03125 -30.75 C 1.832031 -31.144531 1.773438 -31.734375 1.859375 -32.515625 C 1.941406 -33.296875 1.921875 -33.894531 1.796875 -34.3125 C 1.679688 -34.738281 1.625 -35.210938 1.625 -35.734375 Z M 1.625 -35.734375 "/></g></g></g><g fill="#ffffff" fill-opacity="1"><g transform="translate(269.414875, 174.22492)"><g><path d="M 16.28125 -9.0625 C 16.476562 -7.257812 16.585938 -5.988281 16.609375 -5.25 C 16.628906 -4.507812 16.609375 -3.898438 16.546875 -3.421875 C 16.484375 -2.941406 16.394531 -2.503906 16.28125 -2.109375 C 16 -1.179688 15.597656 -0.675781 15.078125 -0.59375 C 14.710938 -0.59375 14.359375 -0.421875 14.015625 -0.078125 C 13.679688 0.253906 13.410156 0.5 13.203125 0.65625 C 13.003906 0.820312 12.710938 0.90625 12.328125 0.90625 C 11.953125 0.90625 11.535156 0.84375 11.078125 0.71875 C 10.617188 0.601562 10.207031 0.285156 9.84375 -0.234375 C 9.050781 -1.398438 8.789062 -3.6875 9.0625 -7.09375 C 8.507812 -7.488281 8.117188 -8.066406 7.890625 -8.828125 C 7.671875 -9.585938 7.691406 -10.707031 7.953125 -12.1875 C 8.210938 -13.675781 8.375 -14.757812 8.4375 -15.4375 C 8.5 -16.113281 8.5 -16.679688 8.4375 -17.140625 C 8.375 -17.609375 8.265625 -17.988281 8.109375 -18.28125 C 7.953125 -18.582031 7.734375 -19.023438 7.453125 -19.609375 C 7.171875 -20.191406 6.976562 -20.753906 6.875 -21.296875 C 6.78125 -21.835938 6.609375 -22.234375 6.359375 -22.484375 C 6.117188 -22.742188 5.957031 -23.082031 5.875 -23.5 C 5.800781 -23.925781 5.664062 -24.34375 5.46875 -24.75 C 5.269531 -25.144531 5.140625 -25.722656 5.078125 -26.484375 C 5.015625 -27.242188 4.832031 -27.875 4.53125 -28.375 C 4.226562 -28.875 3.925781 -29.296875 3.625 -29.640625 C 3.332031 -29.984375 3.046875 -30.3125 2.765625 -30.625 C 1.960938 -31.507812 1.398438 -32.257812 1.078125 -32.875 C 0.753906 -33.5 0.582031 -34.03125 0.5625 -34.46875 C 0.550781 -34.914062 0.5625 -35.335938 0.59375 -35.734375 C 0.71875 -36.773438 0.679688 -37.476562 0.484375 -37.84375 L -0.1875 -39.15625 C -0.863281 -40.519531 -1.203125 -41.601562 -1.203125 -42.40625 C -1.203125 -43.207031 -0.988281 -43.804688 -0.5625 -44.203125 C -0.144531 -44.597656 0.300781 -44.71875 0.78125 -44.5625 C 1.257812 -44.40625 1.921875 -44.234375 2.765625 -44.046875 C 3.609375 -43.867188 4.257812 -43.828125 4.71875 -43.921875 C 5.175781 -44.023438 5.601562 -44.160156 6 -44.328125 C 7 -44.640625 7.800781 -44.6875 8.40625 -44.46875 C 9.007812 -44.25 9.421875 -43.890625 9.640625 -43.390625 C 9.859375 -42.890625 9.988281 -42.335938 10.03125 -41.734375 C 10.070312 -41.140625 10.101562 -40.539062 10.125 -39.9375 C 10.144531 -39.332031 10.285156 -38.8125 10.546875 -38.375 C 10.804688 -37.9375 11.015625 -37.554688 11.171875 -37.234375 C 11.328125 -36.910156 11.457031 -36.578125 11.5625 -36.234375 C 11.664062 -35.898438 11.734375 -35.550781 11.765625 -35.1875 C 11.804688 -34.832031 11.859375 -34.394531 11.921875 -33.875 C 11.984375 -33.351562 12.09375 -32.984375 12.25 -32.765625 C 12.414062 -32.546875 12.597656 -32.4375 12.796875 -32.4375 C 13.273438 -32.507812 13.59375 -32.992188 13.75 -33.890625 C 13.914062 -34.796875 14.097656 -35.554688 14.296875 -36.171875 C 14.492188 -36.796875 14.671875 -37.351562 14.828125 -37.84375 C 15.191406 -38.800781 15.34375 -39.46875 15.28125 -39.84375 C 15.21875 -40.226562 15.175781 -40.628906 15.15625 -41.046875 C 15.144531 -41.472656 15.21875 -41.863281 15.375 -42.21875 C 15.769531 -43.101562 16.617188 -43.460938 17.921875 -43.296875 C 19.222656 -43.140625 20.273438 -43.039062 21.078125 -43 C 21.878906 -42.957031 22.5 -43.113281 22.9375 -43.46875 C 23.382812 -43.832031 23.828125 -43.992188 24.265625 -43.953125 C 24.703125 -43.921875 25.082031 -43.742188 25.40625 -43.421875 C 26.164062 -42.660156 26.113281 -41.566406 25.25 -40.140625 C 24.394531 -38.722656 23.828125 -37.601562 23.546875 -36.78125 C 23.265625 -35.96875 23.191406 -35.269531 23.328125 -34.6875 C 23.472656 -34.101562 23.523438 -33.671875 23.484375 -33.390625 C 23.441406 -33.109375 23.335938 -32.816406 23.171875 -32.515625 C 23.015625 -32.222656 22.816406 -31.875 22.578125 -31.46875 C 20.859375 -28.425781 19.316406 -24.625 17.953125 -20.0625 C 17.273438 -17.820312 16.816406 -15.054688 16.578125 -11.765625 C 16.492188 -10.523438 16.394531 -9.625 16.28125 -9.0625 Z M 16.28125 -9.0625 "/></g></g></g><g fill="#000000" fill-opacity="1"><g transform="translate(157.593469, 118.874055)"><g><path d="M 1.21875 -0.078125 C 0.339844 -0.199219 0.539062 -11.628906 1 -11.789062 C 2.359375 -13.308594 5.835938 -13.507812 7.453125 -12.449219 C 9.832031 -10.949219 7.992188 -8.59375 6.8125 -6.972656 C 8.953125 -6.15625 10.25 -4.15625 8.394531 -2.257812 C 6.734375 -0.558594 3.535156 0.261719 1.21875 -0.078125 Z M 3.777344 -7.054688 C 4.097656 -7.3125 6.554688 -9.132812 6.175781 -9.792969 C 5.855469 -10.332031 4.394531 -9.691406 4.054688 -9.511719 Z M 3.21875 -1.636719 C 4.015625 -2.199219 6.292969 -3.515625 6.15625 -4.675781 C 6.035156 -5.59375 4.335938 -5.074219 3.875 -4.835938 C 3.058594 -4.417969 3.21875 -2.699219 3.21875 -1.636719 Z M 3.21875 -1.636719 "/></g></g></g><g fill="#000000" fill-opacity="1"><g transform="translate(166.884208, 118.874055)"><g><path d="M 0.960938 -0.5 C 0.320312 -2.078125 0.78125 -5.277344 0.738281 -7.234375 C 0.699219 -9.292969 -0.199219 -13.726562 3.355469 -12.730469 C 5.253906 -12.210938 3.898438 -5.996094 3.796875 -4.757812 C 3.695312 -3.496094 3.875 -1.898438 3.296875 -0.71875 C 2.976562 -0.0585938 1.320312 0.398438 0.960938 -0.5 Z M 0.960938 -0.5 "/></g></g></g><g fill="#000000" fill-opacity="1"><g transform="translate(171.43967, 118.874055)"><g><path d="M 1.179688 -0.539062 C 0.199219 -1.738281 0.757812 -5.117188 0.757812 -6.496094 C 0.78125 -7.972656 0.839844 -9.472656 0.859375 -10.96875 C 0.859375 -12.449219 1.777344 -12.550781 3.058594 -12.589844 C 3.835938 -12.628906 7.535156 -13.050781 7.832031 -11.910156 C 8.414062 -9.710938 4.417969 -10.449219 3.835938 -9.171875 C 2.996094 -7.355469 9.113281 -8.734375 7.015625 -6.65625 C 6.195312 -5.855469 4.835938 -6.113281 3.957031 -5.394531 C 3.535156 -5.074219 2.898438 -3.757812 3.695312 -3.65625 C 5.175781 -3.695312 10.050781 -4.4375 7.792969 -1.378906 C 6.992188 -0.28125 2.117188 0.621094 1.179688 -0.539062 Z M 1.179688 -0.539062 "/></g></g></g><g fill="#000000" fill-opacity="1"><g transform="translate(180.410728, 118.874055)"><g><path d="M 1.558594 -0.0585938 C 0.0390625 -0.417969 0.800781 -5.773438 0.757812 -6.792969 C 0.738281 -8.234375 0.679688 -9.691406 0.699219 -11.128906 C 0.699219 -12.46875 1.457031 -12.648438 2.636719 -12.730469 C 3.996094 -12.808594 4.214844 -11.828125 4.238281 -10.632812 C 5.15625 -9.332031 5.875 -7.894531 6.8125 -6.613281 C 6.992188 -8.171875 6.59375 -12.589844 8.914062 -12.6875 C 10.53125 -12.769531 10.050781 -8.234375 10.050781 -7.355469 C 10.050781 -5.996094 10.832031 -1.796875 9.273438 -0.980469 C 6.214844 0.621094 4.597656 -4.496094 3.917969 -5.816406 C 3.777344 -4.238281 4.335938 0.597656 1.558594 -0.0585938 Z M 1.558594 -0.0585938 "/></g></g></g><g fill="#000000" fill-opacity="1"><g transform="translate(191.259912, 118.874055)"><g><path d="M 4.597656 -0.0390625 C 3.238281 -0.261719 2.539062 -4.257812 2.117188 -5.414062 C 1.636719 -6.695312 -0.261719 -10.550781 1.078125 -11.789062 C 3.875 -14.40625 3.796875 -6.136719 5.554688 -6.113281 C 5.914062 -7.59375 6.59375 -10.851562 7.753906 -11.871094 C 8.171875 -12.25 8.914062 -12.371094 9.433594 -12.210938 C 10.429688 -11.910156 9.851562 -10.511719 9.632812 -9.871094 C 8.933594 -7.875 8.371094 -5.855469 7.992188 -3.796875 C 7.632812 -1.878906 7.214844 0.359375 4.597656 -0.0390625 Z M 4.597656 -0.0390625 "/></g></g></g><g fill="#000000" fill-opacity="1"><g transform="translate(201.249957, 118.874055)"><g><path d="M 1.179688 -0.539062 C 0.199219 -1.738281 0.757812 -5.117188 0.757812 -6.496094 C 0.78125 -7.972656 0.839844 -9.472656 0.859375 -10.96875 C 0.859375 -12.449219 1.777344 -12.550781 3.058594 -12.589844 C 3.835938 -12.628906 7.535156 -13.050781 7.832031 -11.910156 C 8.414062 -9.710938 4.417969 -10.449219 3.835938 -9.171875 C 2.996094 -7.355469 9.113281 -8.734375 7.015625 -6.65625 C 6.195312 -5.855469 4.835938 -6.113281 3.957031 -5.394531 C 3.535156 -5.074219 2.898438 -3.757812 3.695312 -3.65625 C 5.175781 -3.695312 10.050781 -4.4375 7.792969 -1.378906 C 6.992188 -0.28125 2.117188 0.621094 1.179688 -0.539062 Z M 1.179688 -0.539062 "/></g></g></g><g fill="#000000" fill-opacity="1"><g transform="translate(210.221015, 118.874055)"><g><path d="M 1.558594 -0.0585938 C 0.0390625 -0.417969 0.800781 -5.773438 0.757812 -6.792969 C 0.738281 -8.234375 0.679688 -9.691406 0.699219 -11.128906 C 0.699219 -12.46875 1.457031 -12.648438 2.636719 -12.730469 C 3.996094 -12.808594 4.214844 -11.828125 4.238281 -10.632812 C 5.15625 -9.332031 5.875 -7.894531 6.8125 -6.613281 C 6.992188 -8.171875 6.59375 -12.589844 8.914062 -12.6875 C 10.53125 -12.769531 10.050781 -8.234375 10.050781 -7.355469 C 10.050781 -5.996094 10.832031 -1.796875 9.273438 -0.980469 C 6.214844 0.621094 4.597656 -4.496094 3.917969 -5.816406 C 3.777344 -4.238281 4.335938 0.597656 1.558594 -0.0585938 Z M 1.558594 -0.0585938 "/></g></g></g><g fill="#000000" fill-opacity="1"><g transform="translate(221.070199, 118.874055)"><g><path d="M 0.960938 -0.5 C 0.320312 -2.078125 0.78125 -5.277344 0.738281 -7.234375 C 0.699219 -9.292969 -0.199219 -13.726562 3.355469 -12.730469 C 5.253906 -12.210938 3.898438 -5.996094 3.796875 -4.757812 C 3.695312 -3.496094 3.875 -1.898438 3.296875 -0.71875 C 2.976562 -0.0585938 1.320312 0.398438 0.960938 -0.5 Z M 0.960938 -0.5 "/></g></g></g><g fill="#000000" fill-opacity="1"><g transform="translate(225.625661, 118.874055)"><g><path d="M 2.757812 -0.0195312 C 0.300781 0.261719 0.820312 -2.835938 0.78125 -4.417969 C 0.71875 -6.273438 0 -11.910156 1.9375 -12.167969 C 4.277344 -12.6875 7.753906 -12.789062 9.171875 -10.449219 C 10.832031 -7.714844 8.59375 -4.195312 6.714844 -2.21875 C 5.65625 -1.117188 4.296875 -0.179688 2.757812 -0.0195312 Z M 4.496094 -3.4375 C 4.914062 -3.757812 7.035156 -5.457031 7.652344 -7.132812 C 8.214844 -8.734375 7.074219 -9.632812 5.535156 -9.511719 C 3.636719 -9.371094 4.136719 -8.09375 4.035156 -6.472656 C 3.996094 -5.753906 3.378906 -2.597656 4.496094 -3.4375 Z M 4.496094 -3.4375 "/></g></g></g><g fill="#000000" fill-opacity="1"><g transform="translate(235.375948, 118.874055)"><g><path d="M 7.492188 -1.039062 C 4.636719 1.757812 1.4375 -1.636719 0.78125 -4.515625 C 0.121094 -7.535156 1.339844 -11.152344 4.277344 -12.53125 C 7.773438 -14.1875 9.492188 -10.8125 9.511719 -10.292969 C 10.511719 -7.734375 9.472656 -2.976562 7.492188 -1.039062 Z M 4.65625 -2.117188 C 6.734375 -1.199219 8.652344 -7.492188 6.695312 -8.613281 C 5.355469 -9.410156 4.316406 -7.574219 3.9375 -6.554688 C 3.457031 -5.355469 3.117188 -2.777344 4.65625 -2.117188 Z M 4.65625 -2.117188 "/></g></g></g><g fill="#000000" fill-opacity="1"><g transform="translate(245.865489, 118.874055)"><g/></g></g><g fill="#000000" fill-opacity="1"><g transform="translate(252.059319, 118.874055)"><g><path d="M 0.078125 0.160156 C -0.339844 -1.140625 1.039062 -3.457031 1.5 -4.617188 C 1.878906 -5.515625 4.117188 -12.589844 5.855469 -11.851562 C 7.59375 -11.070312 9.453125 -2.558594 8.914062 -0.898438 C 8.171875 1.4375 7.054688 -1.140625 6.414062 -1.617188 C 5.734375 -2.117188 2.976562 -2.277344 2.597656 -1.359375 C 2.359375 -0.78125 0.800781 2.417969 0.078125 0.160156 Z M 4.355469 -4.15625 C 6.394531 -4.257812 5.117188 -6.175781 4.914062 -6.375 C 4.4375 -5.953125 2.917969 -4.078125 4.355469 -4.15625 Z M 4.355469 -4.15625 "/></g></g></g><g clip-path="url(#09f51be5cc)"><g clip-path="url(#3686efe293)"><g clip-path="url(#7f0054d36d)"><g clip-path="url(#9916ce8e7f)"><path fill="#000000" d="M 190.859375 212.554688 C 188.355469 211.417969 185.347656 211.886719 182.925781 213.179688 C 180.503906 214.476562 178.472656 216.441406 176.757812 218.578125 C 174.183594 221.78125 172.355469 225.019531 169.652344 227.746094 C 167.558594 229.859375 164.625 229.605469 163.039062 227.082031 C 159.082031 220.808594 155.796875 215.101562 152.800781 210.828125 C 136.96875 188.234375 126.171875 178.585938 105.183594 185.171875 C 90.128906 189.890625 75.621094 201.757812 76.128906 227.207031 C 76.351562 238.433594 79.835938 246.03125 79.089844 255.46875 C 78.835938 258.675781 77.144531 261.394531 74.140625 260.238281 C 71.476562 259.226562 63.980469 256.148438 61.238281 255.351562 C 58.597656 254.582031 55.859375 253.921875 53.125 254.148438 C 50.386719 254.371094 47.601562 255.601562 46.117188 257.910156 C 44.210938 260.863281 44.859375 264.929688 46.851562 267.835938 C 48.84375 270.738281 51.929688 272.679688 55.035156 274.332031 C 63 278.550781 71.625 281.328125 80.203125 284.085938 L 80.269531 284.109375 C 81.429688 284.480469 82.523438 284.984375 83.5625 285.625 C 84.597656 286.261719 85.539062 287.015625 86.394531 287.886719 C 87.246094 288.753906 87.980469 289.710938 88.601562 290.761719 C 89.21875 291.808594 89.703125 292.917969 90.050781 294.082031 C 92.46875 302.207031 94.089844 310.484375 93.949219 318.925781 C 93.78125 328.789062 90.914062 339.003906 83.988281 345.996094 C 80.996094 349.011719 77.363281 351.332031 74.246094 354.214844 C 71.128906 357.097656 68.425781 360.828125 68.171875 365.078125 C 67.914062 369.328125 70.929688 373.945312 75.171875 374.207031 C 78.808594 374.433594 81.839844 371.679688 84.707031 369.429688 C 99.9375 357.480469 121.027344 356.367188 138.074219 347.1875 C 151.121094 340.160156 161.386719 328.472656 167.761719 315.078125 C 174.136719 301.6875 175.90625 291.453125 175.625 276.609375 C 175.507812 271.6875 175 266.808594 174.105469 261.964844 C 173.8125 260.375 173.871094 258.796875 174.269531 257.234375 C 174.671875 255.671875 175.382812 254.261719 176.40625 253.015625 L 176.4375 252.976562 C 182.144531 246.027344 187.886719 239.027344 192.289062 231.179688 C 194.003906 228.117188 195.542969 224.816406 195.632812 221.296875 C 195.726562 217.777344 194.0625 214.007812 190.859375 212.554688 Z M 106.003906 250.554688 C 104.546875 250.941406 102.957031 250.460938 101.738281 249.5625 C 100.523438 248.667969 99.632812 247.402344 98.890625 246.082031 C 96.84375 242.488281 95.71875 238.265625 96.328125 234.183594 C 96.941406 230.097656 99.46875 226.214844 103.234375 224.53125 C 108.339844 222.25 110.753906 228.0625 111.296875 231.929688 C 111.84375 235.796875 111.191406 239.722656 110.449219 243.550781 C 109.890625 246.421875 108.828125 249.800781 106.003906 250.554688 Z M 129.683594 251.15625 C 130.671875 253.375 130.941406 255.671875 130.496094 258.054688 C 130.085938 260.179688 128.929688 262.0625 127.089844 262.261719 C 124.625 262.539062 121.753906 259.503906 120.949219 256.316406 C 120.144531 253.132812 120.703125 249.578125 122.726562 248.246094 C 126.257812 245.925781 128.664062 248.890625 129.683594 251.15625 Z M 138.898438 231.609375 C 138.855469 233.398438 138.546875 235.234375 137.628906 236.765625 C 136.714844 238.300781 135.132812 239.515625 133.347656 239.632812 C 131.449219 239.757812 129.679688 238.671875 128.261719 237.40625 C 122.039062 231.851562 117.160156 217.820312 124.839844 214.613281 C 134.105469 210.738281 139.082031 224.238281 138.898438 231.609375 Z M 138.898438 231.609375 " fill-opacity="1" fill-rule="nonzero"/></g></g></g></g><g clip-path="url(#e1f777d01c)"><g clip-path="url(#2bb93ffce8)"><g clip-path="url(#f9c62bd2f5)"><g clip-path="url(#625fcb3461)"><path fill="#000000" d="M 314.9375 72.09375 C 314.773438 74.839844 316.285156 77.480469 318.359375 79.277344 C 320.4375 81.078125 323 82.269531 325.605469 83.105469 C 329.519531 84.367188 333.195312 84.910156 336.710938 86.460938 C 339.433594 87.660156 340.246094 90.488281 338.460938 92.875 C 334.015625 98.8125 329.863281 103.921875 326.941406 108.25 C 311.515625 131.121094 306.367188 144.652344 320.027344 161.894531 C 329.820312 174.265625 346.09375 183.5625 369.679688 173.984375 C 380.078125 169.761719 385.925781 163.785156 395.007812 161.101562 C 398.089844 160.195312 401.234375 160.800781 401.230469 164.019531 C 401.238281 166.871094 401.046875 174.96875 401.285156 177.816406 C 401.511719 180.558594 401.875 183.347656 403.0625 185.824219 C 404.253906 188.300781 406.398438 190.460938 409.085938 191.023438 C 412.523438 191.746094 416.089844 189.679688 418.089844 186.785156 C 420.085938 183.886719 420.796875 180.304688 421.226562 176.816406 C 422.316406 167.871094 421.824219 158.820312 421.332031 149.824219 L 421.328125 149.753906 C 421.257812 148.539062 421.339844 147.335938 421.5625 146.140625 C 421.789062 144.945312 422.15625 143.792969 422.664062 142.683594 C 423.167969 141.578125 423.800781 140.546875 424.558594 139.59375 C 425.316406 138.640625 426.175781 137.792969 427.140625 137.050781 C 433.859375 131.886719 441.011719 127.410156 448.945312 124.523438 C 458.214844 121.152344 468.777344 120.167969 477.785156 124.132812 C 481.671875 125.847656 485.136719 128.414062 488.945312 130.292969 C 492.753906 132.171875 497.203125 133.359375 501.265625 132.078125 C 505.324219 130.796875 508.558594 126.328125 507.28125 122.273438 C 506.191406 118.792969 502.535156 116.949219 499.410156 115.078125 C 482.800781 105.132812 474.214844 85.839844 459.546875 73.207031 C 448.3125 63.539062 433.726562 58.132812 418.9375 56.972656 C 404.152344 55.8125 393.964844 57.824219 380.203125 63.394531 C 375.648438 65.265625 371.273438 67.488281 367.070312 70.058594 C 365.691406 70.898438 364.199219 71.410156 362.59375 71.59375 C 360.988281 71.78125 359.421875 71.617188 357.890625 71.113281 L 357.84375 71.097656 C 349.308594 68.253906 340.722656 65.398438 331.816406 64.097656 C 328.34375 63.589844 324.710938 63.335938 321.390625 64.507812 C 318.074219 65.679688 315.148438 68.582031 314.9375 72.09375 Z M 380.785156 137.730469 C 381.667969 138.953125 381.789062 140.613281 381.386719 142.070312 C 380.984375 143.527344 380.121094 144.808594 379.15625 145.976562 C 376.53125 149.171875 372.992188 151.734375 368.960938 152.625 C 364.925781 153.515625 360.398438 152.542969 357.476562 149.632812 C 353.519531 145.679688 358.085938 141.347656 361.5 139.453125 C 364.914062 137.558594 368.816406 136.765625 372.65625 136.085938 C 375.539062 135.582031 379.074219 135.363281 380.785156 137.730469 Z M 372.875 115.40625 C 374.589844 113.691406 376.640625 112.613281 379.023438 112.179688 C 381.15625 111.800781 383.328125 112.207031 384.171875 113.855469 C 385.3125 116.054688 383.507812 119.820312 380.820312 121.714844 C 378.132812 123.605469 374.613281 124.355469 372.644531 122.941406 C 369.214844 120.476562 371.125 117.167969 372.875 115.40625 Z M 351.324219 113.796875 C 353.007812 113.195312 354.835938 112.828125 356.59375 113.132812 C 358.351562 113.441406 360.054688 114.484375 360.800781 116.105469 C 361.597656 117.835938 361.21875 119.875 360.542969 121.652344 C 357.585938 129.453125 346.226562 139.027344 340.484375 133.007812 C 333.550781 125.738281 344.375 116.261719 351.324219 113.796875 Z M 351.324219 113.796875 " fill-opacity="1" fill-rule="nonzero"/></g></g></g></g><g clip-path="url(#c03bcc3726)"><g clip-path="url(#7912b45941)"><g clip-path="url(#1acba8ba46)"><g clip-path="url(#51bbf3a882)"><path fill="#000000" d="M 170.976562 66.300781 C 173.425781 67.550781 176.449219 67.21875 178.929688 66.03125 C 181.40625 64.847656 183.523438 62.972656 185.332031 60.914062 C 188.046875 57.828125 190.015625 54.675781 192.835938 52.070312 C 195.023438 50.054688 197.941406 50.441406 199.417969 53.027344 C 203.089844 59.476562 206.113281 65.320312 208.917969 69.726562 C 223.730469 93 234.085938 103.121094 255.34375 97.480469 C 270.59375 93.433594 285.617188 82.226562 286.246094 56.777344 C 286.523438 45.554688 283.378906 37.8125 284.546875 28.414062 C 284.945312 25.222656 286.753906 22.582031 289.703125 23.871094 C 292.320312 25.003906 299.671875 28.410156 302.375 29.328125 C 304.980469 30.214844 307.683594 30.996094 310.429688 30.894531 C 313.171875 30.792969 316.007812 29.6875 317.597656 27.445312 C 319.632812 24.582031 319.164062 20.488281 317.304688 17.5 C 315.445312 14.511719 312.445312 12.429688 309.421875 10.644531 C 301.648438 6.074219 293.15625 2.914062 284.710938 -0.222656 L 284.644531 -0.25 C 283.503906 -0.671875 282.429688 -1.222656 281.425781 -1.910156 C 280.417969 -2.59375 279.507812 -3.386719 278.695312 -4.292969 C 277.882812 -5.199219 277.191406 -6.191406 276.621094 -7.265625 C 276.046875 -8.339844 275.613281 -9.46875 275.316406 -10.648438 C 273.265625 -18.871094 272.015625 -27.214844 272.535156 -35.640625 C 273.140625 -45.484375 276.457031 -55.5625 283.691406 -62.242188 C 286.8125 -65.121094 290.546875 -67.273438 293.789062 -70.015625 C 297.03125 -72.757812 299.898438 -76.363281 300.34375 -80.597656 C 300.789062 -84.832031 297.984375 -89.582031 293.757812 -90.027344 C 290.132812 -90.417969 286.980469 -87.800781 284.019531 -85.683594 C 268.269531 -74.421875 247.148438 -74.25 229.714844 -65.84375 C 216.363281 -59.40625 205.585938 -48.183594 198.621094 -35.089844 C 191.65625 -21.996094 189.433594 -11.851562 189.050781 2.988281 C 188.949219 7.910156 189.238281 12.8125 189.917969 17.6875 C 190.136719 19.289062 190.011719 20.863281 189.539062 22.40625 C 189.066406 23.953125 188.296875 25.324219 187.21875 26.527344 L 187.1875 26.566406 C 181.175781 33.253906 175.125 39.988281 170.378906 47.632812 C 168.53125 50.617188 166.84375 53.84375 166.59375 57.355469 C 166.347656 60.867188 167.839844 64.707031 170.976562 66.300781 Z M 257.441406 32.125 C 258.914062 31.804688 260.480469 32.355469 261.65625 33.304688 C 262.832031 34.253906 263.664062 35.558594 264.347656 36.910156 C 266.230469 40.59375 267.167969 44.859375 266.375 48.910156 C 265.582031 52.964844 262.882812 56.730469 259.046875 58.246094 C 253.847656 60.296875 251.695312 54.378906 251.320312 50.492188 C 250.949219 46.605469 251.777344 42.714844 252.6875 38.921875 C 253.375 36.078125 254.585938 32.75 257.441406 32.125 Z M 233.8125 30.464844 C 232.925781 28.207031 232.753906 25.898438 233.308594 23.539062 C 233.8125 21.433594 235.050781 19.605469 236.898438 19.488281 C 239.371094 19.320312 242.105469 22.480469 242.765625 25.699219 C 243.429688 28.917969 242.710938 32.445312 240.632812 33.6875 C 237 35.84375 234.730469 32.777344 233.8125 30.464844 Z M 223.734375 49.585938 C 223.855469 47.800781 224.25 45.980469 225.230469 44.488281 C 226.214844 42.996094 227.847656 41.855469 229.636719 41.816406 C 231.539062 41.777344 233.257812 42.9375 234.617188 44.269531 C 240.585938 50.09375 244.835938 64.328125 237.023438 67.191406 C 227.589844 70.648438 223.222656 56.9375 223.734375 49.585938 Z M 223.734375 49.585938 " fill-opacity="1" fill-rule="nonzero"/></g></g></g></g><g clip-path="url(#f9e72b3d98)"><g clip-path="url(#dd019ae8ac)"><g clip-path="url(#0a3175ee0b)"><g clip-path="url(#ec89a8b019)"><path fill="#000000" d="M 230.285156 208.28125 C 232.949219 207.59375 235.828125 208.574219 237.992188 210.269531 C 240.152344 211.964844 241.8125 214.25 243.132812 216.652344 C 245.113281 220.253906 246.351562 223.757812 248.542969 226.914062 C 250.238281 229.355469 253.171875 229.613281 255.171875 227.40625 C 260.152344 221.910156 264.375 216.859375 268.066406 213.167969 C 287.574219 193.660156 299.878906 186.023438 319.410156 196.144531 C 333.417969 203.402344 345.652344 217.597656 340.746094 242.578125 C 338.585938 253.59375 333.832031 260.472656 332.933594 269.898438 C 332.632812 273.101562 333.824219 276.070312 336.984375 275.453125 C 339.785156 274.917969 347.699219 273.183594 350.539062 272.875 C 353.269531 272.574219 356.082031 272.398438 358.738281 273.09375 C 361.394531 273.789062 363.925781 275.484375 364.988281 278.015625 C 366.355469 281.25 365.007812 285.144531 362.546875 287.660156 C 360.082031 290.175781 356.703125 291.554688 353.363281 292.640625 C 344.785156 295.417969 335.808594 296.660156 326.882812 297.890625 L 326.8125 297.902344 C 325.609375 298.066406 324.441406 298.375 323.308594 298.824219 C 322.179688 299.273438 321.121094 299.851562 320.128906 300.558594 C 319.140625 301.269531 318.25 302.085938 317.457031 303.011719 C 316.667969 303.9375 316 304.941406 315.453125 306.03125 C 311.664062 313.613281 308.636719 321.484375 307.3125 329.824219 C 305.769531 339.566406 306.824219 350.125 312.433594 358.210938 C 314.859375 361.699219 318.039062 364.613281 320.605469 367.992188 C 323.175781 371.371094 325.191406 375.511719 324.707031 379.742188 C 324.226562 383.972656 320.457031 388 316.234375 387.519531 C 312.609375 387.113281 310.101562 383.875 307.671875 381.164062 C 294.738281 366.757812 274.160156 362.007812 258.960938 350.019531 C 247.328125 340.839844 239.242188 327.546875 235.28125 313.253906 C 231.320312 298.960938 231.351562 288.574219 234.195312 274.003906 C 235.164062 269.179688 236.511719 264.457031 238.230469 259.84375 C 238.792969 258.328125 239.011719 256.765625 238.886719 255.15625 C 238.761719 253.546875 238.304688 252.035156 237.515625 250.628906 L 237.492188 250.585938 C 233.074219 242.753906 228.628906 234.867188 225.652344 226.375 C 224.496094 223.0625 223.550781 219.542969 224.070312 216.0625 C 224.589844 212.582031 226.878906 209.15625 230.285156 208.28125 Z M 307.28125 260.398438 C 308.648438 261.03125 310.296875 260.832031 311.652344 260.160156 C 313.003906 259.488281 314.097656 258.394531 315.058594 257.226562 C 317.695312 254.039062 319.539062 250.078125 319.640625 245.949219 C 319.746094 241.820312 317.929688 237.558594 314.511719 235.246094 C 309.878906 232.117188 306.496094 237.425781 305.289062 241.136719 C 304.082031 244.851562 304.046875 248.832031 304.113281 252.730469 C 304.167969 255.65625 304.628906 259.167969 307.28125 260.398438 Z M 283.855469 256.890625 C 282.496094 258.902344 281.832031 261.121094 281.859375 263.542969 C 281.894531 265.707031 282.707031 267.761719 284.484375 268.277344 C 286.863281 268.976562 290.21875 266.484375 291.5625 263.484375 C 292.90625 260.488281 292.972656 256.890625 291.210938 255.226562 C 288.132812 252.332031 285.25 254.835938 283.855469 256.890625 Z M 278.164062 236.042969 C 277.894531 237.8125 277.882812 239.671875 278.519531 241.34375 C 279.15625 243.011719 280.503906 244.480469 282.238281 244.90625 C 284.085938 245.355469 286.019531 244.597656 287.632812 243.59375 C 294.726562 239.203125 301.960938 226.226562 294.953125 221.738281 C 286.496094 216.316406 279.257812 228.75 278.164062 236.042969 Z M 278.164062 236.042969 " fill-opacity="1" fill-rule="nonzero"/></g></g></g></g></svg>