<svg xmlns="http://www.w3.org/2000/svg" xmlns:xlink="http://www.w3.org/1999/xlink" width="500" zoomAndPan="magnify" viewBox="0 0 375 374.999991" height="500" preserveAspectRatio="xMidYMid meet" version="1.0"><defs><g/></defs><rect x="-37.5" width="450" fill="#ffffff" y="-37.499999" height="449.999989" fill-opacity="1"/><rect x="-37.5" width="450" fill="#00ff38" y="-37.499999" height="449.999989" fill-opacity="1"/><path fill="#000000" d="M 312.1875 184.050781 C 310.324219 180.90625 306.691406 179.121094 303.0625 178.683594 C 299.429688 178.246094 295.714844 178.835938 292.210938 179.851562 C 286.953125 181.371094 282.488281 183.5 277.457031 184.40625 C 273.558594 185.105469 270.554688 182.59375 270.75 178.644531 C 271.234375 168.804688 272.011719 160.097656 272.011719 153.167969 C 272.011719 116.535156 267.617188 97.8125 239.699219 88.976562 C 219.675781 82.636719 194.792969 84.480469 175.890625 112.539062 C 167.554688 124.914062 165.550781 135.832031 157.523438 145.527344 C 154.792969 148.816406 150.875 150.484375 148.480469 146.941406 C 146.347656 143.808594 140.527344 134.75 138.144531 131.792969 C 135.855469 128.945312 133.375 126.140625 130.21875 124.296875 C 127.0625 122.457031 123.085938 121.671875 119.703125 123.050781 C 115.371094 124.808594 112.96875 129.726562 112.917969 134.402344 C 112.871094 139.074219 114.753906 143.542969 116.875 147.703125 C 122.339844 158.359375 129.621094 167.957031 136.863281 177.492188 L 136.917969 177.566406 C 137.898438 178.851562 138.710938 180.238281 139.351562 181.722656 C 139.992188 183.207031 140.445312 184.746094 140.710938 186.339844 C 140.976562 187.933594 141.042969 189.539062 140.917969 191.148438 C 140.792969 192.761719 140.472656 194.332031 139.960938 195.867188 C 136.390625 206.542969 131.828125 216.777344 125.222656 225.851562 C 117.503906 236.445312 106.574219 245.371094 93.675781 247.695312 C 88.109375 248.695312 82.371094 248.445312 76.773438 249.203125 C 71.171875 249.964844 65.371094 251.960938 61.84375 256.386719 C 58.320312 260.8125 58.074219 268.128906 62.5 271.644531 C 66.296875 274.667969 71.703125 273.984375 76.546875 273.71875 C 102.289062 272.335938 126.136719 287.199219 151.734375 290.210938 C 171.332031 292.515625 191.460938 287.628906 208.648438 277.925781 C 225.832031 268.222656 235.582031 258.445312 246.625 242.089844 C 250.253906 236.648438 253.433594 230.953125 256.15625 225.007812 C 256.601562 224.042969 257.144531 223.136719 257.785156 222.292969 C 258.425781 221.445312 259.148438 220.679688 259.953125 219.988281 C 260.761719 219.300781 261.632812 218.707031 262.570312 218.207031 C 263.503906 217.707031 264.484375 217.3125 265.503906 217.027344 L 265.570312 217.007812 C 277.105469 213.800781 288.714844 210.570312 299.511719 205.390625 C 303.722656 203.367188 307.925781 200.949219 310.714844 197.195312 C 313.503906 193.441406 314.570312 188.074219 312.1875 184.050781 Z M 190.625 160.695312 C 188.738281 160.003906 187.371094 158.269531 186.730469 156.367188 C 186.089844 154.464844 186.089844 152.414062 186.285156 150.410156 C 186.804688 144.945312 188.796875 139.496094 192.589844 135.519531 C 196.378906 131.542969 202.101562 129.25 207.496094 130.285156 C 214.800781 131.699219 212.992188 139.859375 210.632812 144.480469 C 208.269531 149.101562 204.558594 152.871094 200.824219 156.46875 C 198.019531 159.164062 194.277344 162.027344 190.625 160.695312 Z M 215.980469 179.398438 C 215.679688 180.941406 215.15625 182.40625 214.40625 183.792969 C 213.660156 185.175781 212.722656 186.417969 211.597656 187.515625 C 209.523438 189.515625 206.828125 190.683594 204.664062 189.496094 C 201.769531 187.921875 200.957031 182.429688 202.515625 178.351562 C 204.070312 174.277344 207.398438 170.835938 210.621094 170.929688 C 216.246094 171.097656 216.601562 176.15625 215.980469 179.398438 Z M 240.96875 165.164062 C 239.554688 167.078125 237.816406 168.839844 235.644531 169.808594 C 233.476562 170.777344 230.820312 170.894531 228.785156 169.660156 C 226.621094 168.351562 225.519531 165.820312 224.945312 163.363281 C 222.402344 152.582031 227.804688 133.605469 238.628906 135.96875 C 251.695312 138.820312 246.804688 157.292969 240.96875 165.164062 Z M 240.96875 165.164062 " fill-opacity="1" fill-rule="nonzero"/><g fill="#000000" fill-opacity="1"><g transform="translate(77.434773, 269.655505)"><g><path d="M 31.234375 -59.578125 C 32.878906 -60.054688 34.078125 -59.867188 34.828125 -59.015625 C 36.203125 -59.285156 37.472656 -58.96875 38.640625 -58.0625 C 39.816406 -57.15625 40.113281 -55.425781 39.53125 -52.875 C 39.15625 -51.59375 39.046875 -50.6875 39.203125 -50.15625 C 39.367188 -49.625 39.597656 -49.09375 39.890625 -48.5625 C 40.179688 -48.03125 40.273438 -47.40625 40.171875 -46.6875 C 40.066406 -45.96875 39.929688 -45.179688 39.765625 -44.328125 C 39.234375 -41.929688 39.128906 -39.988281 39.453125 -38.5 C 40.253906 -34.976562 39.9375 -31.300781 38.5 -27.46875 C 36.945312 -23.269531 36.46875 -18.210938 37.0625 -12.296875 C 37.539062 -8.035156 37.710938 -5.253906 37.578125 -3.953125 C 37.441406 -2.648438 37.132812 -1.597656 36.65625 -0.796875 C 36.175781 0.00390625 35.378906 0.40625 34.265625 0.40625 C 32.347656 0.40625 31.015625 -0.15625 30.265625 -1.28125 C 29.835938 -1.914062 29.625 -2.738281 29.625 -3.75 C 29.625 -4.757812 29.476562 -5.664062 29.1875 -6.46875 C 28.894531 -7.269531 28.535156 -8.015625 28.109375 -8.703125 C 27.097656 -10.191406 26.140625 -11.226562 25.234375 -11.8125 C 23.742188 -12.832031 22.597656 -15.257812 21.796875 -19.09375 C 21.316406 -21.914062 20.707031 -24.226562 19.96875 -26.03125 C 19.75 -26.5625 19.585938 -27.132812 19.484375 -27.75 C 19.378906 -28.363281 19.273438 -28.960938 19.171875 -29.546875 C 18.847656 -30.828125 18.285156 -31.46875 17.484375 -31.46875 C 16.265625 -31.46875 15.785156 -29.710938 16.046875 -26.203125 C 16.097656 -25.453125 16.21875 -24.769531 16.40625 -24.15625 C 16.59375 -23.539062 16.609375 -22.804688 16.453125 -21.953125 C 16.296875 -21.109375 16.082031 -20.234375 15.8125 -19.328125 C 15.175781 -16.984375 15.039062 -15.253906 15.40625 -14.140625 C 15.78125 -12.859375 15.914062 -11.507812 15.8125 -10.09375 C 15.707031 -8.6875 15.492188 -7.597656 15.171875 -6.828125 C 14.847656 -6.054688 14.289062 -5.507812 13.5 -5.1875 C 13.019531 -4.332031 12.617188 -3.359375 12.296875 -2.265625 C 11.972656 -1.179688 11.742188 -0.453125 11.609375 -0.078125 C 11.484375 0.296875 11.3125 0.507812 11.09375 0.5625 C 10.195312 0.875 9.28125 0.816406 8.34375 0.390625 C 7.414062 -0.0234375 6.816406 -0.617188 6.546875 -1.390625 C 6.285156 -2.171875 6.164062 -2.90625 6.1875 -3.59375 C 6.21875 -4.28125 6.140625 -4.90625 5.953125 -5.46875 C 5.765625 -6.03125 5.679688 -6.492188 5.703125 -6.859375 C 5.734375 -7.234375 5.75 -7.609375 5.75 -7.984375 C 5.851562 -8.835938 5.71875 -9.476562 5.34375 -9.90625 C 4.863281 -10.4375 4.609375 -11.15625 4.578125 -12.0625 C 4.554688 -12.96875 4.546875 -13.738281 4.546875 -14.375 C 4.546875 -15.007812 4.601562 -15.539062 4.71875 -15.96875 C 5.082031 -16.976562 5.238281 -18.523438 5.1875 -20.609375 C 5.03125 -24.492188 4.550781 -26.835938 3.75 -27.640625 C 2.738281 -28.648438 2.179688 -30.507812 2.078125 -33.21875 C 2.023438 -33.863281 2.0625 -34.460938 2.1875 -35.015625 C 2.320312 -35.578125 2.347656 -36.148438 2.265625 -36.734375 C 2.191406 -37.316406 2.289062 -37.90625 2.5625 -38.5 C 2.976562 -39.613281 3.109375 -41.195312 2.953125 -43.25 C 2.796875 -45.300781 2.703125 -46.765625 2.671875 -47.640625 C 2.648438 -48.515625 2.597656 -49.441406 2.515625 -50.421875 C 2.429688 -51.410156 2.507812 -52.289062 2.75 -53.0625 C 2.988281 -53.84375 3.40625 -54.523438 4 -55.109375 C 5.320312 -56.546875 7.179688 -57.265625 9.578125 -57.265625 C 10.648438 -58.003906 11.890625 -58.585938 13.296875 -59.015625 C 14.703125 -59.441406 15.882812 -59.46875 16.84375 -59.09375 C 17.800781 -58.726562 18.46875 -58.144531 18.84375 -57.34375 C 19.21875 -56.539062 19.523438 -55.6875 19.765625 -54.78125 C 20.003906 -53.875 20.242188 -52.957031 20.484375 -52.03125 C 20.722656 -51.101562 21.132812 -50.34375 21.71875 -49.75 C 22.3125 -49.164062 22.738281 -48.460938 23 -47.640625 C 23.269531 -46.816406 23.507812 -46.03125 23.71875 -45.28125 C 23.9375 -44.539062 24.148438 -43.914062 24.359375 -43.40625 C 24.566406 -42.894531 24.910156 -42.640625 25.390625 -42.640625 C 25.867188 -42.640625 26.148438 -43.316406 26.234375 -44.671875 C 26.316406 -46.035156 26.34375 -47.59375 26.3125 -49.34375 C 26.289062 -51.101562 26.265625 -52.820312 26.234375 -54.5 C 26.210938 -56.175781 26.359375 -57.398438 26.671875 -58.171875 C 26.992188 -58.953125 27.566406 -59.523438 28.390625 -59.890625 C 29.210938 -60.265625 30.160156 -60.160156 31.234375 -59.578125 Z M 31.234375 -59.578125 "/></g></g></g><g fill="#000000" fill-opacity="1"><g transform="translate(119.683826, 269.655505)"><g><path d="M 2.15625 -47.515625 L 2.3125 -52.078125 C 2.3125 -52.816406 2.242188 -53.554688 2.109375 -54.296875 C 1.984375 -55.046875 2.171875 -55.832031 2.671875 -56.65625 C 3.179688 -57.488281 3.941406 -58.222656 4.953125 -58.859375 C 5.960938 -59.492188 7.101562 -59.8125 8.375 -59.8125 C 9.65625 -59.8125 10.664062 -59.597656 11.40625 -59.171875 C 12.15625 -58.753906 12.847656 -58.410156 13.484375 -58.140625 C 14.128906 -57.867188 14.851562 -57.65625 15.65625 -57.5 C 17.351562 -57.238281 19.003906 -57.476562 20.609375 -58.21875 C 22.359375 -59.070312 23.769531 -59.019531 24.84375 -58.0625 C 25.957031 -58.007812 27.128906 -58.113281 28.359375 -58.375 C 30.378906 -58.800781 31.757812 -58.828125 32.5 -58.453125 C 34.15625 -57.492188 34.421875 -55.578125 33.296875 -52.703125 C 33.140625 -52.285156 33.0625 -51.914062 33.0625 -51.59375 C 33.0625 -51.269531 33.0625 -50.953125 33.0625 -50.640625 C 33.0625 -49.679688 32.976562 -48.960938 32.8125 -48.484375 C 32.65625 -48.003906 32.578125 -47.601562 32.578125 -47.28125 C 32.578125 -46.957031 32.578125 -46.582031 32.578125 -46.15625 C 32.691406 -45.3125 32.5625 -44.488281 32.1875 -43.6875 C 31.96875 -43.207031 31.859375 -42.820312 31.859375 -42.53125 C 31.859375 -42.238281 31.859375 -41.957031 31.859375 -41.6875 C 31.859375 -41 31.488281 -40.332031 30.75 -39.6875 C 29.519531 -38.414062 28.507812 -37.78125 27.71875 -37.78125 C 27.550781 -37.78125 27.390625 -37.832031 27.234375 -37.9375 C 27.078125 -38.039062 26.835938 -38.144531 26.515625 -38.25 C 25.234375 -38.675781 23.882812 -38.941406 22.46875 -39.046875 C 21.0625 -39.160156 20.039062 -39.132812 19.40625 -38.96875 C 17.8125 -38.65625 16.828125 -37.882812 16.453125 -36.65625 C 16.023438 -35.375 16.128906 -34.390625 16.765625 -33.703125 C 17.035156 -33.378906 17.328125 -33.164062 17.640625 -33.0625 C 17.960938 -32.957031 18.269531 -32.941406 18.5625 -33.015625 C 18.851562 -33.097656 19.253906 -33.085938 19.765625 -32.984375 C 20.273438 -32.878906 20.796875 -32.742188 21.328125 -32.578125 C 22.765625 -32.265625 23.734375 -32.226562 24.234375 -32.46875 C 24.742188 -32.707031 25.09375 -32.800781 25.28125 -32.75 C 25.46875 -32.695312 25.613281 -32.613281 25.71875 -32.5 C 26.09375 -32.132812 26.4375 -31.953125 26.75 -31.953125 C 27.601562 -32.003906 28.1875 -31.640625 28.5 -30.859375 C 28.820312 -30.085938 28.773438 -29.144531 28.359375 -28.03125 C 28.359375 -27.875 28.273438 -27.472656 28.109375 -26.828125 C 27.734375 -25.554688 27.5625 -24.679688 27.59375 -24.203125 C 27.625 -23.722656 27.53125 -23.226562 27.3125 -22.71875 C 27.101562 -22.21875 26.8125 -21.78125 26.4375 -21.40625 C 25.53125 -20.601562 24.546875 -20.363281 23.484375 -20.6875 C 23.003906 -20.894531 22.578125 -21.1875 22.203125 -21.5625 C 19.484375 -22.363281 17.644531 -22.175781 16.6875 -21 C 16.15625 -20.363281 15.863281 -19.804688 15.8125 -19.328125 C 15.757812 -18.847656 15.734375 -17.992188 15.734375 -16.765625 L 15.734375 -13.8125 C 16.421875 -13.332031 17.054688 -12.785156 17.640625 -12.171875 C 18.234375 -11.566406 18.953125 -11.234375 19.796875 -11.171875 C 20.648438 -11.117188 21.410156 -11.1875 22.078125 -11.375 C 22.742188 -11.5625 23.367188 -11.765625 23.953125 -11.984375 C 25.234375 -12.515625 26.40625 -12.601562 27.46875 -12.25 C 28.539062 -11.90625 29.207031 -11.441406 29.46875 -10.859375 C 29.738281 -10.273438 29.789062 -9.503906 29.625 -8.546875 C 29.46875 -7.585938 29.398438 -6.878906 29.421875 -6.421875 C 29.453125 -5.972656 29.46875 -5.5625 29.46875 -5.1875 C 29.46875 -4.28125 29.125 -3.40625 28.4375 -2.5625 C 27.6875 -1.4375 26.988281 -0.753906 26.34375 -0.515625 C 25.707031 -0.273438 24.882812 -0.222656 23.875 -0.359375 C 22.863281 -0.492188 22.039062 -0.441406 21.40625 -0.203125 C 20.769531 0.0351562 20.195312 0.34375 19.6875 0.71875 C 19.175781 1.09375 18.679688 1.4375 18.203125 1.75 C 17.410156 2.289062 16.507812 2.289062 15.5 1.75 C 15.125 1.539062 14.75 1.332031 14.375 1.125 C 13.414062 0.644531 12.242188 0.441406 10.859375 0.515625 C 9.472656 0.597656 8.25 0.203125 7.1875 -0.671875 C 6.125 -1.554688 5.578125 -2.632812 5.546875 -3.90625 C 5.523438 -5.1875 5.59375 -6.101562 5.75 -6.65625 C 5.90625 -7.21875 6.066406 -7.660156 6.234375 -7.984375 C 6.441406 -8.679688 6.332031 -9.210938 5.90625 -9.578125 C 4.632812 -10.585938 4.179688 -11.921875 4.546875 -13.578125 C 4.710938 -14.429688 4.875 -15.097656 5.03125 -15.578125 C 5.1875 -16.054688 5.210938 -16.570312 5.109375 -17.125 C 5.003906 -17.6875 4.960938 -18.191406 4.984375 -18.640625 C 5.015625 -19.097656 5.003906 -19.539062 4.953125 -19.96875 C 4.847656 -20.820312 4.472656 -21.300781 3.828125 -21.40625 C 3.035156 -21.507812 2.503906 -22.359375 2.234375 -23.953125 C 1.910156 -25.503906 2.03125 -27.050781 2.59375 -28.59375 C 3.15625 -30.132812 3.378906 -31.34375 3.265625 -32.21875 C 3.160156 -33.101562 3.082031 -33.914062 3.03125 -34.65625 L 3.109375 -37.78125 C 3.109375 -39.320312 2.972656 -40.359375 2.703125 -40.890625 C 2.441406 -41.421875 2.363281 -42.203125 2.46875 -43.234375 C 2.582031 -44.273438 2.554688 -45.078125 2.390625 -45.640625 C 2.234375 -46.203125 2.15625 -46.828125 2.15625 -47.515625 Z M 2.15625 -47.515625 "/></g></g></g><g fill="#000000" fill-opacity="1"><g transform="translate(154.026156, 269.655505)"><g><path d="M 32.671875 -52.796875 C 32.929688 -50.398438 32.984375 -48.375 32.828125 -46.71875 C 32.828125 -46.71875 32.664062 -45.414062 32.34375 -42.8125 C 32.238281 -41.90625 32.222656 -40.734375 32.296875 -39.296875 C 32.378906 -37.859375 32.234375 -36.832031 31.859375 -36.21875 C 31.492188 -35.601562 30.867188 -35.21875 29.984375 -35.0625 C 29.109375 -34.90625 28.414062 -34.945312 27.90625 -35.1875 C 27.40625 -35.425781 26.941406 -35.675781 26.515625 -35.9375 C 25.453125 -36.519531 24.585938 -36.597656 23.921875 -36.171875 C 23.253906 -35.753906 22.785156 -35.117188 22.515625 -34.265625 C 22.253906 -33.410156 22.097656 -32.425781 22.046875 -31.3125 C 21.878906 -29.65625 21.878906 -27.5 22.046875 -24.84375 C 22.097656 -23.882812 22.109375 -23.125 22.078125 -22.5625 C 22.054688 -22 22.046875 -21.503906 22.046875 -21.078125 C 22.046875 -20.066406 22.203125 -19.082031 22.515625 -18.125 C 22.835938 -17.164062 23 -16.445312 23 -15.96875 C 23 -15.488281 22.929688 -15.101562 22.796875 -14.8125 C 22.671875 -14.519531 22.472656 -14.28125 22.203125 -14.09375 C 21.929688 -13.90625 21.691406 -13.71875 21.484375 -13.53125 C 21.273438 -13.34375 21.050781 -13.15625 20.8125 -12.96875 C 20.570312 -12.789062 20.316406 -12.59375 20.046875 -12.375 C 20.316406 -9.769531 20.367188 -7.707031 20.203125 -6.1875 C 20.046875 -4.664062 19.941406 -3.375 19.890625 -2.3125 C 19.835938 -1.25 19.570312 -0.425781 19.09375 0.15625 C 18.445312 0.90625 17.164062 1.4375 15.25 1.75 C 14.132812 1.8125 13.3125 1.242188 12.78125 0.046875 C 12.25 -1.148438 12.019531 -2.601562 12.09375 -4.3125 C 12.175781 -6.019531 12.132812 -7.335938 11.96875 -8.265625 C 11.8125 -9.191406 11.613281 -9.972656 11.375 -10.609375 C 11.132812 -11.253906 10.90625 -11.828125 10.6875 -12.328125 C 10.476562 -12.835938 10.296875 -13.546875 10.140625 -14.453125 C 9.984375 -15.359375 10.09375 -16.34375 10.46875 -17.40625 C 9.71875 -18.257812 9.207031 -19.164062 8.9375 -20.125 C 8.675781 -21.082031 8.71875 -22.347656 9.0625 -23.921875 C 9.40625 -25.492188 9.644531 -26.914062 9.78125 -28.1875 C 9.914062 -29.46875 9.957031 -30.640625 9.90625 -31.703125 C 9.800781 -34.148438 9.238281 -35.5625 8.21875 -35.9375 C 7.476562 -36.15625 6.664062 -35.96875 5.78125 -35.375 C 4.90625 -34.789062 4.226562 -34.414062 3.75 -34.25 C 3.269531 -34.09375 2.800781 -34.203125 2.34375 -34.578125 C 1.894531 -34.953125 1.679688 -35.40625 1.703125 -35.9375 C 1.734375 -36.46875 1.828125 -37.039062 1.984375 -37.65625 C 2.148438 -38.269531 2.300781 -38.867188 2.4375 -39.453125 C 2.570312 -40.035156 2.53125 -40.59375 2.3125 -41.125 C 2.101562 -41.65625 1.835938 -42 1.515625 -42.15625 C 1.191406 -42.320312 0.898438 -42.59375 0.640625 -42.96875 C -0.0546875 -43.820312 -0.242188 -45.328125 0.078125 -47.484375 C 0.398438 -49.640625 0.640625 -51.40625 0.796875 -52.78125 C 0.953125 -54.164062 1.070312 -55.191406 1.15625 -55.859375 C 1.238281 -56.523438 1.410156 -57.125 1.671875 -57.65625 C 1.941406 -58.1875 2.34375 -58.664062 2.875 -59.09375 C 4.207031 -60.050781 5.9375 -60.398438 8.0625 -60.140625 C 17.863281 -58.804688 23.429688 -58.351562 24.765625 -58.78125 C 25.296875 -58.9375 25.773438 -59.097656 26.203125 -59.265625 C 29.867188 -60.753906 32.023438 -58.597656 32.671875 -52.796875 Z M 32.671875 -52.796875 "/></g></g></g><g fill="#000000" fill-opacity="1"><g transform="translate(187.410096, 269.655505)"><g><path d="M 46.3125 -56.109375 C 46.851562 -55.816406 47.210938 -55.519531 47.390625 -55.21875 C 47.578125 -54.925781 47.800781 -54.632812 48.0625 -54.34375 C 48.332031 -54.050781 48.46875 -53.769531 48.46875 -53.5 C 48.46875 -53.238281 48.441406 -52.945312 48.390625 -52.625 C 48.335938 -52.3125 48.269531 -52.003906 48.1875 -51.703125 C 48.113281 -51.410156 48.140625 -51.078125 48.265625 -50.703125 C 48.398438 -50.335938 48.28125 -49.847656 47.90625 -49.234375 C 47.539062 -48.617188 47.09375 -47.671875 46.5625 -46.390625 C 46.03125 -45.117188 45.644531 -43.679688 45.40625 -42.078125 C 45.164062 -40.484375 44.960938 -38.898438 44.796875 -37.328125 C 44.640625 -35.765625 44.492188 -34.25 44.359375 -32.78125 C 44.222656 -31.320312 43.957031 -30.003906 43.5625 -28.828125 C 43.164062 -27.660156 42.847656 -26.367188 42.609375 -24.953125 C 42.367188 -23.546875 42.140625 -22.097656 41.921875 -20.609375 C 41.390625 -16.828125 40.9375 -14.375 40.5625 -13.25 C 40.195312 -12.132812 40.015625 -11.390625 40.015625 -11.015625 C 40.015625 -10.648438 39.957031 -10.195312 39.84375 -9.65625 C 39.582031 -8.28125 38.984375 -6.992188 38.046875 -5.796875 C 37.117188 -4.597656 36.546875 -3.648438 36.328125 -2.953125 C 36.117188 -2.265625 35.921875 -1.613281 35.734375 -1 C 35.546875 -0.382812 35.316406 0.117188 35.046875 0.515625 C 34.785156 0.921875 34.398438 1.09375 33.890625 1.03125 C 33.390625 0.976562 33.046875 0.898438 32.859375 0.796875 C 32.671875 0.691406 32.5 0.585938 32.34375 0.484375 C 31.8125 -0.109375 31.128906 -0.375 30.296875 -0.3125 C 29.472656 -0.257812 28.878906 -0.257812 28.515625 -0.3125 C 27.660156 -0.375 27.113281 -0.722656 26.875 -1.359375 C 26.632812 -1.992188 26.421875 -3.003906 26.234375 -4.390625 C 26.046875 -5.773438 25.847656 -7.1875 25.640625 -8.625 C 24.992188 -12.1875 24.25 -13.96875 23.40625 -13.96875 C 22.925781 -13.96875 22.65625 -13.59375 22.59375 -12.84375 C 22.539062 -12.101562 22.5 -11.492188 22.46875 -11.015625 C 22.445312 -10.535156 22.382812 -9.976562 22.28125 -9.34375 C 22.175781 -8.707031 21.960938 -7.75 21.640625 -6.46875 C 21.316406 -5.1875 20.945312 -3.960938 20.53125 -2.796875 C 19.40625 0.0234375 18.070312 1.4375 16.53125 1.4375 C 15.300781 1.4375 14.421875 0.984375 13.890625 0.078125 C 13.679688 -0.296875 13.46875 -0.679688 13.25 -1.078125 C 13.039062 -1.472656 12.65625 -1.816406 12.09375 -2.109375 C 11.539062 -2.410156 11.078125 -2.71875 10.703125 -3.03125 C 10.328125 -3.351562 10.035156 -3.78125 9.828125 -4.3125 C 9.503906 -5 9.25 -6.234375 9.0625 -8.015625 C 8.875 -9.804688 8.617188 -11.207031 8.296875 -12.21875 C 7.984375 -13.226562 7.640625 -14.210938 7.265625 -15.171875 C 6.410156 -17.671875 5.992188 -19.503906 6.015625 -20.671875 C 6.046875 -21.847656 5.992188 -22.863281 5.859375 -23.71875 C 5.734375 -24.570312 5.5625 -25.394531 5.34375 -26.1875 C 5.132812 -26.988281 4.882812 -27.816406 4.59375 -28.671875 C 4.300781 -29.523438 4.035156 -30.441406 3.796875 -31.421875 C 3.554688 -32.410156 3.285156 -33.34375 2.984375 -34.21875 C 2.691406 -35.101562 2.414062 -35.941406 2.15625 -36.734375 C 1.625 -38.597656 1.609375 -40.222656 2.109375 -41.609375 C 2.617188 -42.992188 2.6875 -44.40625 2.3125 -45.84375 C 1.9375 -47.28125 1.46875 -48.703125 0.90625 -50.109375 C 0.351562 -51.523438 -0.117188 -52.832031 -0.515625 -54.03125 C -0.921875 -55.226562 -0.882812 -56.210938 -0.40625 -56.984375 C 0.0703125 -57.753906 0.75 -58.21875 1.625 -58.375 C 2.507812 -58.539062 3.40625 -58.554688 4.3125 -58.421875 C 5.21875 -58.285156 6.097656 -58.113281 6.953125 -57.90625 C 8.273438 -57.582031 9.1875 -57.566406 9.6875 -57.859375 C 10.195312 -58.148438 10.613281 -58.363281 10.9375 -58.5 C 11.257812 -58.632812 11.632812 -58.703125 12.0625 -58.703125 C 12.488281 -58.703125 13.03125 -58.515625 13.6875 -58.140625 C 14.351562 -57.765625 14.804688 -57.335938 15.046875 -56.859375 C 15.285156 -56.378906 15.445312 -55.820312 15.53125 -55.1875 C 15.613281 -54.550781 15.65625 -53.84375 15.65625 -53.0625 C 15.65625 -52.289062 15.835938 -51.160156 16.203125 -49.671875 C 17.378906 -45.253906 17.566406 -41.316406 16.765625 -37.859375 C 16.285156 -35.835938 16.207031 -34.171875 16.53125 -32.859375 C 16.851562 -31.554688 17.304688 -30.957031 17.890625 -31.0625 C 18.421875 -31.175781 18.765625 -31.59375 18.921875 -32.3125 C 19.085938 -33.03125 19.179688 -33.929688 19.203125 -35.015625 C 19.234375 -36.109375 19.25 -37.28125 19.25 -38.53125 C 19.25 -39.78125 19.351562 -40.9375 19.5625 -42 C 19.78125 -43.070312 19.941406 -43.898438 20.046875 -44.484375 C 20.148438 -45.066406 20.253906 -45.519531 20.359375 -45.84375 C 20.628906 -46.476562 20.976562 -46.878906 21.40625 -47.046875 C 21.1875 -52.847656 22.0625 -56.679688 24.03125 -58.546875 C 24.40625 -58.859375 24.84375 -59.015625 25.34375 -59.015625 C 25.851562 -59.015625 26.347656 -58.664062 26.828125 -57.96875 C 27.304688 -57.28125 27.570312 -56.0625 27.625 -54.3125 C 27.738281 -51.488281 28.003906 -48.742188 28.421875 -46.078125 C 28.847656 -43.421875 29.15625 -41.476562 29.34375 -40.25 C 29.53125 -39.03125 29.734375 -37.910156 29.953125 -36.890625 C 30.640625 -32.742188 31.410156 -32.109375 32.265625 -34.984375 C 32.953125 -37.429688 33.296875 -39.613281 33.296875 -41.53125 C 33.296875 -43.445312 33.164062 -44.535156 32.90625 -44.796875 C 31.726562 -45.867188 31.726562 -47.363281 32.90625 -49.28125 C 33.382812 -50.125 33.648438 -51.1875 33.703125 -52.46875 C 33.910156 -55.019531 34.109375 -56.519531 34.296875 -56.96875 C 34.484375 -57.425781 34.828125 -57.851562 35.328125 -58.25 C 35.835938 -58.65625 36.382812 -58.960938 36.96875 -59.171875 C 38.46875 -59.765625 39.695312 -59.5 40.65625 -58.375 C 41.1875 -57.6875 42.035156 -57.316406 43.203125 -57.265625 C 44.378906 -57.210938 45.054688 -57.078125 45.234375 -56.859375 C 45.421875 -56.648438 45.78125 -56.398438 46.3125 -56.109375 Z M 46.3125 -56.109375 "/></g></g></g><g fill="#000000" fill-opacity="1"><g transform="translate(235.010162, 269.655505)"><g><path d="M 2.15625 -47.515625 L 2.3125 -52.078125 C 2.3125 -52.816406 2.242188 -53.554688 2.109375 -54.296875 C 1.984375 -55.046875 2.171875 -55.832031 2.671875 -56.65625 C 3.179688 -57.488281 3.941406 -58.222656 4.953125 -58.859375 C 5.960938 -59.492188 7.101562 -59.8125 8.375 -59.8125 C 9.65625 -59.8125 10.664062 -59.597656 11.40625 -59.171875 C 12.15625 -58.753906 12.847656 -58.410156 13.484375 -58.140625 C 14.128906 -57.867188 14.851562 -57.65625 15.65625 -57.5 C 17.351562 -57.238281 19.003906 -57.476562 20.609375 -58.21875 C 22.359375 -59.070312 23.769531 -59.019531 24.84375 -58.0625 C 25.957031 -58.007812 27.128906 -58.113281 28.359375 -58.375 C 30.378906 -58.800781 31.757812 -58.828125 32.5 -58.453125 C 34.15625 -57.492188 34.421875 -55.578125 33.296875 -52.703125 C 33.140625 -52.285156 33.0625 -51.914062 33.0625 -51.59375 C 33.0625 -51.269531 33.0625 -50.953125 33.0625 -50.640625 C 33.0625 -49.679688 32.976562 -48.960938 32.8125 -48.484375 C 32.65625 -48.003906 32.578125 -47.601562 32.578125 -47.28125 C 32.578125 -46.957031 32.578125 -46.582031 32.578125 -46.15625 C 32.691406 -45.3125 32.5625 -44.488281 32.1875 -43.6875 C 31.96875 -43.207031 31.859375 -42.820312 31.859375 -42.53125 C 31.859375 -42.238281 31.859375 -41.957031 31.859375 -41.6875 C 31.859375 -41 31.488281 -40.332031 30.75 -39.6875 C 29.519531 -38.414062 28.507812 -37.78125 27.71875 -37.78125 C 27.550781 -37.78125 27.390625 -37.832031 27.234375 -37.9375 C 27.078125 -38.039062 26.835938 -38.144531 26.515625 -38.25 C 25.234375 -38.675781 23.882812 -38.941406 22.46875 -39.046875 C 21.0625 -39.160156 20.039062 -39.132812 19.40625 -38.96875 C 17.8125 -38.65625 16.828125 -37.882812 16.453125 -36.65625 C 16.023438 -35.375 16.128906 -34.390625 16.765625 -33.703125 C 17.035156 -33.378906 17.328125 -33.164062 17.640625 -33.0625 C 17.960938 -32.957031 18.269531 -32.941406 18.5625 -33.015625 C 18.851562 -33.097656 19.253906 -33.085938 19.765625 -32.984375 C 20.273438 -32.878906 20.796875 -32.742188 21.328125 -32.578125 C 22.765625 -32.265625 23.734375 -32.226562 24.234375 -32.46875 C 24.742188 -32.707031 25.09375 -32.800781 25.28125 -32.75 C 25.46875 -32.695312 25.613281 -32.613281 25.71875 -32.5 C 26.09375 -32.132812 26.4375 -31.953125 26.75 -31.953125 C 27.601562 -32.003906 28.1875 -31.640625 28.5 -30.859375 C 28.820312 -30.085938 28.773438 -29.144531 28.359375 -28.03125 C 28.359375 -27.875 28.273438 -27.472656 28.109375 -26.828125 C 27.734375 -25.554688 27.5625 -24.679688 27.59375 -24.203125 C 27.625 -23.722656 27.53125 -23.226562 27.3125 -22.71875 C 27.101562 -22.21875 26.8125 -21.78125 26.4375 -21.40625 C 25.53125 -20.601562 24.546875 -20.363281 23.484375 -20.6875 C 23.003906 -20.894531 22.578125 -21.1875 22.203125 -21.5625 C 19.484375 -22.363281 17.644531 -22.175781 16.6875 -21 C 16.15625 -20.363281 15.863281 -19.804688 15.8125 -19.328125 C 15.757812 -18.847656 15.734375 -17.992188 15.734375 -16.765625 L 15.734375 -13.8125 C 16.421875 -13.332031 17.054688 -12.785156 17.640625 -12.171875 C 18.234375 -11.566406 18.953125 -11.234375 19.796875 -11.171875 C 20.648438 -11.117188 21.410156 -11.1875 22.078125 -11.375 C 22.742188 -11.5625 23.367188 -11.765625 23.953125 -11.984375 C 25.234375 -12.515625 26.40625 -12.601562 27.46875 -12.25 C 28.539062 -11.90625 29.207031 -11.441406 29.46875 -10.859375 C 29.738281 -10.273438 29.789062 -9.503906 29.625 -8.546875 C 29.46875 -7.585938 29.398438 -6.878906 29.421875 -6.421875 C 29.453125 -5.972656 29.46875 -5.5625 29.46875 -5.1875 C 29.46875 -4.28125 29.125 -3.40625 28.4375 -2.5625 C 27.6875 -1.4375 26.988281 -0.753906 26.34375 -0.515625 C 25.707031 -0.273438 24.882812 -0.222656 23.875 -0.359375 C 22.863281 -0.492188 22.039062 -0.441406 21.40625 -0.203125 C 20.769531 0.0351562 20.195312 0.34375 19.6875 0.71875 C 19.175781 1.09375 18.679688 1.4375 18.203125 1.75 C 17.410156 2.289062 16.507812 2.289062 15.5 1.75 C 15.125 1.539062 14.75 1.332031 14.375 1.125 C 13.414062 0.644531 12.242188 0.441406 10.859375 0.515625 C 9.472656 0.597656 8.25 0.203125 7.1875 -0.671875 C 6.125 -1.554688 5.578125 -2.632812 5.546875 -3.90625 C 5.523438 -5.1875 5.59375 -6.101562 5.75 -6.65625 C 5.90625 -7.21875 6.066406 -7.660156 6.234375 -7.984375 C 6.441406 -8.679688 6.332031 -9.210938 5.90625 -9.578125 C 4.632812 -10.585938 4.179688 -11.921875 4.546875 -13.578125 C 4.710938 -14.429688 4.875 -15.097656 5.03125 -15.578125 C 5.1875 -16.054688 5.210938 -16.570312 5.109375 -17.125 C 5.003906 -17.6875 4.960938 -18.191406 4.984375 -18.640625 C 5.015625 -19.097656 5.003906 -19.539062 4.953125 -19.96875 C 4.847656 -20.820312 4.472656 -21.300781 3.828125 -21.40625 C 3.035156 -21.507812 2.503906 -22.359375 2.234375 -23.953125 C 1.910156 -25.503906 2.03125 -27.050781 2.59375 -28.59375 C 3.15625 -30.132812 3.378906 -31.34375 3.265625 -32.21875 C 3.160156 -33.101562 3.082031 -33.914062 3.03125 -34.65625 L 3.109375 -37.78125 C 3.109375 -39.320312 2.972656 -40.359375 2.703125 -40.890625 C 2.441406 -41.421875 2.363281 -42.203125 2.46875 -43.234375 C 2.582031 -44.273438 2.554688 -45.078125 2.390625 -45.640625 C 2.234375 -46.203125 2.15625 -46.828125 2.15625 -47.515625 Z M 2.15625 -47.515625 "/></g></g></g><g fill="#000000" fill-opacity="1"><g transform="translate(269.352493, 269.655505)"><g><path d="M 21.640625 -12.0625 C 21.910156 -9.664062 22.054688 -7.972656 22.078125 -6.984375 C 22.109375 -6.003906 22.082031 -5.191406 22 -4.546875 C 21.925781 -3.910156 21.804688 -3.328125 21.640625 -2.796875 C 21.265625 -1.566406 20.734375 -0.898438 20.046875 -0.796875 C 19.566406 -0.796875 19.097656 -0.566406 18.640625 -0.109375 C 18.191406 0.335938 17.832031 0.664062 17.5625 0.875 C 17.300781 1.09375 16.914062 1.203125 16.40625 1.203125 C 15.90625 1.203125 15.347656 1.117188 14.734375 0.953125 C 14.117188 0.796875 13.570312 0.375 13.09375 -0.3125 C 12.03125 -1.863281 11.6875 -4.898438 12.0625 -9.421875 C 11.3125 -9.953125 10.789062 -10.722656 10.5 -11.734375 C 10.207031 -12.742188 10.234375 -14.234375 10.578125 -16.203125 C 10.921875 -18.179688 11.132812 -19.625 11.21875 -20.53125 C 11.300781 -21.4375 11.300781 -22.191406 11.21875 -22.796875 C 11.132812 -23.410156 10.988281 -23.914062 10.78125 -24.3125 C 10.570312 -24.71875 10.28125 -25.304688 9.90625 -26.078125 C 9.53125 -26.847656 9.273438 -27.59375 9.140625 -28.3125 C 9.003906 -29.03125 8.773438 -29.5625 8.453125 -29.90625 C 8.140625 -30.25 7.929688 -30.703125 7.828125 -31.265625 C 7.722656 -31.828125 7.535156 -32.375 7.265625 -32.90625 C 7.003906 -33.4375 6.832031 -34.207031 6.75 -35.21875 C 6.664062 -36.226562 6.425781 -37.066406 6.03125 -37.734375 C 5.632812 -38.398438 5.234375 -38.957031 4.828125 -39.40625 C 4.429688 -39.863281 4.046875 -40.304688 3.671875 -40.734375 C 2.609375 -41.898438 1.863281 -42.894531 1.4375 -43.71875 C 1.007812 -44.550781 0.78125 -45.257812 0.75 -45.84375 C 0.726562 -46.425781 0.742188 -46.984375 0.796875 -47.515625 C 0.953125 -48.898438 0.898438 -49.832031 0.640625 -50.3125 L -0.234375 -52.078125 C -1.140625 -53.878906 -1.59375 -55.3125 -1.59375 -56.375 C -1.59375 -57.445312 -1.3125 -58.25 -0.75 -58.78125 C -0.195312 -59.3125 0.394531 -59.46875 1.03125 -59.25 C 1.675781 -59.039062 2.554688 -58.816406 3.671875 -58.578125 C 4.785156 -58.335938 5.648438 -58.285156 6.265625 -58.421875 C 6.878906 -58.554688 7.453125 -58.726562 7.984375 -58.9375 C 9.316406 -59.363281 10.378906 -59.429688 11.171875 -59.140625 C 11.972656 -58.847656 12.519531 -58.367188 12.8125 -57.703125 C 13.101562 -57.035156 13.273438 -56.300781 13.328125 -55.5 C 13.390625 -54.707031 13.429688 -53.910156 13.453125 -53.109375 C 13.484375 -52.304688 13.671875 -51.613281 14.015625 -51.03125 C 14.359375 -50.445312 14.632812 -49.941406 14.84375 -49.515625 C 15.0625 -49.085938 15.238281 -48.644531 15.375 -48.1875 C 15.507812 -47.738281 15.601562 -47.273438 15.65625 -46.796875 C 15.707031 -46.316406 15.769531 -45.726562 15.84375 -45.03125 C 15.925781 -44.34375 16.070312 -43.851562 16.28125 -43.5625 C 16.5 -43.269531 16.742188 -43.125 17.015625 -43.125 C 17.648438 -43.226562 18.070312 -43.878906 18.28125 -45.078125 C 18.5 -46.273438 18.738281 -47.285156 19 -48.109375 C 19.269531 -48.941406 19.507812 -49.675781 19.71875 -50.3125 C 20.207031 -51.59375 20.410156 -52.484375 20.328125 -52.984375 C 20.242188 -53.492188 20.1875 -54.023438 20.15625 -54.578125 C 20.132812 -55.140625 20.234375 -55.660156 20.453125 -56.140625 C 20.984375 -57.316406 22.113281 -57.796875 23.84375 -57.578125 C 25.570312 -57.367188 26.96875 -57.238281 28.03125 -57.1875 C 29.09375 -57.132812 29.914062 -57.347656 30.5 -57.828125 C 31.09375 -58.304688 31.679688 -58.515625 32.265625 -58.453125 C 32.847656 -58.398438 33.351562 -58.160156 33.78125 -57.734375 C 34.789062 -56.722656 34.722656 -55.269531 33.578125 -53.375 C 32.429688 -51.488281 31.671875 -50 31.296875 -48.90625 C 30.929688 -47.820312 30.84375 -46.894531 31.03125 -46.125 C 31.21875 -45.351562 31.28125 -44.78125 31.21875 -44.40625 C 31.164062 -44.03125 31.035156 -43.640625 30.828125 -43.234375 C 30.617188 -42.835938 30.351562 -42.375 30.03125 -41.84375 C 27.738281 -37.800781 25.6875 -32.742188 23.875 -26.671875 C 22.96875 -23.691406 22.359375 -20.019531 22.046875 -15.65625 C 21.941406 -14 21.804688 -12.800781 21.640625 -12.0625 Z M 21.640625 -12.0625 "/></g></g></g><g fill="#ffffff" fill-opacity="1"><g transform="translate(73.820165, 266.040902)"><g><path d="M 31.234375 -59.578125 C 32.878906 -60.054688 34.078125 -59.867188 34.828125 -59.015625 C 36.203125 -59.285156 37.472656 -58.96875 38.640625 -58.0625 C 39.816406 -57.15625 40.113281 -55.425781 39.53125 -52.875 C 39.15625 -51.59375 39.046875 -50.6875 39.203125 -50.15625 C 39.367188 -49.625 39.597656 -49.09375 39.890625 -48.5625 C 40.179688 -48.03125 40.273438 -47.40625 40.171875 -46.6875 C 40.066406 -45.96875 39.929688 -45.179688 39.765625 -44.328125 C 39.234375 -41.929688 39.128906 -39.988281 39.453125 -38.5 C 40.253906 -34.976562 39.9375 -31.300781 38.5 -27.46875 C 36.945312 -23.269531 36.46875 -18.210938 37.0625 -12.296875 C 37.539062 -8.035156 37.710938 -5.253906 37.578125 -3.953125 C 37.441406 -2.648438 37.132812 -1.597656 36.65625 -0.796875 C 36.175781 0.00390625 35.378906 0.40625 34.265625 0.40625 C 32.347656 0.40625 31.015625 -0.15625 30.265625 -1.28125 C 29.835938 -1.914062 29.625 -2.738281 29.625 -3.75 C 29.625 -4.757812 29.476562 -5.664062 29.1875 -6.46875 C 28.894531 -7.269531 28.535156 -8.015625 28.109375 -8.703125 C 27.097656 -10.191406 26.140625 -11.226562 25.234375 -11.8125 C 23.742188 -12.832031 22.597656 -15.257812 21.796875 -19.09375 C 21.316406 -21.914062 20.707031 -24.226562 19.96875 -26.03125 C 19.75 -26.5625 19.585938 -27.132812 19.484375 -27.75 C 19.378906 -28.363281 19.273438 -28.960938 19.171875 -29.546875 C 18.847656 -30.828125 18.285156 -31.46875 17.484375 -31.46875 C 16.265625 -31.46875 15.785156 -29.710938 16.046875 -26.203125 C 16.097656 -25.453125 16.21875 -24.769531 16.40625 -24.15625 C 16.59375 -23.539062 16.609375 -22.804688 16.453125 -21.953125 C 16.296875 -21.109375 16.082031 -20.234375 15.8125 -19.328125 C 15.175781 -16.984375 15.039062 -15.253906 15.40625 -14.140625 C 15.78125 -12.859375 15.914062 -11.507812 15.8125 -10.09375 C 15.707031 -8.6875 15.492188 -7.597656 15.171875 -6.828125 C 14.847656 -6.054688 14.289062 -5.507812 13.5 -5.1875 C 13.019531 -4.332031 12.617188 -3.359375 12.296875 -2.265625 C 11.972656 -1.179688 11.742188 -0.453125 11.609375 -0.078125 C 11.484375 0.296875 11.3125 0.507812 11.09375 0.5625 C 10.195312 0.875 9.28125 0.816406 8.34375 0.390625 C 7.414062 -0.0234375 6.816406 -0.617188 6.546875 -1.390625 C 6.285156 -2.171875 6.164062 -2.90625 6.1875 -3.59375 C 6.21875 -4.28125 6.140625 -4.90625 5.953125 -5.46875 C 5.765625 -6.03125 5.679688 -6.492188 5.703125 -6.859375 C 5.734375 -7.234375 5.75 -7.609375 5.75 -7.984375 C 5.851562 -8.835938 5.71875 -9.476562 5.34375 -9.90625 C 4.863281 -10.4375 4.609375 -11.15625 4.578125 -12.0625 C 4.554688 -12.96875 4.546875 -13.738281 4.546875 -14.375 C 4.546875 -15.007812 4.601562 -15.539062 4.71875 -15.96875 C 5.082031 -16.976562 5.238281 -18.523438 5.1875 -20.609375 C 5.03125 -24.492188 4.550781 -26.835938 3.75 -27.640625 C 2.738281 -28.648438 2.179688 -30.507812 2.078125 -33.21875 C 2.023438 -33.863281 2.0625 -34.460938 2.1875 -35.015625 C 2.320312 -35.578125 2.347656 -36.148438 2.265625 -36.734375 C 2.191406 -37.316406 2.289062 -37.90625 2.5625 -38.5 C 2.976562 -39.613281 3.109375 -41.195312 2.953125 -43.25 C 2.796875 -45.300781 2.703125 -46.765625 2.671875 -47.640625 C 2.648438 -48.515625 2.597656 -49.441406 2.515625 -50.421875 C 2.429688 -51.410156 2.507812 -52.289062 2.75 -53.0625 C 2.988281 -53.84375 3.40625 -54.523438 4 -55.109375 C 5.320312 -56.546875 7.179688 -57.265625 9.578125 -57.265625 C 10.648438 -58.003906 11.890625 -58.585938 13.296875 -59.015625 C 14.703125 -59.441406 15.882812 -59.46875 16.84375 -59.09375 C 17.800781 -58.726562 18.46875 -58.144531 18.84375 -57.34375 C 19.21875 -56.539062 19.523438 -55.6875 19.765625 -54.78125 C 20.003906 -53.875 20.242188 -52.957031 20.484375 -52.03125 C 20.722656 -51.101562 21.132812 -50.34375 21.71875 -49.75 C 22.3125 -49.164062 22.738281 -48.460938 23 -47.640625 C 23.269531 -46.816406 23.507812 -46.03125 23.71875 -45.28125 C 23.9375 -44.539062 24.148438 -43.914062 24.359375 -43.40625 C 24.566406 -42.894531 24.910156 -42.640625 25.390625 -42.640625 C 25.867188 -42.640625 26.148438 -43.316406 26.234375 -44.671875 C 26.316406 -46.035156 26.34375 -47.59375 26.3125 -49.34375 C 26.289062 -51.101562 26.265625 -52.820312 26.234375 -54.5 C 26.210938 -56.175781 26.359375 -57.398438 26.671875 -58.171875 C 26.992188 -58.953125 27.566406 -59.523438 28.390625 -59.890625 C 29.210938 -60.265625 30.160156 -60.160156 31.234375 -59.578125 Z M 31.234375 -59.578125 "/></g></g></g><g fill="#ffffff" fill-opacity="1"><g transform="translate(116.069217, 266.040902)"><g><path d="M 2.15625 -47.515625 L 2.3125 -52.078125 C 2.3125 -52.816406 2.242188 -53.554688 2.109375 -54.296875 C 1.984375 -55.046875 2.171875 -55.832031 2.671875 -56.65625 C 3.179688 -57.488281 3.941406 -58.222656 4.953125 -58.859375 C 5.960938 -59.492188 7.101562 -59.8125 8.375 -59.8125 C 9.65625 -59.8125 10.664062 -59.597656 11.40625 -59.171875 C 12.15625 -58.753906 12.847656 -58.410156 13.484375 -58.140625 C 14.128906 -57.867188 14.851562 -57.65625 15.65625 -57.5 C 17.351562 -57.238281 19.003906 -57.476562 20.609375 -58.21875 C 22.359375 -59.070312 23.769531 -59.019531 24.84375 -58.0625 C 25.957031 -58.007812 27.128906 -58.113281 28.359375 -58.375 C 30.378906 -58.800781 31.757812 -58.828125 32.5 -58.453125 C 34.15625 -57.492188 34.421875 -55.578125 33.296875 -52.703125 C 33.140625 -52.285156 33.0625 -51.914062 33.0625 -51.59375 C 33.0625 -51.269531 33.0625 -50.953125 33.0625 -50.640625 C 33.0625 -49.679688 32.976562 -48.960938 32.8125 -48.484375 C 32.65625 -48.003906 32.578125 -47.601562 32.578125 -47.28125 C 32.578125 -46.957031 32.578125 -46.582031 32.578125 -46.15625 C 32.691406 -45.3125 32.5625 -44.488281 32.1875 -43.6875 C 31.96875 -43.207031 31.859375 -42.820312 31.859375 -42.53125 C 31.859375 -42.238281 31.859375 -41.957031 31.859375 -41.6875 C 31.859375 -41 31.488281 -40.332031 30.75 -39.6875 C 29.519531 -38.414062 28.507812 -37.78125 27.71875 -37.78125 C 27.550781 -37.78125 27.390625 -37.832031 27.234375 -37.9375 C 27.078125 -38.039062 26.835938 -38.144531 26.515625 -38.25 C 25.234375 -38.675781 23.882812 -38.941406 22.46875 -39.046875 C 21.0625 -39.160156 20.039062 -39.132812 19.40625 -38.96875 C 17.8125 -38.65625 16.828125 -37.882812 16.453125 -36.65625 C 16.023438 -35.375 16.128906 -34.390625 16.765625 -33.703125 C 17.035156 -33.378906 17.328125 -33.164062 17.640625 -33.0625 C 17.960938 -32.957031 18.269531 -32.941406 18.5625 -33.015625 C 18.851562 -33.097656 19.253906 -33.085938 19.765625 -32.984375 C 20.273438 -32.878906 20.796875 -32.742188 21.328125 -32.578125 C 22.765625 -32.265625 23.734375 -32.226562 24.234375 -32.46875 C 24.742188 -32.707031 25.09375 -32.800781 25.28125 -32.75 C 25.46875 -32.695312 25.613281 -32.613281 25.71875 -32.5 C 26.09375 -32.132812 26.4375 -31.953125 26.75 -31.953125 C 27.601562 -32.003906 28.1875 -31.640625 28.5 -30.859375 C 28.820312 -30.085938 28.773438 -29.144531 28.359375 -28.03125 C 28.359375 -27.875 28.273438 -27.472656 28.109375 -26.828125 C 27.734375 -25.554688 27.5625 -24.679688 27.59375 -24.203125 C 27.625 -23.722656 27.53125 -23.226562 27.3125 -22.71875 C 27.101562 -22.21875 26.8125 -21.78125 26.4375 -21.40625 C 25.53125 -20.601562 24.546875 -20.363281 23.484375 -20.6875 C 23.003906 -20.894531 22.578125 -21.1875 22.203125 -21.5625 C 19.484375 -22.363281 17.644531 -22.175781 16.6875 -21 C 16.15625 -20.363281 15.863281 -19.804688 15.8125 -19.328125 C 15.757812 -18.847656 15.734375 -17.992188 15.734375 -16.765625 L 15.734375 -13.8125 C 16.421875 -13.332031 17.054688 -12.785156 17.640625 -12.171875 C 18.234375 -11.566406 18.953125 -11.234375 19.796875 -11.171875 C 20.648438 -11.117188 21.410156 -11.1875 22.078125 -11.375 C 22.742188 -11.5625 23.367188 -11.765625 23.953125 -11.984375 C 25.234375 -12.515625 26.40625 -12.601562 27.46875 -12.25 C 28.539062 -11.90625 29.207031 -11.441406 29.46875 -10.859375 C 29.738281 -10.273438 29.789062 -9.503906 29.625 -8.546875 C 29.46875 -7.585938 29.398438 -6.878906 29.421875 -6.421875 C 29.453125 -5.972656 29.46875 -5.5625 29.46875 -5.1875 C 29.46875 -4.28125 29.125 -3.40625 28.4375 -2.5625 C 27.6875 -1.4375 26.988281 -0.753906 26.34375 -0.515625 C 25.707031 -0.273438 24.882812 -0.222656 23.875 -0.359375 C 22.863281 -0.492188 22.039062 -0.441406 21.40625 -0.203125 C 20.769531 0.0351562 20.195312 0.34375 19.6875 0.71875 C 19.175781 1.09375 18.679688 1.4375 18.203125 1.75 C 17.410156 2.289062 16.507812 2.289062 15.5 1.75 C 15.125 1.539062 14.75 1.332031 14.375 1.125 C 13.414062 0.644531 12.242188 0.441406 10.859375 0.515625 C 9.472656 0.597656 8.25 0.203125 7.1875 -0.671875 C 6.125 -1.554688 5.578125 -2.632812 5.546875 -3.90625 C 5.523438 -5.1875 5.59375 -6.101562 5.75 -6.65625 C 5.90625 -7.21875 6.066406 -7.660156 6.234375 -7.984375 C 6.441406 -8.679688 6.332031 -9.210938 5.90625 -9.578125 C 4.632812 -10.585938 4.179688 -11.921875 4.546875 -13.578125 C 4.710938 -14.429688 4.875 -15.097656 5.03125 -15.578125 C 5.1875 -16.054688 5.210938 -16.570312 5.109375 -17.125 C 5.003906 -17.6875 4.960938 -18.191406 4.984375 -18.640625 C 5.015625 -19.097656 5.003906 -19.539062 4.953125 -19.96875 C 4.847656 -20.820312 4.472656 -21.300781 3.828125 -21.40625 C 3.035156 -21.507812 2.503906 -22.359375 2.234375 -23.953125 C 1.910156 -25.503906 2.03125 -27.050781 2.59375 -28.59375 C 3.15625 -30.132812 3.378906 -31.34375 3.265625 -32.21875 C 3.160156 -33.101562 3.082031 -33.914062 3.03125 -34.65625 L 3.109375 -37.78125 C 3.109375 -39.320312 2.972656 -40.359375 2.703125 -40.890625 C 2.441406 -41.421875 2.363281 -42.203125 2.46875 -43.234375 C 2.582031 -44.273438 2.554688 -45.078125 2.390625 -45.640625 C 2.234375 -46.203125 2.15625 -46.828125 2.15625 -47.515625 Z M 2.15625 -47.515625 "/></g></g></g><g fill="#ffffff" fill-opacity="1"><g transform="translate(150.411548, 266.040902)"><g><path d="M 32.671875 -52.796875 C 32.929688 -50.398438 32.984375 -48.375 32.828125 -46.71875 C 32.828125 -46.71875 32.664062 -45.414062 32.34375 -42.8125 C 32.238281 -41.90625 32.222656 -40.734375 32.296875 -39.296875 C 32.378906 -37.859375 32.234375 -36.832031 31.859375 -36.21875 C 31.492188 -35.601562 30.867188 -35.21875 29.984375 -35.0625 C 29.109375 -34.90625 28.414062 -34.945312 27.90625 -35.1875 C 27.40625 -35.425781 26.941406 -35.675781 26.515625 -35.9375 C 25.453125 -36.519531 24.585938 -36.597656 23.921875 -36.171875 C 23.253906 -35.753906 22.785156 -35.117188 22.515625 -34.265625 C 22.253906 -33.410156 22.097656 -32.425781 22.046875 -31.3125 C 21.878906 -29.65625 21.878906 -27.5 22.046875 -24.84375 C 22.097656 -23.882812 22.109375 -23.125 22.078125 -22.5625 C 22.054688 -22 22.046875 -21.503906 22.046875 -21.078125 C 22.046875 -20.066406 22.203125 -19.082031 22.515625 -18.125 C 22.835938 -17.164062 23 -16.445312 23 -15.96875 C 23 -15.488281 22.929688 -15.101562 22.796875 -14.8125 C 22.671875 -14.519531 22.472656 -14.28125 22.203125 -14.09375 C 21.929688 -13.90625 21.691406 -13.71875 21.484375 -13.53125 C 21.273438 -13.34375 21.050781 -13.15625 20.8125 -12.96875 C 20.570312 -12.789062 20.316406 -12.59375 20.046875 -12.375 C 20.316406 -9.769531 20.367188 -7.707031 20.203125 -6.1875 C 20.046875 -4.664062 19.941406 -3.375 19.890625 -2.3125 C 19.835938 -1.25 19.570312 -0.425781 19.09375 0.15625 C 18.445312 0.90625 17.164062 1.4375 15.25 1.75 C 14.132812 1.8125 13.3125 1.242188 12.78125 0.046875 C 12.25 -1.148438 12.019531 -2.601562 12.09375 -4.3125 C 12.175781 -6.019531 12.132812 -7.335938 11.96875 -8.265625 C 11.8125 -9.191406 11.613281 -9.972656 11.375 -10.609375 C 11.132812 -11.253906 10.90625 -11.828125 10.6875 -12.328125 C 10.476562 -12.835938 10.296875 -13.546875 10.140625 -14.453125 C 9.984375 -15.359375 10.09375 -16.34375 10.46875 -17.40625 C 9.71875 -18.257812 9.207031 -19.164062 8.9375 -20.125 C 8.675781 -21.082031 8.71875 -22.347656 9.0625 -23.921875 C 9.40625 -25.492188 9.644531 -26.914062 9.78125 -28.1875 C 9.914062 -29.46875 9.957031 -30.640625 9.90625 -31.703125 C 9.800781 -34.148438 9.238281 -35.5625 8.21875 -35.9375 C 7.476562 -36.15625 6.664062 -35.96875 5.78125 -35.375 C 4.90625 -34.789062 4.226562 -34.414062 3.75 -34.25 C 3.269531 -34.09375 2.800781 -34.203125 2.34375 -34.578125 C 1.894531 -34.953125 1.679688 -35.40625 1.703125 -35.9375 C 1.734375 -36.46875 1.828125 -37.039062 1.984375 -37.65625 C 2.148438 -38.269531 2.300781 -38.867188 2.4375 -39.453125 C 2.570312 -40.035156 2.53125 -40.59375 2.3125 -41.125 C 2.101562 -41.65625 1.835938 -42 1.515625 -42.15625 C 1.191406 -42.320312 0.898438 -42.59375 0.640625 -42.96875 C -0.0546875 -43.820312 -0.242188 -45.328125 0.078125 -47.484375 C 0.398438 -49.640625 0.640625 -51.40625 0.796875 -52.78125 C 0.953125 -54.164062 1.070312 -55.191406 1.15625 -55.859375 C 1.238281 -56.523438 1.410156 -57.125 1.671875 -57.65625 C 1.941406 -58.1875 2.34375 -58.664062 2.875 -59.09375 C 4.207031 -60.050781 5.9375 -60.398438 8.0625 -60.140625 C 17.863281 -58.804688 23.429688 -58.351562 24.765625 -58.78125 C 25.296875 -58.9375 25.773438 -59.097656 26.203125 -59.265625 C 29.867188 -60.753906 32.023438 -58.597656 32.671875 -52.796875 Z M 32.671875 -52.796875 "/></g></g></g><g fill="#ffffff" fill-opacity="1"><g transform="translate(183.795487, 266.040902)"><g><path d="M 46.3125 -56.109375 C 46.851562 -55.816406 47.210938 -55.519531 47.390625 -55.21875 C 47.578125 -54.925781 47.800781 -54.632812 48.0625 -54.34375 C 48.332031 -54.050781 48.46875 -53.769531 48.46875 -53.5 C 48.46875 -53.238281 48.441406 -52.945312 48.390625 -52.625 C 48.335938 -52.3125 48.269531 -52.003906 48.1875 -51.703125 C 48.113281 -51.410156 48.140625 -51.078125 48.265625 -50.703125 C 48.398438 -50.335938 48.28125 -49.847656 47.90625 -49.234375 C 47.539062 -48.617188 47.09375 -47.671875 46.5625 -46.390625 C 46.03125 -45.117188 45.644531 -43.679688 45.40625 -42.078125 C 45.164062 -40.484375 44.960938 -38.898438 44.796875 -37.328125 C 44.640625 -35.765625 44.492188 -34.25 44.359375 -32.78125 C 44.222656 -31.320312 43.957031 -30.003906 43.5625 -28.828125 C 43.164062 -27.660156 42.847656 -26.367188 42.609375 -24.953125 C 42.367188 -23.546875 42.140625 -22.097656 41.921875 -20.609375 C 41.390625 -16.828125 40.9375 -14.375 40.5625 -13.25 C 40.195312 -12.132812 40.015625 -11.390625 40.015625 -11.015625 C 40.015625 -10.648438 39.957031 -10.195312 39.84375 -9.65625 C 39.582031 -8.28125 38.984375 -6.992188 38.046875 -5.796875 C 37.117188 -4.597656 36.546875 -3.648438 36.328125 -2.953125 C 36.117188 -2.265625 35.921875 -1.613281 35.734375 -1 C 35.546875 -0.382812 35.316406 0.117188 35.046875 0.515625 C 34.785156 0.921875 34.398438 1.09375 33.890625 1.03125 C 33.390625 0.976562 33.046875 0.898438 32.859375 0.796875 C 32.671875 0.691406 32.5 0.585938 32.34375 0.484375 C 31.8125 -0.109375 31.128906 -0.375 30.296875 -0.3125 C 29.472656 -0.257812 28.878906 -0.257812 28.515625 -0.3125 C 27.660156 -0.375 27.113281 -0.722656 26.875 -1.359375 C 26.632812 -1.992188 26.421875 -3.003906 26.234375 -4.390625 C 26.046875 -5.773438 25.847656 -7.1875 25.640625 -8.625 C 24.992188 -12.1875 24.25 -13.96875 23.40625 -13.96875 C 22.925781 -13.96875 22.65625 -13.59375 22.59375 -12.84375 C 22.539062 -12.101562 22.5 -11.492188 22.46875 -11.015625 C 22.445312 -10.535156 22.382812 -9.976562 22.28125 -9.34375 C 22.175781 -8.707031 21.960938 -7.75 21.640625 -6.46875 C 21.316406 -5.1875 20.945312 -3.960938 20.53125 -2.796875 C 19.40625 0.0234375 18.070312 1.4375 16.53125 1.4375 C 15.300781 1.4375 14.421875 0.984375 13.890625 0.078125 C 13.679688 -0.296875 13.46875 -0.679688 13.25 -1.078125 C 13.039062 -1.472656 12.65625 -1.816406 12.09375 -2.109375 C 11.539062 -2.410156 11.078125 -2.71875 10.703125 -3.03125 C 10.328125 -3.351562 10.035156 -3.78125 9.828125 -4.3125 C 9.503906 -5 9.25 -6.234375 9.0625 -8.015625 C 8.875 -9.804688 8.617188 -11.207031 8.296875 -12.21875 C 7.984375 -13.226562 7.640625 -14.210938 7.265625 -15.171875 C 6.410156 -17.671875 5.992188 -19.503906 6.015625 -20.671875 C 6.046875 -21.847656 5.992188 -22.863281 5.859375 -23.71875 C 5.734375 -24.570312 5.5625 -25.394531 5.34375 -26.1875 C 5.132812 -26.988281 4.882812 -27.816406 4.59375 -28.671875 C 4.300781 -29.523438 4.035156 -30.441406 3.796875 -31.421875 C 3.554688 -32.410156 3.285156 -33.34375 2.984375 -34.21875 C 2.691406 -35.101562 2.414062 -35.941406 2.15625 -36.734375 C 1.625 -38.597656 1.609375 -40.222656 2.109375 -41.609375 C 2.617188 -42.992188 2.6875 -44.40625 2.3125 -45.84375 C 1.9375 -47.28125 1.46875 -48.703125 0.90625 -50.109375 C 0.351562 -51.523438 -0.117188 -52.832031 -0.515625 -54.03125 C -0.921875 -55.226562 -0.882812 -56.210938 -0.40625 -56.984375 C 0.0703125 -57.753906 0.75 -58.21875 1.625 -58.375 C 2.507812 -58.539062 3.40625 -58.554688 4.3125 -58.421875 C 5.21875 -58.285156 6.097656 -58.113281 6.953125 -57.90625 C 8.273438 -57.582031 9.1875 -57.566406 9.6875 -57.859375 C 10.195312 -58.148438 10.613281 -58.363281 10.9375 -58.5 C 11.257812 -58.632812 11.632812 -58.703125 12.0625 -58.703125 C 12.488281 -58.703125 13.03125 -58.515625 13.6875 -58.140625 C 14.351562 -57.765625 14.804688 -57.335938 15.046875 -56.859375 C 15.285156 -56.378906 15.445312 -55.820312 15.53125 -55.1875 C 15.613281 -54.550781 15.65625 -53.84375 15.65625 -53.0625 C 15.65625 -52.289062 15.835938 -51.160156 16.203125 -49.671875 C 17.378906 -45.253906 17.566406 -41.316406 16.765625 -37.859375 C 16.285156 -35.835938 16.207031 -34.171875 16.53125 -32.859375 C 16.851562 -31.554688 17.304688 -30.957031 17.890625 -31.0625 C 18.421875 -31.175781 18.765625 -31.59375 18.921875 -32.3125 C 19.085938 -33.03125 19.179688 -33.929688 19.203125 -35.015625 C 19.234375 -36.109375 19.25 -37.28125 19.25 -38.53125 C 19.25 -39.78125 19.351562 -40.9375 19.5625 -42 C 19.78125 -43.070312 19.941406 -43.898438 20.046875 -44.484375 C 20.148438 -45.066406 20.253906 -45.519531 20.359375 -45.84375 C 20.628906 -46.476562 20.976562 -46.878906 21.40625 -47.046875 C 21.1875 -52.847656 22.0625 -56.679688 24.03125 -58.546875 C 24.40625 -58.859375 24.84375 -59.015625 25.34375 -59.015625 C 25.851562 -59.015625 26.347656 -58.664062 26.828125 -57.96875 C 27.304688 -57.28125 27.570312 -56.0625 27.625 -54.3125 C 27.738281 -51.488281 28.003906 -48.742188 28.421875 -46.078125 C 28.847656 -43.421875 29.15625 -41.476562 29.34375 -40.25 C 29.53125 -39.03125 29.734375 -37.910156 29.953125 -36.890625 C 30.640625 -32.742188 31.410156 -32.109375 32.265625 -34.984375 C 32.953125 -37.429688 33.296875 -39.613281 33.296875 -41.53125 C 33.296875 -43.445312 33.164062 -44.535156 32.90625 -44.796875 C 31.726562 -45.867188 31.726562 -47.363281 32.90625 -49.28125 C 33.382812 -50.125 33.648438 -51.1875 33.703125 -52.46875 C 33.910156 -55.019531 34.109375 -56.519531 34.296875 -56.96875 C 34.484375 -57.425781 34.828125 -57.851562 35.328125 -58.25 C 35.835938 -58.65625 36.382812 -58.960938 36.96875 -59.171875 C 38.46875 -59.765625 39.695312 -59.5 40.65625 -58.375 C 41.1875 -57.6875 42.035156 -57.316406 43.203125 -57.265625 C 44.378906 -57.210938 45.054688 -57.078125 45.234375 -56.859375 C 45.421875 -56.648438 45.78125 -56.398438 46.3125 -56.109375 Z M 46.3125 -56.109375 "/></g></g></g><g fill="#ffffff" fill-opacity="1"><g transform="translate(231.395554, 266.040902)"><g><path d="M 2.15625 -47.515625 L 2.3125 -52.078125 C 2.3125 -52.816406 2.242188 -53.554688 2.109375 -54.296875 C 1.984375 -55.046875 2.171875 -55.832031 2.671875 -56.65625 C 3.179688 -57.488281 3.941406 -58.222656 4.953125 -58.859375 C 5.960938 -59.492188 7.101562 -59.8125 8.375 -59.8125 C 9.65625 -59.8125 10.664062 -59.597656 11.40625 -59.171875 C 12.15625 -58.753906 12.847656 -58.410156 13.484375 -58.140625 C 14.128906 -57.867188 14.851562 -57.65625 15.65625 -57.5 C 17.351562 -57.238281 19.003906 -57.476562 20.609375 -58.21875 C 22.359375 -59.070312 23.769531 -59.019531 24.84375 -58.0625 C 25.957031 -58.007812 27.128906 -58.113281 28.359375 -58.375 C 30.378906 -58.800781 31.757812 -58.828125 32.5 -58.453125 C 34.15625 -57.492188 34.421875 -55.578125 33.296875 -52.703125 C 33.140625 -52.285156 33.0625 -51.914062 33.0625 -51.59375 C 33.0625 -51.269531 33.0625 -50.953125 33.0625 -50.640625 C 33.0625 -49.679688 32.976562 -48.960938 32.8125 -48.484375 C 32.65625 -48.003906 32.578125 -47.601562 32.578125 -47.28125 C 32.578125 -46.957031 32.578125 -46.582031 32.578125 -46.15625 C 32.691406 -45.3125 32.5625 -44.488281 32.1875 -43.6875 C 31.96875 -43.207031 31.859375 -42.820312 31.859375 -42.53125 C 31.859375 -42.238281 31.859375 -41.957031 31.859375 -41.6875 C 31.859375 -41 31.488281 -40.332031 30.75 -39.6875 C 29.519531 -38.414062 28.507812 -37.78125 27.71875 -37.78125 C 27.550781 -37.78125 27.390625 -37.832031 27.234375 -37.9375 C 27.078125 -38.039062 26.835938 -38.144531 26.515625 -38.25 C 25.234375 -38.675781 23.882812 -38.941406 22.46875 -39.046875 C 21.0625 -39.160156 20.039062 -39.132812 19.40625 -38.96875 C 17.8125 -38.65625 16.828125 -37.882812 16.453125 -36.65625 C 16.023438 -35.375 16.128906 -34.390625 16.765625 -33.703125 C 17.035156 -33.378906 17.328125 -33.164062 17.640625 -33.0625 C 17.960938 -32.957031 18.269531 -32.941406 18.5625 -33.015625 C 18.851562 -33.097656 19.253906 -33.085938 19.765625 -32.984375 C 20.273438 -32.878906 20.796875 -32.742188 21.328125 -32.578125 C 22.765625 -32.265625 23.734375 -32.226562 24.234375 -32.46875 C 24.742188 -32.707031 25.09375 -32.800781 25.28125 -32.75 C 25.46875 -32.695312 25.613281 -32.613281 25.71875 -32.5 C 26.09375 -32.132812 26.4375 -31.953125 26.75 -31.953125 C 27.601562 -32.003906 28.1875 -31.640625 28.5 -30.859375 C 28.820312 -30.085938 28.773438 -29.144531 28.359375 -28.03125 C 28.359375 -27.875 28.273438 -27.472656 28.109375 -26.828125 C 27.734375 -25.554688 27.5625 -24.679688 27.59375 -24.203125 C 27.625 -23.722656 27.53125 -23.226562 27.3125 -22.71875 C 27.101562 -22.21875 26.8125 -21.78125 26.4375 -21.40625 C 25.53125 -20.601562 24.546875 -20.363281 23.484375 -20.6875 C 23.003906 -20.894531 22.578125 -21.1875 22.203125 -21.5625 C 19.484375 -22.363281 17.644531 -22.175781 16.6875 -21 C 16.15625 -20.363281 15.863281 -19.804688 15.8125 -19.328125 C 15.757812 -18.847656 15.734375 -17.992188 15.734375 -16.765625 L 15.734375 -13.8125 C 16.421875 -13.332031 17.054688 -12.785156 17.640625 -12.171875 C 18.234375 -11.566406 18.953125 -11.234375 19.796875 -11.171875 C 20.648438 -11.117188 21.410156 -11.1875 22.078125 -11.375 C 22.742188 -11.5625 23.367188 -11.765625 23.953125 -11.984375 C 25.234375 -12.515625 26.40625 -12.601562 27.46875 -12.25 C 28.539062 -11.90625 29.207031 -11.441406 29.46875 -10.859375 C 29.738281 -10.273438 29.789062 -9.503906 29.625 -8.546875 C 29.46875 -7.585938 29.398438 -6.878906 29.421875 -6.421875 C 29.453125 -5.972656 29.46875 -5.5625 29.46875 -5.1875 C 29.46875 -4.28125 29.125 -3.40625 28.4375 -2.5625 C 27.6875 -1.4375 26.988281 -0.753906 26.34375 -0.515625 C 25.707031 -0.273438 24.882812 -0.222656 23.875 -0.359375 C 22.863281 -0.492188 22.039062 -0.441406 21.40625 -0.203125 C 20.769531 0.0351562 20.195312 0.34375 19.6875 0.71875 C 19.175781 1.09375 18.679688 1.4375 18.203125 1.75 C 17.410156 2.289062 16.507812 2.289062 15.5 1.75 C 15.125 1.539062 14.75 1.332031 14.375 1.125 C 13.414062 0.644531 12.242188 0.441406 10.859375 0.515625 C 9.472656 0.597656 8.25 0.203125 7.1875 -0.671875 C 6.125 -1.554688 5.578125 -2.632812 5.546875 -3.90625 C 5.523438 -5.1875 5.59375 -6.101562 5.75 -6.65625 C 5.90625 -7.21875 6.066406 -7.660156 6.234375 -7.984375 C 6.441406 -8.679688 6.332031 -9.210938 5.90625 -9.578125 C 4.632812 -10.585938 4.179688 -11.921875 4.546875 -13.578125 C 4.710938 -14.429688 4.875 -15.097656 5.03125 -15.578125 C 5.1875 -16.054688 5.210938 -16.570312 5.109375 -17.125 C 5.003906 -17.6875 4.960938 -18.191406 4.984375 -18.640625 C 5.015625 -19.097656 5.003906 -19.539062 4.953125 -19.96875 C 4.847656 -20.820312 4.472656 -21.300781 3.828125 -21.40625 C 3.035156 -21.507812 2.503906 -22.359375 2.234375 -23.953125 C 1.910156 -25.503906 2.03125 -27.050781 2.59375 -28.59375 C 3.15625 -30.132812 3.378906 -31.34375 3.265625 -32.21875 C 3.160156 -33.101562 3.082031 -33.914062 3.03125 -34.65625 L 3.109375 -37.78125 C 3.109375 -39.320312 2.972656 -40.359375 2.703125 -40.890625 C 2.441406 -41.421875 2.363281 -42.203125 2.46875 -43.234375 C 2.582031 -44.273438 2.554688 -45.078125 2.390625 -45.640625 C 2.234375 -46.203125 2.15625 -46.828125 2.15625 -47.515625 Z M 2.15625 -47.515625 "/></g></g></g><g fill="#ffffff" fill-opacity="1"><g transform="translate(265.737884, 266.040902)"><g><path d="M 21.640625 -12.0625 C 21.910156 -9.664062 22.054688 -7.972656 22.078125 -6.984375 C 22.109375 -6.003906 22.082031 -5.191406 22 -4.546875 C 21.925781 -3.910156 21.804688 -3.328125 21.640625 -2.796875 C 21.265625 -1.566406 20.734375 -0.898438 20.046875 -0.796875 C 19.566406 -0.796875 19.097656 -0.566406 18.640625 -0.109375 C 18.191406 0.335938 17.832031 0.664062 17.5625 0.875 C 17.300781 1.09375 16.914062 1.203125 16.40625 1.203125 C 15.90625 1.203125 15.347656 1.117188 14.734375 0.953125 C 14.117188 0.796875 13.570312 0.375 13.09375 -0.3125 C 12.03125 -1.863281 11.6875 -4.898438 12.0625 -9.421875 C 11.3125 -9.953125 10.789062 -10.722656 10.5 -11.734375 C 10.207031 -12.742188 10.234375 -14.234375 10.578125 -16.203125 C 10.921875 -18.179688 11.132812 -19.625 11.21875 -20.53125 C 11.300781 -21.4375 11.300781 -22.191406 11.21875 -22.796875 C 11.132812 -23.410156 10.988281 -23.914062 10.78125 -24.3125 C 10.570312 -24.71875 10.28125 -25.304688 9.90625 -26.078125 C 9.53125 -26.847656 9.273438 -27.59375 9.140625 -28.3125 C 9.003906 -29.03125 8.773438 -29.5625 8.453125 -29.90625 C 8.140625 -30.25 7.929688 -30.703125 7.828125 -31.265625 C 7.722656 -31.828125 7.535156 -32.375 7.265625 -32.90625 C 7.003906 -33.4375 6.832031 -34.207031 6.75 -35.21875 C 6.664062 -36.226562 6.425781 -37.066406 6.03125 -37.734375 C 5.632812 -38.398438 5.234375 -38.957031 4.828125 -39.40625 C 4.429688 -39.863281 4.046875 -40.304688 3.671875 -40.734375 C 2.609375 -41.898438 1.863281 -42.894531 1.4375 -43.71875 C 1.007812 -44.550781 0.78125 -45.257812 0.75 -45.84375 C 0.726562 -46.425781 0.742188 -46.984375 0.796875 -47.515625 C 0.953125 -48.898438 0.898438 -49.832031 0.640625 -50.3125 L -0.234375 -52.078125 C -1.140625 -53.878906 -1.59375 -55.3125 -1.59375 -56.375 C -1.59375 -57.445312 -1.3125 -58.25 -0.75 -58.78125 C -0.195312 -59.3125 0.394531 -59.46875 1.03125 -59.25 C 1.675781 -59.039062 2.554688 -58.816406 3.671875 -58.578125 C 4.785156 -58.335938 5.648438 -58.285156 6.265625 -58.421875 C 6.878906 -58.554688 7.453125 -58.726562 7.984375 -58.9375 C 9.316406 -59.363281 10.378906 -59.429688 11.171875 -59.140625 C 11.972656 -58.847656 12.519531 -58.367188 12.8125 -57.703125 C 13.101562 -57.035156 13.273438 -56.300781 13.328125 -55.5 C 13.390625 -54.707031 13.429688 -53.910156 13.453125 -53.109375 C 13.484375 -52.304688 13.671875 -51.613281 14.015625 -51.03125 C 14.359375 -50.445312 14.632812 -49.941406 14.84375 -49.515625 C 15.0625 -49.085938 15.238281 -48.644531 15.375 -48.1875 C 15.507812 -47.738281 15.601562 -47.273438 15.65625 -46.796875 C 15.707031 -46.316406 15.769531 -45.726562 15.84375 -45.03125 C 15.925781 -44.34375 16.070312 -43.851562 16.28125 -43.5625 C 16.5 -43.269531 16.742188 -43.125 17.015625 -43.125 C 17.648438 -43.226562 18.070312 -43.878906 18.28125 -45.078125 C 18.5 -46.273438 18.738281 -47.285156 19 -48.109375 C 19.269531 -48.941406 19.507812 -49.675781 19.71875 -50.3125 C 20.207031 -51.59375 20.410156 -52.484375 20.328125 -52.984375 C 20.242188 -53.492188 20.1875 -54.023438 20.15625 -54.578125 C 20.132812 -55.140625 20.234375 -55.660156 20.453125 -56.140625 C 20.984375 -57.316406 22.113281 -57.796875 23.84375 -57.578125 C 25.570312 -57.367188 26.96875 -57.238281 28.03125 -57.1875 C 29.09375 -57.132812 29.914062 -57.347656 30.5 -57.828125 C 31.09375 -58.304688 31.679688 -58.515625 32.265625 -58.453125 C 32.847656 -58.398438 33.351562 -58.160156 33.78125 -57.734375 C 34.789062 -56.722656 34.722656 -55.269531 33.578125 -53.375 C 32.429688 -51.488281 31.671875 -50 31.296875 -48.90625 C 30.929688 -47.820312 30.84375 -46.894531 31.03125 -46.125 C 31.21875 -45.351562 31.28125 -44.78125 31.21875 -44.40625 C 31.164062 -44.03125 31.035156 -43.640625 30.828125 -43.234375 C 30.617188 -42.835938 30.351562 -42.375 30.03125 -41.84375 C 27.738281 -37.800781 25.6875 -32.742188 23.875 -26.671875 C 22.96875 -23.691406 22.359375 -20.019531 22.046875 -15.65625 C 21.941406 -14 21.804688 -12.800781 21.640625 -12.0625 Z M 21.640625 -12.0625 "/></g></g></g></svg>